<svg width="347" height="321" viewBox="0 0 347 321" fill="none" xmlns="http://www.w3.org/2000/svg">
<path d="M112.503 91C112.503 96.5228 108.025 101 102.503 101H10C4.47716 101 0 96.5228 0 91V66.2128C0 60.69 4.47715 56.2128 10 56.2128H82.6543C83.8745 56.2128 85.0843 55.9895 86.2241 55.554L123 41.5L112.503 56.2128V91Z" fill="#6EB6F5"/>
<path d="M14.22 70.66C14.6667 70.7533 14.9967 70.93 15.21 71.19C15.43 71.4433 15.54 71.78 15.54 72.2C15.54 73.4267 14.6233 74.04 12.79 74.04C12.1567 74.04 11.6367 74.0267 11.23 74H11.22L11.29 72.07L11.22 67.58L13.22 67.57C13.84 67.57 14.32 67.7067 14.66 67.98C15.0067 68.2467 15.18 68.6367 15.18 69.15C15.18 69.51 15.0967 69.82 14.93 70.08C14.7633 70.3333 14.5267 70.5267 14.22 70.66ZM14.12 69.27C14.12 68.95 14.03 68.72 13.85 68.58C13.67 68.44 13.3667 68.37 12.94 68.37H12.26L12.23 70.34L13.26 70.37C13.5533 70.2967 13.77 70.1733 13.91 70C14.05 69.82 14.12 69.5767 14.12 69.27ZM12.96 73.24C13.4533 73.24 13.8333 73.1467 14.1 72.96C14.3667 72.7733 14.5 72.5 14.5 72.14C14.5 71.5667 14.13 71.23 13.39 71.13L12.22 71.14L12.21 71.98L12.24 73.21C12.5 73.23 12.74 73.24 12.96 73.24ZM18.9015 68.92C19.6348 68.92 20.2015 69.1367 20.6015 69.57C21.0082 69.9967 21.2115 70.6 21.2115 71.38C21.2115 72.2467 20.9948 72.9133 20.5615 73.38C20.1348 73.8467 19.5248 74.08 18.7315 74.08C17.9915 74.08 17.4215 73.86 17.0215 73.42C16.6215 72.98 16.4215 72.3567 16.4215 71.55C16.4215 70.71 16.6348 70.0633 17.0615 69.61C17.4948 69.15 18.1082 68.92 18.9015 68.92ZM18.8115 69.71C18.3315 69.71 17.9782 69.8467 17.7515 70.12C17.5315 70.3867 17.4215 70.8233 17.4215 71.43C17.4215 72.1033 17.5315 72.5833 17.7515 72.87C17.9715 73.1567 18.3215 73.3 18.8015 73.3C19.2882 73.3 19.6448 73.1667 19.8715 72.9C20.0982 72.6267 20.2115 72.1833 20.2115 71.57C20.2115 70.9033 20.1015 70.4267 19.8815 70.14C19.6615 69.8533 19.3048 69.71 18.8115 69.71ZM26.1477 67.35C26.0277 67.6367 25.831 67.86 25.5577 68.02C25.291 68.18 24.9777 68.26 24.6177 68.26C24.2577 68.26 23.9477 68.1833 23.6877 68.03C23.4343 67.87 23.241 67.6433 23.1077 67.35L23.6277 66.99H23.7477C23.8143 67.2167 23.9177 67.3833 24.0577 67.49C24.2043 67.59 24.3977 67.64 24.6377 67.64C24.8777 67.64 25.0643 67.5933 25.1977 67.5C25.331 67.4 25.4377 67.23 25.5177 66.99H25.6277L26.1477 67.35ZM22.4877 72.5L22.4377 69L23.4277 68.95L23.3677 72.5H23.4377L25.7877 68.97H26.8377L26.7877 72.41L26.8177 74H25.8377L25.8877 72.5V70.47H25.8077L23.4577 74H22.4377L22.4877 72.5ZM31.4842 69.07L31.4242 69.84L30.4542 69.77H30.0342L30.0142 72.41L30.0442 74H29.0842L29.1242 72.5L29.1042 69.77H28.6942L27.7042 69.84L27.6342 69.76L27.7042 68.99H31.4342L31.4842 69.07ZM32.4193 72.5L32.3693 69L33.3593 68.95L33.2993 72.5H33.3693L35.7193 68.97H36.7693L36.7193 72.41L36.7493 74H35.7693L35.8193 72.5V70.47H35.7393L33.3893 74H32.3693L32.4193 72.5ZM40.1048 72.5L40.0548 69L41.0448 68.95L40.9848 72.5H41.0548L43.4048 68.97H44.4548L44.4048 72.41L44.4348 74H43.4548L43.5048 72.5V70.47H43.4248L41.0748 74H40.0548L40.1048 72.5ZM49.5988 72.41L49.6288 74H48.6488L48.6988 72.5L48.6588 69.72H47.5388L47.4988 70.07C47.3922 71.0967 47.2688 71.89 47.1288 72.45C46.9955 73.01 46.8255 73.4167 46.6188 73.67C46.4188 73.9167 46.1522 74.06 45.8188 74.1L45.5488 74.12L45.3788 73.32C45.6455 73.2467 45.8555 73.1033 46.0088 72.89C46.1622 72.67 46.2888 72.33 46.3888 71.87C46.4888 71.41 46.5788 70.75 46.6588 69.89L46.7488 68.99L46.7388 68.97H49.6488L49.5988 72.41ZM51.3744 72.5L51.3244 69L52.3144 68.95L52.2544 72.5H52.3244L54.6744 68.97H55.7244L55.6744 72.41L55.7044 74H54.7244L54.7744 72.5V70.47H54.6944L52.3444 74H51.3244L51.3744 72.5ZM63.3199 72.41L63.3599 74H62.3999L62.4299 72.5L62.4199 71.9L61.1299 71.89L59.9499 71.91L59.9399 72.41L59.9799 74H59.0199L59.0599 72.5L59.0199 68.99H59.9899L59.9599 71.07L61.1999 71.09L62.4199 71.08L62.3999 68.99H63.3699L63.3199 72.41ZM68.2751 73.2L68.3451 73.27L68.2651 74H65.0551L65.0951 72.5L65.0551 68.99H68.2951L68.3551 69.07L68.2851 69.8L67.0151 69.75L66.0151 69.76L65.9951 71.06L66.9551 71.07L67.8251 71.04L67.8751 71.12L67.8151 71.86L66.8751 71.83L65.9851 71.84L65.9751 72.41L65.9951 73.23L66.9251 73.24L68.2751 73.2ZM73.9346 71.4C74.6546 71.5533 75.0146 71.9467 75.0146 72.58C75.0146 73.5467 74.2379 74.03 72.6846 74.03C72.2113 74.03 71.7546 74.02 71.3146 74L71.3546 72.5L71.3146 68.99L73.0746 68.98C73.5946 68.98 74.0013 69.0867 74.2946 69.3C74.5879 69.5133 74.7346 69.82 74.7346 70.22C74.7346 70.4933 74.6646 70.7333 74.5246 70.94C74.3846 71.14 74.1879 71.2933 73.9346 71.4ZM73.7346 70.35C73.7346 70.1167 73.6579 69.95 73.5046 69.85C73.3513 69.75 73.0979 69.7 72.7446 69.7H72.2646L72.2446 71.09L73.0646 71.12C73.2913 71.0667 73.4579 70.98 73.5646 70.86C73.6779 70.74 73.7346 70.57 73.7346 70.35ZM72.8346 73.33C73.2213 73.33 73.5146 73.2633 73.7146 73.13C73.9213 72.9967 74.0246 72.8 74.0246 72.54C74.0246 72.3333 73.9546 72.1733 73.8146 72.06C73.6746 71.94 73.4613 71.8567 73.1746 71.81L72.2346 71.82L72.2246 72.41L72.2446 73.3C72.4579 73.32 72.6546 73.33 72.8346 73.33ZM78.3058 68.92C79.0391 68.92 79.6058 69.1367 80.0058 69.57C80.4124 69.9967 80.6158 70.6 80.6158 71.38C80.6158 72.2467 80.3991 72.9133 79.9658 73.38C79.5391 73.8467 78.9291 74.08 78.1358 74.08C77.3958 74.08 76.8258 73.86 76.4258 73.42C76.0258 72.98 75.8258 72.3567 75.8258 71.55C75.8258 70.71 76.0391 70.0633 76.4658 69.61C76.8991 69.15 77.5124 68.92 78.3058 68.92ZM78.2158 69.71C77.7358 69.71 77.3824 69.8467 77.1558 70.12C76.9358 70.3867 76.8258 70.8233 76.8258 71.43C76.8258 72.1033 76.9358 72.5833 77.1558 72.87C77.3758 73.1567 77.7258 73.3 78.2058 73.3C78.6924 73.3 79.0491 73.1667 79.2758 72.9C79.5024 72.6267 79.6158 72.1833 79.6158 71.57C79.6158 70.9033 79.5058 70.4267 79.2858 70.14C79.0658 69.8533 78.7091 69.71 78.2158 69.71ZM85.552 67.35C85.432 67.6367 85.2353 67.86 84.962 68.02C84.6953 68.18 84.382 68.26 84.022 68.26C83.662 68.26 83.352 68.1833 83.092 68.03C82.8386 67.87 82.6453 67.6433 82.512 67.35L83.032 66.99H83.152C83.2186 67.2167 83.322 67.3833 83.462 67.49C83.6086 67.59 83.802 67.64 84.042 67.64C84.282 67.64 84.4686 67.5933 84.602 67.5C84.7353 67.4 84.842 67.23 84.922 66.99H85.032L85.552 67.35ZM81.892 72.5L81.842 69L82.832 68.95L82.772 72.5H82.842L85.192 68.97H86.242L86.192 72.41L86.222 74H85.242L85.292 72.5V70.47H85.212L82.862 74H81.842L81.892 72.5ZM90.8885 69.07L90.8285 69.84L89.8585 69.77H89.4385L89.4185 72.41L89.4485 74H88.4885L88.5285 72.5L88.5085 69.77H88.0985L87.1085 69.84L87.0385 69.76L87.1085 68.99H90.8385L90.8885 69.07ZM91.8236 72.5L91.7736 69L92.7636 68.95L92.7036 72.5H92.7736L95.1236 68.97H96.1736L96.1236 72.41L96.1536 74H95.1736L95.2236 72.5V70.47H95.1436L92.7936 74H91.7736L91.8236 72.5ZM98.0548 72.94C98.3415 73.1467 98.4848 73.3967 98.4848 73.69C98.4848 74.1833 98.1315 74.6833 97.4248 75.19L97.0948 74.89L97.0848 74.81C97.4515 74.51 97.6348 74.2033 97.6348 73.89C97.6348 73.6833 97.5315 73.5067 97.3248 73.36V73.27C97.5715 73.11 97.8148 73 98.0548 72.94ZM30.6045 87.4C31.3245 87.5533 31.6845 87.9467 31.6845 88.58C31.6845 89.5467 30.9079 90.03 29.3545 90.03C28.8812 90.03 28.4245 90.02 27.9845 90L28.0245 88.5L27.9845 84.99L29.7445 84.98C30.2645 84.98 30.6712 85.0867 30.9645 85.3C31.2579 85.5133 31.4045 85.82 31.4045 86.22C31.4045 86.4933 31.3345 86.7333 31.1945 86.94C31.0545 87.14 30.8579 87.2933 30.6045 87.4ZM30.4045 86.35C30.4045 86.1167 30.3279 85.95 30.1745 85.85C30.0212 85.75 29.7679 85.7 29.4145 85.7H28.9345L28.9145 87.09L29.7345 87.12C29.9612 87.0667 30.1279 86.98 30.2345 86.86C30.3479 86.74 30.4045 86.57 30.4045 86.35ZM29.5045 89.33C29.8912 89.33 30.1845 89.2633 30.3845 89.13C30.5912 88.9967 30.6945 88.8 30.6945 88.54C30.6945 88.3333 30.6245 88.1733 30.4845 88.06C30.3445 87.94 30.1312 87.8567 29.8445 87.81L28.9045 87.82L28.8945 88.41L28.9145 89.3C29.1279 89.32 29.3245 89.33 29.5045 89.33ZM34.9757 84.92C35.709 84.92 36.2757 85.1367 36.6757 85.57C37.0824 85.9967 37.2857 86.6 37.2857 87.38C37.2857 88.2467 37.069 88.9133 36.6357 89.38C36.209 89.8467 35.599 90.08 34.8057 90.08C34.0657 90.08 33.4957 89.86 33.0957 89.42C32.6957 88.98 32.4957 88.3567 32.4957 87.55C32.4957 86.71 32.709 86.0633 33.1357 85.61C33.569 85.15 34.1824 84.92 34.9757 84.92ZM34.8857 85.71C34.4057 85.71 34.0524 85.8467 33.8257 86.12C33.6057 86.3867 33.4957 86.8233 33.4957 87.43C33.4957 88.1033 33.6057 88.5833 33.8257 88.87C34.0457 89.1567 34.3957 89.3 34.8757 89.3C35.3624 89.3 35.719 89.1667 35.9457 88.9C36.1724 88.6267 36.2857 88.1833 36.2857 87.57C36.2857 86.9033 36.1757 86.4267 35.9557 86.14C35.7357 85.8533 35.379 85.71 34.8857 85.71ZM41.2401 85.07L41.1801 85.84L40.2101 85.77H39.7901L39.7701 88.41L39.8001 90H38.8401L38.8801 88.5L38.8601 85.77H38.4501L37.4601 85.84L37.3901 85.76L37.4601 84.99H41.1901L41.2401 85.07ZM46.3565 87.4C47.0765 87.5533 47.4365 87.9467 47.4365 88.58C47.4365 89.5467 46.6598 90.03 45.1065 90.03C44.6332 90.03 44.1765 90.02 43.7365 90L43.7765 88.5L43.7365 84.99L45.4965 84.98C46.0165 84.98 46.4232 85.0867 46.7165 85.3C47.0098 85.5133 47.1565 85.82 47.1565 86.22C47.1565 86.4933 47.0865 86.7333 46.9465 86.94C46.8065 87.14 46.6098 87.2933 46.3565 87.4ZM46.1565 86.35C46.1565 86.1167 46.0798 85.95 45.9265 85.85C45.7732 85.75 45.5198 85.7 45.1665 85.7H44.6865L44.6665 87.09L45.4865 87.12C45.7132 87.0667 45.8798 86.98 45.9865 86.86C46.0998 86.74 46.1565 86.57 46.1565 86.35ZM45.2565 89.33C45.6432 89.33 45.9365 89.2633 46.1365 89.13C46.3432 88.9967 46.4465 88.8 46.4465 88.54C46.4465 88.3333 46.3765 88.1733 46.2365 88.06C46.0965 87.94 45.8832 87.8567 45.5965 87.81L44.6565 87.82L44.6465 88.41L44.6665 89.3C44.8798 89.32 45.0765 89.33 45.2565 89.33ZM53.6492 88.41L53.6892 90H52.7092L52.7492 88.5L52.7392 87.88H52.6692C52.3292 88.1667 51.9559 88.3633 51.5492 88.47C50.9892 88.47 50.5759 88.3533 50.3092 88.12C50.0426 87.88 49.9059 87.5067 49.8992 87L49.8792 84.97H50.8592L50.8492 86.74C50.8492 87.0133 50.9159 87.23 51.0492 87.39C51.1892 87.5433 51.3826 87.62 51.6292 87.62C51.8026 87.62 51.9859 87.58 52.1792 87.5C52.3726 87.4133 52.5559 87.2967 52.7292 87.15L52.7092 84.97H53.6992L53.6492 88.41ZM58.6071 89.2L58.6771 89.27L58.5971 90H55.3871L55.4271 88.5L55.3871 84.99H58.6271L58.6871 85.07L58.6171 85.8L57.3471 85.75L56.3471 85.76L56.3271 87.06L57.2871 87.07L58.1571 87.04L58.2071 87.12L58.1471 87.86L57.2071 87.83L56.3171 87.84L56.3071 88.41L56.3271 89.23L57.2571 89.24L58.6071 89.2ZM65.5351 90H64.6851L64.5851 88.48L64.3551 86.44H64.2951L62.9951 89.47H62.2451L61.0451 86.44H60.9651L60.7451 88.39L60.6151 90H59.8051L60.3451 84.99H61.4651L61.6951 85.73L62.6351 88.2H62.7051L63.7051 85.72L63.9551 84.99H65.0451L65.5351 90ZM71.2198 87.4C71.9398 87.5533 72.2998 87.9467 72.2998 88.58C72.2998 89.5467 71.5231 90.03 69.9698 90.03C69.4964 90.03 69.0398 90.02 68.5998 90L68.6398 88.5L68.5998 84.99L70.3598 84.98C70.8798 84.98 71.2864 85.0867 71.5798 85.3C71.8731 85.5133 72.0198 85.82 72.0198 86.22C72.0198 86.4933 71.9498 86.7333 71.8098 86.94C71.6698 87.14 71.4731 87.2933 71.2198 87.4ZM71.0198 86.35C71.0198 86.1167 70.9431 85.95 70.7898 85.85C70.6364 85.75 70.3831 85.7 70.0298 85.7H69.5498L69.5298 87.09L70.3498 87.12C70.5764 87.0667 70.7431 86.98 70.8498 86.86C70.9631 86.74 71.0198 86.57 71.0198 86.35ZM70.1198 89.33C70.5064 89.33 70.7998 89.2633 70.9998 89.13C71.2064 88.9967 71.3098 88.8 71.3098 88.54C71.3098 88.3333 71.2398 88.1733 71.0998 88.06C70.9598 87.94 70.7464 87.8567 70.4598 87.81L69.5198 87.82L69.5098 88.41L69.5298 89.3C69.7431 89.32 69.9398 89.33 70.1198 89.33ZM75.5909 84.92C76.3243 84.92 76.8909 85.1367 77.2909 85.57C77.6976 85.9967 77.9009 86.6 77.9009 87.38C77.9009 88.2467 77.6843 88.9133 77.2509 89.38C76.8243 89.8467 76.2143 90.08 75.4209 90.08C74.6809 90.08 74.1109 89.86 73.7109 89.42C73.3109 88.98 73.1109 88.3567 73.1109 87.55C73.1109 86.71 73.3243 86.0633 73.7509 85.61C74.1843 85.15 74.7976 84.92 75.5909 84.92ZM75.5009 85.71C75.0209 85.71 74.6676 85.8467 74.4409 86.12C74.2209 86.3867 74.1109 86.8233 74.1109 87.43C74.1109 88.1033 74.2209 88.5833 74.4409 88.87C74.6609 89.1567 75.0109 89.3 75.4909 89.3C75.9776 89.3 76.3343 89.1667 76.5609 88.9C76.7876 88.6267 76.9009 88.1833 76.9009 87.57C76.9009 86.9033 76.7909 86.4267 76.5709 86.14C76.3509 85.8533 75.9943 85.71 75.5009 85.71ZM83.1271 88.41L83.1571 90H82.1871L82.2271 88.5L82.1971 85.73H80.1171L80.0771 88.41L80.1071 90H79.1371L79.1771 88.5L79.1371 84.97H83.1771L83.1271 88.41ZM86.7695 84.98C87.3095 84.98 87.7262 85.1133 88.0195 85.38C88.3195 85.64 88.4695 86.0133 88.4695 86.5C88.4695 87.0733 88.2795 87.5267 87.8995 87.86C87.5195 88.1867 87.0062 88.35 86.3595 88.35H85.7895V88.41L85.8295 90H84.8695L84.9095 88.5L84.8695 84.99L86.7695 84.98ZM86.5995 87.63C87.1729 87.51 87.4595 87.16 87.4595 86.58C87.4595 86.2933 87.3795 86.08 87.2195 85.94C87.0595 85.8 86.8129 85.7233 86.4795 85.71L85.8295 85.73L85.7995 87.61L86.5995 87.63ZM91.5773 84.92C92.3106 84.92 92.8773 85.1367 93.2773 85.57C93.6839 85.9967 93.8873 86.6 93.8873 87.38C93.8873 88.2467 93.6706 88.9133 93.2373 89.38C92.8106 89.8467 92.2006 90.08 91.4073 90.08C90.6673 90.08 90.0973 89.86 89.6973 89.42C89.2973 88.98 89.0973 88.3567 89.0973 87.55C89.0973 86.71 89.3106 86.0633 89.7373 85.61C90.1706 85.15 90.7839 84.92 91.5773 84.92ZM91.4873 85.71C91.0073 85.71 90.6539 85.8467 90.4273 86.12C90.2073 86.3867 90.0973 86.8233 90.0973 87.43C90.0973 88.1033 90.2073 88.5833 90.4273 88.87C90.6473 89.1567 90.9973 89.3 91.4773 89.3C91.9639 89.3 92.3206 89.1667 92.5473 88.9C92.7739 88.6267 92.8873 88.1833 92.8873 87.57C92.8873 86.9033 92.7773 86.4267 92.5573 86.14C92.3373 85.8533 91.9806 85.71 91.4873 85.71ZM97.183 84.93C97.7296 84.93 98.2063 85.0367 98.613 85.25L98.433 86.1L98.343 86.13C98.1763 86.0033 97.983 85.9033 97.763 85.83C97.5496 85.7567 97.3263 85.72 97.093 85.72C96.173 85.72 95.713 86.2933 95.713 87.44C95.713 88.04 95.833 88.4967 96.073 88.81C96.313 89.1167 96.663 89.27 97.123 89.27C97.3496 89.27 97.5796 89.2333 97.813 89.16C98.0463 89.0867 98.253 88.9867 98.433 88.86L98.533 88.91L98.453 89.76C98.0063 89.9667 97.5463 90.07 97.073 90.07C96.3063 90.07 95.7196 89.85 95.313 89.41C94.9063 88.97 94.703 88.3433 94.703 87.53C94.703 86.6967 94.9163 86.0567 95.343 85.61C95.7763 85.1567 96.3896 84.93 97.183 84.93Z" fill="white"/>
<path d="M275.706 97.1707L277.15 99.122L281 97.1707V94.2439L279.075 84L274.743 94.7317L275.706 97.1707Z" fill="#F5B349"/>
<path d="M191 102.049L193.406 104L195.813 103.024L196.775 101.073L197.257 97.1707L191.481 96.6829L191 102.049Z" fill="#F5B349"/>
<path d="M131.177 57.3171C132.48 59.4634 135.338 60 136.605 60H150.718C151.623 59.1057 153.649 56.6732 154.518 54.0976C155.603 50.878 154.518 48.1951 154.518 44.9756C154.518 42.4 153.07 40.3252 152.346 39.6098L145.833 38H139.863C138.777 38.1789 136.062 38.7512 133.893 39.6098C131.723 40.4683 130.455 45.6911 130.092 48.1951C129.911 50.3415 129.875 55.1707 131.177 57.3171Z" fill="#5BDAA2"/>
<path d="M181.794 90.1827L183.307 85.8459C184.752 82.7514 184.752 82.9546 185.234 81.9909C185.819 80.8209 203.906 85.4469 204.027 88.7371L189.995 103.564L186.695 106.454L181.794 109.674C181.119 109.997 179.554 110.688 178.7 110.864C177.846 111.04 175.198 108.27 173.981 106.863C173.334 105.523 171.738 102.463 170.535 100.943C169.331 99.4225 164.792 91.075 162.673 87.0913L156.946 72.7999L152.857 66.4593L148.792 65.639L142.593 65.2588L137.145 65.8286L130.836 64.9183L127.949 64.4082L127.512 62.288L127.063 57.4076L127.378 56.2375L127.584 54.5374L127.791 52.8372L127.463 51.2471L127.669 49.547L129.489 50.2771L129.804 49.107L131.624 49.8371L132.813 52.9074L133.578 56.6178L133.922 58.2886C134.034 58.8295 134.562 59.1776 135.103 59.0662L135.725 58.938L135.932 57.2379L135.495 55.1177L134.512 50.3473C134.162 48.6511 136.008 50.4073 136.975 51.4975L138.164 54.5678L138.727 57.2987C138.838 57.8396 139.367 58.1877 139.908 58.0763L141.064 57.8381L145.868 56.8482L152.808 55.4184C155.37 54.8904 157.725 55.8786 158.583 56.4387L161.155 58.1189L163.315 63.1994L165.038 66.1597L169.551 71.8603L171.383 75.3506C172.605 77.6775 175.691 82.7514 175.691 82.7514C175.691 82.7514 176.699 83.5787 177.524 84.8821L180.29 88.2825L181.369 90.8228L181.794 90.1827Z" fill="#FFEEEE"/>
<path d="M199.725 258.659L202.143 257H218.582L221 259.074L220.033 264.881C219.549 267.094 218.582 271.601 218.582 271.933C218.582 272.265 217.293 278.156 216.648 281.059L215.198 287.696V291.43L216.165 296.407V303.044L215.681 307.193L212.297 308.852H208.912L205.527 307.193L201.176 311.341L189.088 313C186.993 312.862 182.705 312.502 182.319 312.17C181.932 311.839 178.612 310.926 177 310.511V309.681L179.901 307.193L184.736 304.704L193.44 299.311L198.758 293.919L199.725 291.844L201.176 286.037L200.209 274.007L199.242 269.444V266.956L199.725 258.659Z" fill="#613636"/>
<path d="M266.439 261.706L268.404 260.059L276.263 258L288.544 259.235L289.526 267.471V270.353L290.509 281.059V286V297.118L290.018 301.235V304.118L291 309.882V313.176L290.018 316.059L288.053 316.882L287.561 317.706L283.14 320.176L278.228 321H266.439L264.474 319.765L263 318.118L265.456 315.235L269.386 312.353L272.825 308.235L274.789 302.471L273.807 292.176L272.825 285.176L269.877 275.294L267.421 269.118L266.439 261.706Z" fill="#613636"/>
<path d="M196 173.919L199.388 148.869L213.426 142L262.798 147.253L265.218 159.778L268.606 183.616L270.059 200.99L272.963 215.131L275.383 222.808L284.58 239.374L287 253.919V260.384L275.383 262H267.154L265.218 257.556L262.798 248.667L256.989 236.141L249.729 219.172L243.92 208.263L237.628 188.869L234.239 184.828L232.303 179.576L227.947 170.283L225.527 182L223.59 200.99L221.654 215.131V219.172V222.808L223.59 230.081V239.374L221.654 251.091L219.718 259.172L215.846 260.384L210.521 262L201.809 259.172V248.667L199.388 230.081L196 206.646V173.919Z" fill="#6EB6F5"/>
<path d="M289.926 82.6975L288 80.2843L280.296 81.7322L275 88.0065L276.444 91.8677L278.37 95.7289L281.259 100.073L284.63 103.451L288 109.243L290.889 113.104L292.815 116L297.148 114.552L302.444 111.174L307.741 106.83L312.074 101.521L313.519 97.1768L314.481 93.7983L315.444 92.3504L317.852 89.9372L318.815 88.9719L320.741 87.524L323.148 86.076L324.593 83.1801L326.037 80.7669L327.963 78.3537L330.852 75.9404L336.148 72.562L340 71.114L338.074 70.1487H336.63L333.259 71.114L330.852 72.0792L327.963 74.0099L327.481 72.0792V68.2181V64.3569L326.037 65.3222L324.593 67.7355L324.111 72.562L323.63 75.4578H323.148L321.704 74.9751L319.778 72.562L318.815 71.114L319.296 70.1487L320.259 67.7355L321.222 66.2875L322.185 64.3569C322.346 64.0352 322.57 63.1986 322.185 62.4264C321.8 61.6542 320.741 62.1046 320.259 62.4264L318.333 63.8743L315.926 67.7355L314.481 71.114L313.519 72.562L312.074 74.0099L310.148 76.9058L309.667 78.3537V80.7669V82.6975L309.185 85.1107L306.778 86.5587L303.889 87.524L301 88.9719L298.593 90.4198L297.148 89.9372L294.741 87.524L289.926 82.6975Z" fill="#FFEEEE"/>
<path d="M230.28 47.3284L229.32 43.5075L245.16 33V35.8657V41.597V44.4627L247.56 47.3284L249 48.7612L247.56 52.1045L241.8 59.2687L236.52 63.0896L230.28 65L226.92 63.0896L225 56.8806V52.1045L226.92 48.7612L230.28 47.3284Z" fill="#FFEEEE"/>
<path d="M204.286 57.3981L212 54L209.107 83.1262L204.286 88.9515L201.393 96.233L197.536 102.544L193.196 104L195.125 102.544V100.117L193.196 94.2913C192.714 92.5113 191.75 88.466 191.75 86.5243C191.75 84.5825 187.25 82.8026 185 82.1553L187.411 79.2427L191.75 72.932L197.536 68.0777L202.357 61.767L204.286 57.3981Z" fill="#FED89B"/>
<path d="M225.509 51.3349L226.478 48.445L216.792 51.3349L211.95 53.7431L206.138 64.3394L202.748 72.5275L203.233 82.6422V99.9817L202.748 109.615V118.284L200.327 130.326L197.421 140.44L195 145.257L198.874 149.592H209.528L220.667 152L234.711 149.592H251.176L262.799 148.147L264.252 143.33V139.477L258.44 123.583V109.615L262.799 99.0183L267.157 88.422V76.3807L265.704 61.9312L272 54.7064L264.252 51.3349L249.723 47.4817L248.27 47L247.786 47.4817L248.755 48.445L246.818 49.4083L243.912 51.3349L237.132 54.7064H231.805L226.478 53.7431L225.509 51.3349Z" fill="#F5B349"/>
<path d="M275.211 57.9142L271.895 55L265.737 57.9142L261 71.5138V82.1992L265.737 87.5419L269.526 89.9704L271.895 93.3703C273 95.3131 277.599 100.233 277.105 98.7131C276.906 98.1 276.707 97.573 276.472 97.0596C275.803 95.5942 275.558 93.9374 276.143 92.4365L277.105 89.9704C277.737 88.6752 279.663 85.5991 282.316 83.6563C284.968 81.7135 287.211 80.5802 288 80.2564L286.105 77.3422L282.316 71.5138L277.105 63.7426L275.211 57.9142Z" fill="#FED89B"/>
<path d="M242.125 38.8L244 34L229 43.6L230.875 46H233.688L238.375 43.6L242.125 38.8Z" fill="#EAC3C3"/>
<path d="M217.25 26L219 14.8966L217.25 12H215.062L212.875 15.8621L212 18.2759L213.75 23.5862L217.25 26Z" fill="#613636"/>
<path d="M249 25.5C246.419 36.7895 236.613 42.9474 227.839 45C220.613 43.4605 219.065 37.3026 217 25.5C217 14.447 218.432 6 227.839 6C237.245 6 249 14.447 249 25.5Z" fill="#FFEEEE"/>
<path d="M218.534 15.7123H223.096L225.63 11.6575H230.699H235.767L239.315 15.7123L241.342 20.274L242.863 22.3014L244.89 23.8219V30.9178V32.9452L245.904 33.9589L246.918 37L248.945 35.4795L250.466 32.9452L251.479 30.9178V27.8767L253 25.8493V22.3014L251.479 18.2466V13.6849V11.6575L250.466 9.63014L248.945 5.57534L246.918 3.54795H242.863L241.342 1.52055L239.315 0H235.767L230.699 1.52055L227.658 2.53425H223.096L219.548 5.57534L216 9.63014V13.6849L218.534 15.7123Z" fill="#613636"/>
<path d="M224.541 46.2985L226.703 48.4478L228.324 50.0597L227.784 53.2836H233.189L241.297 51.1343L245.622 48.4478L251.568 44.1493L258.595 42L261.838 44.6866L266.703 43.6119L269.946 46.2985L271.027 46.8358H274.27L278.595 49.5224L282.378 54.8955L284 61.8806V64.0299L280.08 68.5263L277.672 65.1045L277.19 64.2632L275.264 58.5789L271.027 56.2105L261.838 62.9552L252.108 68.8657L248.324 72.6269L243.459 74.7761L233.189 78L225.081 76.9254L215.892 74.7761L209.946 72.6269L204.541 65.1045L204 56.5075L207.243 47.9104H214.811L217.514 46.8358L221.297 49.5224L224.541 46.2985Z" fill="#F75C55"/>
</svg>
