<svg width="777" height="317" viewBox="0 0 777 317" fill="none" xmlns="http://www.w3.org/2000/svg">
<g clip-path="url(#clip0_210_14)">
<path d="M207.5 307.5C207.5 306.7 205.833 302.5 205 300.5H184L180.5 303L177.5 304.5H170.5C169.5 304.5 165.5 305.5 165 305.5C164.6 305.5 162.833 307.5 162 308.5L160.5 314H203L207.5 312.5V307.5Z" fill="#613636"/>
<path d="M167.645 295.313C167.967 294.581 168.13 290.065 168.172 287.899L148.945 279.452L144.735 280.333L141.385 280.5L134.977 277.684C134.061 277.282 129.997 276.589 129.539 276.388C129.173 276.227 126.751 277.347 125.586 277.928L122 282.36L160.911 299.454L165.634 299.891L167.645 295.313Z" fill="#613636"/>
<path d="M245.204 199.293L251.717 197.377C252.556 197.131 253.447 197.119 254.293 197.345L256.516 197.938C260.218 198.925 260.545 204.05 257 205.5C237 217.167 196.5 241.1 194.5 243.5C192.771 245.575 189.67 251.04 187.785 254.529C187.262 255.498 186.558 256.357 185.69 257.035C183.965 258.381 181.812 260 181.5 260C181.137 260 179.379 264.379 178.308 267.185C178.102 267.726 177.959 268.289 177.877 268.862L176.102 281.286C176.034 281.761 175.924 282.229 175.772 282.684L174.868 285.396C174.305 287.084 173.21 288.562 171.651 289.419C170.162 290.238 168.488 291 167.5 291C165.9 291 162.833 290 161.5 289.5C158.333 288.5 151.7 286.3 150.5 285.5C149.998 285.166 149.421 284.645 148.87 284.091C147.589 282.803 146.732 281.052 146.292 279.29C145.893 277.691 145.702 275.798 147 274.5C147.524 273.976 147.774 273.864 148.108 273.804C149.037 273.637 149.877 273.198 150.614 272.609L152 271.5C153.167 270.5 155.7 268.4 156.5 268C157.5 267.5 161 263 161.5 260C162 257 166 251.5 167.5 250C168.546 248.954 171.439 244.543 173.268 241.661C173.755 240.894 174.101 240.047 174.298 239.16L175.584 233.371C175.858 232.141 176.414 230.992 177.229 230.031C179.82 226.975 183.802 222.519 185.5 221.5C187.373 220.376 191.732 215.363 194.057 212.541C194.353 212.182 194.677 211.847 195.028 211.542L202 205.5L203.157 204.343C204.657 202.843 206.692 202 208.814 202H217L230 201L243.77 199.576C244.256 199.525 244.736 199.431 245.204 199.293Z" fill="#3683C7"/>
<rect x="229" y="305" width="77" height="6" fill="#939393"/>
<rect x="3.45654" y="305" width="170.238" height="7" fill="#939393"/>
<rect x="76.9094" y="196" width="6.91321" height="112" fill="#939393"/>
<rect x="101.106" y="196" width="6.91321" height="112" fill="#939393"/>
<rect x="58.7622" y="308" width="170.238" height="7" fill="#C4C4C4"/>
<rect x="125.302" y="196" width="6.91321" height="112" fill="#C4C4C4"/>
<rect x="149.498" y="196" width="6.91321" height="112" fill="#C4C4C4"/>
<path d="M216 146.5L222.5 136.5L237 144L227 165.5L220.5 173L205 180L184 187.5H171L165 183L176.5 176.5L197 164.5L210.5 158L216 146.5Z" fill="#FFEEEE"/>
<rect y="186" width="229" height="10" fill="#997B7B"/>
<path d="M85 177L177 181V186H85V177Z" fill="#6B6B6B"/>
<path d="M19 94H141L155 170H33L19 94Z" fill="#C4C4C4"/>
<rect x="75" y="132" width="22" height="54" fill="#B5B5B5"/>
<rect x="47" y="181" width="80" height="5" fill="#B5B5B5"/>
<path d="M255 105.5V101.5L260 99L260.5 89L263.5 83.5H270.5L280.5 86L281.5 98L285.5 98.5L286 102.5L282 108L272.5 114L262.5 112.5L255 105.5Z" fill="#FFEEEE"/>
<path d="M262.5 94L260.5 91L281 94L279.5 96.5L277.5 99L274 100L270.5 99.5C269 99 265.9 97.9 265.5 97.5C265.1 97.1 263.333 95 262.5 94Z" fill="#EAC3C3"/>
<rect x="239" y="308" width="77" height="6" fill="#C4C4C4"/>
<rect x="270" y="242" width="7" height="69" fill="#C4C4C4"/>
<rect x="257" y="240" width="7" height="66" fill="#939393"/>
<rect x="309" y="173" width="7" height="66" fill="#C4C4C4"/>
<rect x="294" y="170" width="7" height="66" fill="#939393"/>
<path d="M291 154H319V186H291V154Z" fill="#997B7B"/>
<path d="M277.105 201.836L253.969 197.586C253.665 197.53 253.35 197.575 253.073 197.713C252.709 197.896 252.283 197.913 251.905 197.762L251.053 197.421C250.369 197.148 249.789 196.663 249.399 196.038L248.412 194.459C247.816 193.506 247.5 192.404 247.5 191.279V181.5V167L247.017 154.45C247.006 154.15 246.972 153.852 246.916 153.558L245 143.5L244.057 134.074C244.019 133.692 243.947 133.313 243.828 132.948C242.943 130.235 242.5 130.73 242.5 129.601C242.5 128.641 242.607 126.019 241.797 123.728C241.402 122.611 241 121.469 241 120.284V118.571C241 118.258 240.975 117.945 240.927 117.636L240.09 112.337C239.73 110.054 240.713 107.767 242.617 106.457L246.485 103.798C247.155 103.338 247.911 103.018 248.708 102.859L251.106 102.379C253.462 101.908 255.87 102.905 257.203 104.905C257.727 105.691 258.431 106.34 259.257 106.799L262.013 108.33C262.337 108.51 262.677 108.66 263.029 108.777L264 109.101L267.836 110.379C269.23 110.844 270.742 110.77 272.122 110.266C273.365 109.811 274.826 109.335 276 109.101C278.5 108.601 278 106.101 281.5 104.101C282.004 103.813 282.451 103.488 282.846 103.142C285.127 101.144 287.821 98.7243 290.85 98.8855C292.238 98.9594 293.554 99.5248 294.564 100.48L299.408 105.067C300.125 105.746 300.663 106.591 300.975 107.527L304.161 117.083C304.385 117.756 304.489 118.465 304.464 119.175C304.303 123.691 304.129 126.386 304.5 127.5C304.9 128.7 303.333 139.333 302.5 144.5L298.747 157.166C298.583 157.719 298.5 158.293 298.5 158.87V168.16C298.5 168.717 298.578 169.272 298.731 169.808L300.269 175.192C300.422 175.728 300.5 176.283 300.5 176.84V189.443C300.5 190.142 300.378 190.836 300.139 191.493L298.783 195.221C298.597 195.734 298.3 196.2 297.914 196.586L297.444 197.056C296.854 197.646 296.009 197.902 295.191 197.738C294.439 197.588 293.66 197.791 293.078 198.29L291.844 199.348C290.968 200.099 289.888 200.573 288.743 200.711L278.904 201.892C278.305 201.963 277.698 201.945 277.105 201.836Z" fill="#F5B349"/>
<path d="M239.595 108.434L247.323 103.121C247.44 103.041 247.572 102.987 247.711 102.962L250.556 102.444C251.442 102.283 252.073 103.284 251.546 104.014L246.6 110.861C246.534 110.953 246.484 111.053 246.452 111.162C245.605 114.066 244 120.145 244 122.5C244 124.875 243.51 128.914 243.985 133.843C243.995 133.947 243.989 134.052 243.967 134.153L242.562 140.711C242.521 140.9 242.427 141.073 242.291 141.209L236.601 146.899C236.254 147.246 235.708 147.29 235.31 147.004L220.692 136.497C220.293 136.211 220.161 135.677 220.381 135.238L222.5 131L229.45 119.582C229.483 119.527 229.522 119.476 229.564 119.429L239.422 108.586C239.474 108.529 239.532 108.478 239.595 108.434Z" fill="#F3D3A0"/>
<path d="M329.542 142.37L329.428 142.421C327.91 143.096 326.156 142.972 324.747 142.092L321.472 140.045C319.944 139.09 319.049 137.388 319.125 135.588C319.294 131.576 319.5 126.444 319.5 125.5C319.5 124.503 321.801 121.826 323.536 119.993C324.159 119.334 324.964 118.884 325.844 118.664L332.036 117.116C332.339 117.04 332.657 117.052 332.954 117.151C333.587 117.362 334.028 117.934 334.079 118.599C334.28 121.255 334.652 125.152 335 125.5C335.381 125.881 334.581 131.142 334.072 134.086C334.024 134.363 333.953 134.633 333.858 134.897L332.22 139.483C331.76 140.771 330.793 141.814 329.542 142.37Z" fill="#F5B349"/>
<path d="M343.113 122.393L334.857 118.399C333.635 117.807 332.295 117.5 330.937 117.5H326.488C323.385 117.5 320.501 119.099 318.856 121.73L318.5 122.3C317.221 124.347 316.817 126.822 317.381 129.17L317.976 131.65C318.885 135.437 322.127 138.21 326.01 138.521L332 139L346.89 141.707C347.955 141.901 349.045 141.901 350.11 141.707L353.08 141.167C353.692 141.056 354.29 140.882 354.866 140.647L365.961 136.127C366.978 135.713 367.911 135.115 368.714 134.365L383 121L390 112.5C391.833 110.333 395.6 106 396 106C396.272 106 397.331 103.84 398.295 101.724C399.035 100.102 398.615 98.1955 397.296 96.9963C395.51 95.3729 392.725 95.5938 391.217 97.4782L390.439 98.4514C390.148 98.8156 389.81 99.1401 389.434 99.4167L381.544 105.231C380.852 105.741 380.09 106.149 379.281 106.443L375.813 107.704C375.272 107.901 374.752 108.149 374.258 108.445L367.5 112.5L358.139 116.958C357.383 117.317 356.682 117.781 356.054 118.335L352.988 121.04C350.269 123.439 346.376 123.972 343.113 122.393Z" fill="#FFEEEE"/>
<path d="M289.5 108.5C290.7 106.5 292.5 101.167 293 99L309.5 105L320 110L333 117L327 119.5L325.071 121.779C322.777 124.491 321.599 127.974 321.776 131.522L322 136L327 143L321 142.5L307.5 138L296.5 136L289.5 128.5C289 122.667 288.3 110.5 289.5 108.5Z" fill="#F3D3A0"/>
<path d="M292.876 222.261C293.91 219.603 294.195 210.626 294.214 206.021C294.215 205.701 294.292 205.387 294.44 205.102L295.597 202.87C295.854 202.374 295.892 201.793 295.701 201.267L294.693 198.49C294.406 197.699 293.655 197.172 292.813 197.172H291.092C289.974 197.172 288.602 198.176 287.702 199.006C287.287 199.388 286.755 199.632 286.191 199.632H275.027C273.932 199.632 267.258 198.219 266.214 197.887C264.037 197.194 262.04 196.732 261.641 197.172C261.018 197.859 257.182 197.597 254.633 197.302C254.016 197.23 253.412 197.534 253.115 198.08C252.673 198.892 253.067 199.906 253.941 200.208L255.84 200.862L250.039 202.092L225.943 204.059L206.755 205.535C204.375 205.535 199.258 205.83 197.83 207.011C196.572 208.052 193.834 208.404 192.184 208.473C191.792 208.49 191.409 208.602 191.081 208.819L187.121 211.438C185.782 212.586 183.105 215.669 183.105 218.817V233.575V241.446C183.105 242.922 181.766 246.365 181.766 249.809C181.766 252.45 182.587 256.508 183.048 258.428C183.085 258.585 183.105 258.745 183.104 258.907C183.088 261.648 182.805 267.529 181.766 272.492C180.748 277.358 181.263 275.639 180.164 277.574C180.042 277.789 179.965 278.029 179.933 278.274C179.48 281.767 178.744 287.474 179.089 288.234C179.434 288.995 179.251 292.881 179.104 294.917C179.094 295.053 179.096 295.189 179.121 295.323C179.354 296.56 180.405 299.044 183.105 300.532C186.675 302.5 190.691 302.008 194.261 302.5C197.116 302.894 200.805 301.352 202.293 300.532C202.888 300.204 204.345 299.352 205.416 298.565C206.755 297.581 206.755 295.613 206.755 294.137V288.234V282.331C206.755 281.259 206.019 279.023 205.549 277.762C205.463 277.53 205.416 277.286 205.416 277.038V264.13C205.416 260.981 206.309 247.841 206.755 241.446V237.634C206.755 237.233 206.634 236.841 206.409 236.509L205.416 235.051L208.54 233.575H285.921C286.641 233.575 287.295 233.19 287.645 232.561C289.272 229.642 291.927 224.702 292.876 222.261Z" fill="#6EB6F5"/>
<rect x="220" y="233" width="102" height="9" fill="#997B7B"/>
<path d="M288 73.5C288 86.4787 283.165 97 273.5 97C263.835 97 253 86.4787 253 73.5C253 60.5213 260.835 50 270.5 50C280.165 50 288 60.5213 288 73.5Z" fill="#FFEEEE"/>
<path d="M275.5 61.5C275.461 61.4807 275.423 61.4605 275.386 61.4393C273.058 60.1221 270.637 57.8592 268.123 58.7734C267.71 58.9235 267.323 59.1374 266.976 59.4072L263.717 61.9425C263.24 62.3132 262.802 62.731 262.409 63.1895L261.464 64.2917C260.503 65.4133 259.832 66.7543 259.512 68.1964L259.214 69.5356C259.072 70.1766 259 70.8313 259 71.4879V77V81.2639C259 82.0768 258.811 82.8785 258.447 83.6056L257.341 85.8181C257.132 86.236 256.705 86.5 256.238 86.5C256.081 86.5 255.925 86.4701 255.779 86.4118L254.527 85.9108C253.846 85.6384 253.209 85.2671 252.636 84.8089C251.566 83.9529 250.747 82.8206 250.303 81.5242C249.674 79.688 249 77.5688 249 77V73.5526C249 72.5268 249.196 71.5107 249.577 70.5582C249.858 69.8562 250.038 69.1182 250.113 68.3659L250.4 65.4985C250.467 64.8349 250.606 64.1807 250.817 63.548L251.038 62.8856C251.344 61.9679 251.5 61.0068 251.5 60.0395V59.8912C251.5 59.2985 251.555 58.7068 251.69 58.1296C251.901 57.2273 252.209 56.0817 252.5 55.5L252.847 54.8063C253.279 53.941 253.872 53.1676 254.444 52.3874C254.653 52.1028 254.852 51.7968 255 51.5C255.239 51.0215 256.445 50.6384 257.696 50.3721C259.135 50.0657 260.444 49.2594 261.201 47.9977C261.4 47.6671 261.638 47.3622 261.91 47.0896L262.647 46.3532C263.857 45.1429 265.385 44.291 267.067 43.9751C268.411 43.7227 269.806 43.5 270.5 43.5C271.313 43.5 272.629 43.8057 273.706 44.1065C274.57 44.3481 275.371 44.7651 276.101 45.2866L277.251 46.1078C278.063 46.6881 279.037 47 280.035 47C281.582 47 283.034 47.7471 283.933 49.0058L284.186 49.3607C284.721 50.1089 285.43 50.715 286.252 51.1262L286.55 51.2749C288.125 52.0624 289.344 53.4163 289.962 55.065L290.233 55.7873C290.409 56.2586 290.5 56.7578 290.5 57.2612C290.5 58.3745 290.948 59.4366 291.703 60.2552C292.461 61.0777 293.249 61.9985 293.5 62.5C294 63.5 294 64 294 64.5C294 65 293 68.5 293 69C293 69.1949 292.763 69.5559 292.461 69.9327C291.887 70.6514 290.983 71 290.063 71H289.846C289.617 71 289.389 70.9631 289.172 70.8907C288.447 70.6491 287.908 70.0376 287.758 69.2884L287.5 68L287 66L286.974 65.923C286.691 65.0732 285.896 64.5 285 64.5H281.5C280 64.5 277.5 62.5 275.5 61.5Z" fill="#613636"/>
<path d="M314.243 10C314.243 4.47715 318.72 0 324.243 0H507C512.523 0 517 4.47715 517 10V58.8091C517 64.3319 512.523 68.8091 507 68.8091H373.944C373.115 68.8091 372.289 68.9123 371.485 69.1162L301 87L312.328 71.4402C313.573 69.7303 314.243 67.6697 314.243 65.5546V10Z" fill="#6EB6F5"/>
<path d="M327.43 15.51C328.083 15.51 328.66 15.6567 329.16 15.95L328.97 16.86L328.87 16.89C328.423 16.5433 327.93 16.37 327.39 16.37C326.803 16.37 326.353 16.57 326.04 16.97C325.733 17.3633 325.58 17.9533 325.58 18.74C325.58 19.5467 325.737 20.16 326.05 20.58C326.363 21 326.81 21.21 327.39 21.21C327.67 21.21 327.947 21.1633 328.22 21.07C328.5 20.97 328.757 20.8333 328.99 20.66L329.09 20.72L329.01 21.66C328.437 21.94 327.87 22.08 327.31 22.08C326.41 22.08 325.717 21.8 325.23 21.24C324.743 20.68 324.5 19.8833 324.5 18.85C324.5 17.7833 324.753 16.96 325.26 16.38C325.773 15.8 326.497 15.51 327.43 15.51ZM333.876 20.41L333.906 22H332.926L332.976 20.5L332.936 17.72H331.816L331.776 18.07C331.67 19.0967 331.546 19.89 331.406 20.45C331.273 21.01 331.103 21.4167 330.896 21.67C330.696 21.9167 330.43 22.06 330.096 22.1L329.826 22.12L329.656 21.32C329.923 21.2467 330.133 21.1033 330.286 20.89C330.44 20.67 330.566 20.33 330.666 19.87C330.766 19.41 330.856 18.75 330.936 17.89L331.026 16.99L331.016 16.97H333.926L333.876 20.41ZM337.372 20.6L337.412 22H336.452L336.502 20.6L336.492 20.32L334.792 16.99H335.822L335.932 17.31L336.932 19.3H337.002L338.102 17.35L338.242 16.99H339.252L337.382 20.3L337.372 20.6ZM346.404 20.41L346.434 22H340.154L340.204 20.5L340.154 16.97H341.144L341.094 20.41L341.114 21.2H342.834L342.854 20.5L342.804 16.97H343.804L343.754 20.41L343.764 21.2H345.484L345.494 20.5L345.464 16.97H346.444L346.404 20.41ZM352.11 22H351.14L351.01 21.38L350.83 20.83L349.71 20.82L348.71 20.83L348.52 21.33L348.38 22H347.43L349.3 16.99H350.42L352.11 22ZM350.58 20.08L349.87 17.89H349.8L348.99 20.08L349.78 20.09L350.58 20.08ZM356.812 15.35C356.692 15.6367 356.495 15.86 356.222 16.02C355.955 16.18 355.642 16.26 355.282 16.26C354.922 16.26 354.612 16.1833 354.352 16.03C354.098 15.87 353.905 15.6433 353.772 15.35L354.292 14.99H354.412C354.478 15.2167 354.582 15.3833 354.722 15.49C354.868 15.59 355.062 15.64 355.302 15.64C355.542 15.64 355.728 15.5933 355.862 15.5C355.995 15.4 356.102 15.23 356.182 14.99H356.292L356.812 15.35ZM353.152 20.5L353.102 17L354.092 16.95L354.032 20.5H354.102L356.452 16.97H357.502L357.452 20.41L357.482 22H356.502L356.552 20.5V18.47H356.472L354.122 22H353.102L353.152 20.5ZM359.383 20.94C359.67 21.1467 359.813 21.3967 359.813 21.69C359.813 22.1833 359.46 22.6833 358.753 23.19L358.423 22.89L358.413 22.81C358.78 22.51 358.963 22.2033 358.963 21.89C358.963 21.6833 358.86 21.5067 358.653 21.36V21.27C358.9 21.11 359.143 21 359.383 20.94ZM364.4 15.51C365.326 15.51 366.03 15.78 366.51 16.32C366.996 16.86 367.24 17.6467 367.24 18.68C367.24 19.76 366.973 20.5967 366.44 21.19C365.913 21.7833 365.166 22.08 364.2 22.08C363.533 22.08 362.933 21.9333 362.4 21.64L362.6 20.73L362.7 20.7C363.166 21.0467 363.69 21.22 364.27 21.22C364.836 21.22 365.28 21.0467 365.6 20.7C365.926 20.3467 366.113 19.8333 366.16 19.16L364.97 19.14L363.3 19.17L363.22 19.09L363.3 18.3L365.04 18.33L366.15 18.31C366.03 17.03 365.403 16.39 364.27 16.39C363.676 16.39 363.113 16.57 362.58 16.93L362.47 16.87L362.56 15.93C363.146 15.65 363.76 15.51 364.4 15.51ZM371.904 20.41L371.934 22H370.954L371.004 20.5L370.964 17.72H369.844L369.804 18.07C369.697 19.0967 369.574 19.89 369.434 20.45C369.3 21.01 369.13 21.4167 368.924 21.67C368.724 21.9167 368.457 22.06 368.124 22.1L367.854 22.12L367.684 21.32C367.95 21.2467 368.16 21.1033 368.314 20.89C368.467 20.67 368.594 20.33 368.694 19.87C368.794 19.41 368.884 18.75 368.964 17.89L369.054 16.99L369.044 16.97H371.954L371.904 20.41ZM375.759 18.93C376.286 18.93 376.686 19.0467 376.959 19.28C377.239 19.5133 377.379 19.85 377.379 20.29C377.379 20.8233 377.182 21.2433 376.789 21.55C376.402 21.85 375.859 22 375.159 22H373.679L373.729 20.5L373.679 16.97H374.669L374.639 18.93H375.759ZM375.449 21.31C375.749 21.27 375.976 21.1733 376.129 21.02C376.282 20.8667 376.359 20.6667 376.359 20.42C376.359 20.1667 376.279 19.97 376.119 19.83C375.959 19.6833 375.729 19.6133 375.429 19.62L374.629 19.64L374.619 20.41L374.639 21.28L375.449 21.31ZM379.07 20.94C379.357 21.1467 379.5 21.3967 379.5 21.69C379.5 22.1833 379.147 22.6833 378.44 23.19L378.11 22.89L378.1 22.81C378.467 22.51 378.65 22.2033 378.65 21.89C378.65 21.6833 378.547 21.5067 378.34 21.36V21.27C378.587 21.11 378.83 21 379.07 20.94ZM386.407 22H385.437L385.307 21.38L385.127 20.83L384.007 20.82L383.007 20.83L382.817 21.33L382.677 22H381.727L383.597 16.99H384.717L386.407 22ZM384.877 20.08L384.167 17.89H384.097L383.287 20.08L384.077 20.09L384.877 20.08ZM390.98 19.34C391.613 20.16 392.323 20.9733 393.11 21.78L393.09 21.92C392.777 22 392.463 22.0567 392.15 22.09L392.01 22.03C391.177 21.03 390.49 20.1533 389.95 19.4V19.33L391.56 17.46L391.88 16.99L392.98 16.98L390.98 19.34ZM389.92 20.41L389.96 22H389L389.04 20.5L389 16.99H389.97L389.92 20.41ZM398.038 22H397.068L396.938 21.38L396.758 20.83L395.638 20.82L394.638 20.83L394.448 21.33L394.308 22H393.358L395.228 16.99H396.348L398.038 22ZM396.508 20.08L395.798 17.89H395.728L394.918 20.08L395.708 20.09L396.508 20.08ZM401.009 19.34C401.643 20.16 402.353 20.9733 403.139 21.78L403.119 21.92C402.806 22 402.493 22.0567 402.179 22.09L402.039 22.03C401.206 21.03 400.519 20.1533 399.979 19.4V19.33L401.589 17.46L401.909 16.99L403.009 16.98L401.009 19.34ZM399.949 20.41L399.989 22H399.029L399.069 20.5L399.029 16.99H399.999L399.949 20.41ZM410.029 20.41L410.069 22H409.109L409.139 20.5L409.129 19.9L407.839 19.89L406.659 19.91L406.649 20.41L406.689 22H405.729L405.769 20.5L405.729 16.99H406.699L406.669 19.07L407.909 19.09L409.129 19.08L409.109 16.99H410.079L410.029 20.41ZM415.704 22H414.734L414.604 21.38L414.424 20.83L413.304 20.82L412.304 20.83L412.114 21.33L411.974 22H411.024L412.894 16.99H414.014L415.704 22ZM414.174 20.08L413.464 17.89H413.394L412.584 20.08L413.374 20.09L414.174 20.08ZM422.247 22H421.277L421.147 21.38L420.967 20.83L419.847 20.82L418.847 20.83L418.657 21.33L418.517 22H417.567L419.437 16.99H420.557L422.247 22ZM420.717 20.08L420.007 17.89H419.937L419.127 20.08L419.917 20.09L420.717 20.08ZM427.548 20.41L427.588 22H426.628L426.658 20.5L426.648 19.9L425.358 19.89L424.178 19.91L424.168 20.41L424.208 22H423.248L423.288 20.5L423.248 16.99H424.218L424.188 19.07L425.428 19.09L426.648 19.08L426.628 16.99H427.598L427.548 20.41ZM432.244 17.05L432.164 17.77L431.024 17.75H430.274L430.234 20.41L430.274 22H429.284L429.334 20.5L429.284 16.97H432.174L432.244 17.05ZM436.571 20.41L436.601 22H435.621L435.671 20.5L435.631 17.72H434.511L434.471 18.07C434.365 19.0967 434.241 19.89 434.101 20.45C433.968 21.01 433.798 21.4167 433.591 21.67C433.391 21.9167 433.125 22.06 432.791 22.1L432.521 22.12L432.351 21.32C432.618 21.2467 432.828 21.1033 432.981 20.89C433.135 20.67 433.261 20.33 433.361 19.87C433.461 19.41 433.551 18.75 433.631 17.89L433.721 16.99L433.711 16.97H436.621L436.571 20.41ZM438.347 20.5L438.297 17L439.287 16.95L439.227 20.5H439.297L441.647 16.97H442.697L442.647 20.41L442.677 22H441.697L441.747 20.5V18.47H441.667L439.317 22H438.297L438.347 20.5ZM448.091 15.35C447.971 15.6367 447.774 15.86 447.501 16.02C447.234 16.18 446.921 16.26 446.561 16.26C446.201 16.26 445.891 16.1833 445.631 16.03C445.378 15.87 445.184 15.6433 445.051 15.35L445.571 14.99H445.691C445.758 15.2167 445.861 15.3833 446.001 15.49C446.148 15.59 446.341 15.64 446.581 15.64C446.821 15.64 447.008 15.5933 447.141 15.5C447.274 15.4 447.381 15.23 447.461 14.99H447.571L448.091 15.35ZM444.431 20.5L444.381 17L445.371 16.95L445.311 20.5H445.381L447.731 16.97H448.781L448.731 20.41L448.761 22H447.781L447.831 20.5V18.47H447.751L445.401 22H444.381L444.431 20.5ZM452.378 16.93C452.925 16.93 453.402 17.0367 453.808 17.25L453.628 18.1L453.538 18.13C453.372 18.0033 453.178 17.9033 452.958 17.83C452.745 17.7567 452.522 17.72 452.288 17.72C451.368 17.72 450.908 18.2933 450.908 19.44C450.908 20.04 451.028 20.4967 451.268 20.81C451.508 21.1167 451.858 21.27 452.318 21.27C452.545 21.27 452.775 21.2333 453.008 21.16C453.242 21.0867 453.448 20.9867 453.628 20.86L453.728 20.91L453.648 21.76C453.202 21.9667 452.742 22.07 452.268 22.07C451.502 22.07 450.915 21.85 450.508 21.41C450.102 20.97 449.898 20.3433 449.898 19.53C449.898 18.6967 450.112 18.0567 450.538 17.61C450.972 17.1567 451.585 16.93 452.378 16.93ZM457.015 19.34C457.649 20.16 458.359 20.9733 459.145 21.78L459.125 21.92C458.812 22 458.499 22.0567 458.185 22.09L458.045 22.03C457.212 21.03 456.525 20.1533 455.985 19.4V19.33L457.595 17.46L457.915 16.99L459.015 16.98L457.015 19.34ZM455.955 20.41L455.995 22H455.035L455.075 20.5L455.035 16.99H456.005L455.955 20.41ZM461.939 16.92C462.672 16.92 463.239 17.1367 463.639 17.57C464.045 17.9967 464.249 18.6 464.249 19.38C464.249 20.2467 464.032 20.9133 463.599 21.38C463.172 21.8467 462.562 22.08 461.769 22.08C461.029 22.08 460.459 21.86 460.059 21.42C459.659 20.98 459.459 20.3567 459.459 19.55C459.459 18.71 459.672 18.0633 460.099 17.61C460.532 17.15 461.145 16.92 461.939 16.92ZM461.849 17.71C461.369 17.71 461.015 17.8467 460.789 18.12C460.569 18.3867 460.459 18.8233 460.459 19.43C460.459 20.1033 460.569 20.5833 460.789 20.87C461.009 21.1567 461.359 21.3 461.839 21.3C462.325 21.3 462.682 21.1667 462.909 20.9C463.135 20.6267 463.249 20.1833 463.249 19.57C463.249 18.9033 463.139 18.4267 462.919 18.14C462.699 17.8533 462.342 17.71 461.849 17.71ZM470.984 22H470.134L470.034 20.48L469.804 18.44H469.744L468.444 21.47H467.694L466.494 18.44H466.414L466.194 20.39L466.064 22H465.254L465.794 16.99H466.914L467.144 17.73L468.084 20.2H468.154L469.154 17.72L469.404 16.99H470.494L470.984 22ZM476.209 19C476.756 19 477.172 19.1167 477.459 19.35C477.746 19.5767 477.889 19.9067 477.889 20.34C477.889 20.8667 477.689 21.2767 477.289 21.57C476.889 21.8567 476.326 22 475.599 22H474.099L474.149 20.5L474.099 16.97H477.629L477.669 17.05L477.619 17.77L476.289 17.75H475.079L475.059 19H476.209ZM475.909 21.32C476.216 21.28 476.449 21.1867 476.609 21.04C476.776 20.8933 476.859 20.7 476.859 20.46C476.859 20.2067 476.776 20.0133 476.609 19.88C476.442 19.74 476.202 19.6733 475.889 19.68L475.049 19.69L475.039 20.41L475.059 21.28L475.909 21.32ZM480.975 20.6L481.015 22H480.055L480.105 20.6L480.095 20.32L478.395 16.99H479.425L479.535 17.31L480.535 19.3H480.605L481.705 17.35L481.845 16.99H482.855L480.985 20.3L480.975 20.6ZM487.737 21.21V23.27L487.027 23.33L486.887 22H483.407L483.267 23.27L482.547 23.33V21.21H482.987C483.22 21.0967 483.404 20.9267 483.537 20.7C483.67 20.4667 483.78 20.1367 483.867 19.71C483.954 19.2767 484.034 18.6733 484.107 17.9L484.207 17.01L484.197 16.99H487.047L487.007 20.41L487.027 21.21H487.737ZM486.117 20.5L486.087 17.71H484.977L484.937 18.07C484.844 18.9967 484.73 19.6967 484.597 20.17C484.464 20.6367 484.274 20.9833 484.027 21.21H486.097L486.117 20.5ZM492.191 21.2L492.261 21.27L492.181 22H488.971L489.011 20.5L488.971 16.99H492.211L492.271 17.07L492.201 17.8L490.931 17.75L489.931 17.76L489.911 19.06L490.871 19.07L491.741 19.04L491.791 19.12L491.731 19.86L490.791 19.83L489.901 19.84L489.891 20.41L489.911 21.23L490.841 21.24L492.191 21.2ZM496.699 17.07L496.639 17.84L495.669 17.77H495.249L495.229 20.41L495.259 22H494.299L494.339 20.5L494.319 17.77H493.909L492.919 17.84L492.849 17.76L492.919 16.99H496.649L496.699 17.07ZM326.88 32.92C327.613 32.92 328.18 33.1367 328.58 33.57C328.987 33.9967 329.19 34.6 329.19 35.38C329.19 36.2467 328.973 36.9133 328.54 37.38C328.113 37.8467 327.503 38.08 326.71 38.08C325.97 38.08 325.4 37.86 325 37.42C324.6 36.98 324.4 36.3567 324.4 35.55C324.4 34.71 324.613 34.0633 325.04 33.61C325.473 33.15 326.087 32.92 326.88 32.92ZM326.79 33.71C326.31 33.71 325.957 33.8467 325.73 34.12C325.51 34.3867 325.4 34.8233 325.4 35.43C325.4 36.1033 325.51 36.5833 325.73 36.87C325.95 37.1567 326.3 37.3 326.78 37.3C327.267 37.3 327.623 37.1667 327.85 36.9C328.077 36.6267 328.19 36.1833 328.19 35.57C328.19 34.9033 328.08 34.4267 327.86 34.14C327.64 33.8533 327.283 33.71 326.79 33.71ZM332.326 32.98C332.866 32.98 333.283 33.1133 333.576 33.38C333.876 33.64 334.026 34.0133 334.026 34.5C334.026 35.0733 333.836 35.5267 333.456 35.86C333.076 36.1867 332.563 36.35 331.916 36.35H331.346V36.41L331.386 38H330.426L330.466 36.5L330.426 32.99L332.326 32.98ZM332.156 35.63C332.73 35.51 333.016 35.16 333.016 34.58C333.016 34.2933 332.936 34.08 332.776 33.94C332.616 33.8 332.37 33.7233 332.036 33.71L331.386 33.73L331.356 35.61L332.156 35.63ZM336.844 36.6L336.884 38H335.924L335.974 36.6L335.964 36.32L334.264 32.99H335.294L335.404 33.31L336.404 35.3H336.474L337.574 33.35L337.714 32.99H338.724L336.854 36.3L336.844 36.6ZM339.67 38.07C339.377 38.0433 339.064 37.9867 338.73 37.9L338.72 37.8C339.4 37.0333 340.06 36.2133 340.7 35.34L338.86 32.97H339.91L340.21 33.45L341.68 35.32V35.38C341.22 36.1 340.587 36.98 339.78 38.02L339.67 38.07ZM341.71 36.5L341.67 32.97H342.65L342.6 36.41L342.63 38H341.67L341.71 36.5ZM344.53 38.02C343.824 37.12 343.19 36.24 342.63 35.38V35.32L344.1 33.45L344.4 32.97H345.45L343.61 35.34C344.197 36.1467 344.857 36.9667 345.59 37.8L345.58 37.9C345.247 37.9867 344.934 38.0433 344.64 38.07L344.53 38.02ZM346.628 36.5L346.578 33L347.568 32.95L347.508 36.5H347.578L349.928 32.97H350.978L350.928 36.41L350.958 38H349.978L350.028 36.5V34.47H349.948L347.598 38H346.578L346.628 36.5ZM355.892 37.2L355.962 37.27L355.882 38H352.672L352.712 36.5L352.672 32.99H355.912L355.972 33.07L355.902 33.8L354.632 33.75L353.632 33.76L353.612 35.06L354.572 35.07L355.442 35.04L355.492 35.12L355.432 35.86L354.492 35.83L353.602 35.84L353.592 36.41L353.612 37.23L354.542 37.24L355.892 37.2ZM357.02 32.89C357.747 32.93 358.307 33.0633 358.7 33.29C359.094 33.5167 359.29 33.8233 359.29 34.21C359.29 34.43 359.224 34.64 359.09 34.84C358.957 35.04 358.77 35.2 358.53 35.32L357.89 35.68L357.86 35.71L357.89 36.31L357.28 36.4L357.2 36.32L357.13 35.49L357.17 35.39L357.89 34.99C358.224 34.81 358.39 34.59 358.39 34.33C358.39 34.11 358.264 33.94 358.01 33.82C357.757 33.6933 357.357 33.6167 356.81 33.59L356.74 33.5L356.92 32.95L357.02 32.89ZM357.58 37.05C357.734 37.05 357.854 37.0967 357.94 37.19C358.034 37.2767 358.08 37.3933 358.08 37.54C358.08 37.7 358.03 37.8267 357.93 37.92C357.837 38.0133 357.71 38.06 357.55 38.06C357.397 38.06 357.277 38.02 357.19 37.94C357.11 37.8533 357.07 37.7333 357.07 37.58C357.07 37.42 357.117 37.2933 357.21 37.2C357.304 37.1 357.427 37.05 357.58 37.05ZM361.954 36.07L361.904 31.61L362.944 31.56L362.884 36.4H362.964L365.974 31.58H367.064L367.014 35.98L367.054 38H366.014L366.064 36.07V33.18H365.984L362.974 38H361.904L361.954 36.07ZM371.843 33.05L371.763 33.77L370.623 33.75H369.873L369.833 36.41L369.873 38H368.883L368.933 36.5L368.883 32.97H371.773L371.843 33.05ZM374.621 32.98C375.161 32.98 375.578 33.1133 375.871 33.38C376.171 33.64 376.321 34.0133 376.321 34.5C376.321 35.0733 376.131 35.5267 375.751 35.86C375.371 36.1867 374.858 36.35 374.211 36.35H373.641V36.41L373.681 38H372.721L372.761 36.5L372.721 32.99L374.621 32.98ZM374.451 35.63C375.024 35.51 375.311 35.16 375.311 34.58C375.311 34.2933 375.231 34.08 375.071 33.94C374.911 33.8 374.664 33.7233 374.331 33.71L373.681 33.73L373.651 35.61L374.451 35.63ZM379.139 36.6L379.179 38H378.219L378.269 36.6L378.259 36.32L376.559 32.99H377.589L377.699 33.31L378.699 35.3H378.769L379.869 33.35L380.009 32.99H381.019L379.149 36.3L379.139 36.6ZM387.923 37.21V39.27L387.213 39.33L387.073 38H383.593L383.453 39.27L382.733 39.33V37.21H383.173C383.406 37.0967 383.589 36.9267 383.723 36.7C383.856 36.4667 383.966 36.1367 384.053 35.71C384.139 35.2767 384.219 34.6733 384.293 33.9L384.393 33.01L384.383 32.99H387.233L387.193 36.41L387.213 37.21H387.923ZM386.303 36.5L386.273 33.71H385.163L385.123 34.07C385.029 34.9967 384.916 35.6967 384.783 36.17C384.649 36.6367 384.459 36.9833 384.213 37.21H386.283L386.303 36.5ZM392.377 37.2L392.447 37.27L392.367 38H389.157L389.197 36.5L389.157 32.99H392.397L392.457 33.07L392.387 33.8L391.117 33.75L390.117 33.76L390.097 35.06L391.057 35.07L391.927 35.04L391.977 35.12L391.917 35.86L390.977 35.83L390.087 35.84L390.077 36.41L390.097 37.23L391.027 37.24L392.377 37.2ZM397.275 36.41L397.305 38H396.325L396.375 36.5L396.335 33.72H395.215L395.175 34.07C395.068 35.0967 394.945 35.89 394.805 36.45C394.671 37.01 394.501 37.4167 394.295 37.67C394.095 37.9167 393.828 38.06 393.495 38.1L393.225 38.12L393.055 37.32C393.321 37.2467 393.531 37.1033 393.685 36.89C393.838 36.67 393.965 36.33 394.065 35.87C394.165 35.41 394.255 34.75 394.335 33.89L394.425 32.99L394.415 32.97H397.325L397.275 36.41ZM402.95 38H401.98L401.85 37.38L401.67 36.83L400.55 36.82L399.55 36.83L399.36 37.33L399.22 38H398.27L400.14 32.99H401.26L402.95 38ZM401.42 36.08L400.71 33.89H400.64L399.83 36.08L400.62 36.09L401.42 36.08ZM408.052 32.9C408.738 32.9 409.268 33.1167 409.642 33.55C410.015 33.9767 410.202 34.5833 410.202 35.37C410.202 36.2367 410.002 36.9033 409.602 37.37C409.202 37.8367 408.628 38.07 407.882 38.07C407.255 38.07 406.755 37.88 406.382 37.5C406.008 37.12 405.795 36.5833 405.742 35.89L405.292 35.88L404.902 35.89L404.892 36.41L404.932 38H403.942L403.992 36.5L403.942 32.97H404.942L404.912 35.08L405.352 35.09L405.752 35.08C405.825 34.38 406.058 33.8433 406.452 33.47C406.852 33.09 407.385 32.9 408.052 32.9ZM407.972 37.33C408.398 37.33 408.708 37.1933 408.902 36.92C409.095 36.64 409.192 36.19 409.192 35.57C409.192 34.9033 409.092 34.4267 408.892 34.14C408.698 33.8467 408.392 33.7 407.972 33.7C407.552 33.7 407.245 33.8367 407.052 34.11C406.858 34.3833 406.762 34.8233 406.762 35.43C406.762 36.1033 406.855 36.59 407.042 36.89C407.235 37.1833 407.545 37.33 407.972 37.33ZM411.561 36.94C411.847 37.1467 411.991 37.3967 411.991 37.69C411.991 38.1833 411.637 38.6833 410.931 39.19L410.601 38.89L410.591 38.81C410.957 38.51 411.141 38.2033 411.141 37.89C411.141 37.6833 411.037 37.5067 410.831 37.36V37.27C411.077 37.11 411.321 37 411.561 36.94ZM418.897 38H417.927L417.797 37.38L417.617 36.83L416.497 36.82L415.497 36.83L415.307 37.33L415.167 38H414.217L416.087 32.99H417.207L418.897 38ZM417.367 36.08L416.657 33.89H416.587L415.777 36.08L416.567 36.09L417.367 36.08ZM425.49 36.41L425.52 38H424.55L424.59 36.5L424.56 33.73H422.48L422.44 36.41L422.47 38H421.5L421.54 36.5L421.5 32.97H425.54L425.49 36.41ZM429.133 32.98C429.673 32.98 430.089 33.1133 430.383 33.38C430.683 33.64 430.833 34.0133 430.833 34.5C430.833 35.0733 430.643 35.5267 430.263 35.86C429.883 36.1867 429.369 36.35 428.723 36.35H428.153V36.41L428.193 38H427.233L427.273 36.5L427.233 32.99L429.133 32.98ZM428.963 35.63C429.536 35.51 429.823 35.16 429.823 34.58C429.823 34.2933 429.743 34.08 429.583 33.94C429.423 33.8 429.176 33.7233 428.843 33.71L428.193 33.73L428.163 35.61L428.963 35.63ZM433.941 32.92C434.674 32.92 435.241 33.1367 435.641 33.57C436.047 33.9967 436.251 34.6 436.251 35.38C436.251 36.2467 436.034 36.9133 435.601 37.38C435.174 37.8467 434.564 38.08 433.771 38.08C433.031 38.08 432.461 37.86 432.061 37.42C431.661 36.98 431.461 36.3567 431.461 35.55C431.461 34.71 431.674 34.0633 432.101 33.61C432.534 33.15 433.147 32.92 433.941 32.92ZM433.851 33.71C433.371 33.71 433.017 33.8467 432.791 34.12C432.571 34.3867 432.461 34.8233 432.461 35.43C432.461 36.1033 432.571 36.5833 432.791 36.87C433.011 37.1567 433.361 37.3 433.841 37.3C434.327 37.3 434.684 37.1667 434.911 36.9C435.137 36.6267 435.251 36.1833 435.251 35.57C435.251 34.9033 435.141 34.4267 434.921 34.14C434.701 33.8533 434.344 33.71 433.851 33.71ZM440.466 33.05L440.386 33.77L439.246 33.75H438.496L438.456 36.41L438.496 38H437.506L437.556 36.5L437.506 32.97H440.396L440.466 33.05ZM443.244 32.98C443.784 32.98 444.201 33.1133 444.494 33.38C444.794 33.64 444.944 34.0133 444.944 34.5C444.944 35.0733 444.754 35.5267 444.374 35.86C443.994 36.1867 443.481 36.35 442.834 36.35H442.264V36.41L442.304 38H441.344L441.384 36.5L441.344 32.99L443.244 32.98ZM443.074 35.63C443.647 35.51 443.934 35.16 443.934 34.58C443.934 34.2933 443.854 34.08 443.694 33.94C443.534 33.8 443.287 33.7233 442.954 33.71L442.304 33.73L442.274 35.61L443.074 35.63ZM449.444 38H448.474L448.344 37.38L448.164 36.83L447.044 36.82L446.044 36.83L445.854 37.33L445.714 38H444.764L446.634 32.99H447.754L449.444 38ZM447.914 36.08L447.204 33.89H447.134L446.324 36.08L447.114 36.09L447.914 36.08ZM455.926 38H455.076L454.976 36.48L454.746 34.44H454.686L453.386 37.47H452.636L451.436 34.44H451.356L451.136 36.39L451.006 38H450.196L450.736 32.99H451.856L452.086 33.73L453.026 36.2H453.096L454.096 33.72L454.346 32.99H455.436L455.926 38ZM462.879 38H462.029L461.929 36.48L461.699 34.44H461.639L460.339 37.47H459.589L458.389 34.44H458.309L458.089 36.39L457.959 38H457.149L457.689 32.99H458.809L459.039 33.73L459.979 36.2H460.049L461.049 33.72L461.299 32.99H462.389L462.879 38ZM466.112 36.6L466.152 38H465.192L465.242 36.6L465.232 36.32L463.532 32.99H464.562L464.672 33.31L465.672 35.3H465.742L466.842 33.35L466.982 32.99H467.992L466.122 36.3L466.112 36.6ZM474.455 36.41L474.485 38H473.515L473.555 36.5L473.525 33.73H471.445L471.405 36.41L471.435 38H470.465L470.505 36.5L470.465 32.97H474.505L474.455 36.41ZM476.238 36.5L476.188 33L477.178 32.95L477.118 36.5H477.188L479.538 32.97H480.588L480.538 36.41L480.568 38H479.588L479.638 36.5V34.47H479.558L477.208 38H476.188L476.238 36.5ZM484.185 32.93C484.732 32.93 485.208 33.0367 485.615 33.25L485.435 34.1L485.345 34.13C485.178 34.0033 484.985 33.9033 484.765 33.83C484.552 33.7567 484.328 33.72 484.095 33.72C483.175 33.72 482.715 34.2933 482.715 35.44C482.715 36.04 482.835 36.4967 483.075 36.81C483.315 37.1167 483.665 37.27 484.125 37.27C484.352 37.27 484.582 37.2333 484.815 37.16C485.048 37.0867 485.255 36.9867 485.435 36.86L485.535 36.91L485.455 37.76C485.008 37.9667 484.548 38.07 484.075 38.07C483.308 38.07 482.722 37.85 482.315 37.41C481.908 36.97 481.705 36.3433 481.705 35.53C481.705 34.6967 481.918 34.0567 482.345 33.61C482.778 33.1567 483.392 32.93 484.185 32.93ZM490.772 38H489.802L489.672 37.38L489.492 36.83L488.372 36.82L487.372 36.83L487.182 37.33L487.042 38H486.092L487.962 32.99H489.082L490.772 38ZM489.242 36.08L488.532 33.89H488.462L487.652 36.08L488.442 36.09L489.242 36.08ZM494.306 33.07L494.246 33.84L493.276 33.77H492.856L492.836 36.41L492.866 38H491.906L491.946 36.5L491.926 33.77H491.516L490.526 33.84L490.456 33.76L490.526 32.99H494.256L494.306 33.07ZM497.322 34.93C497.848 34.93 498.248 35.0467 498.522 35.28C498.802 35.5133 498.942 35.85 498.942 36.29C498.942 36.8233 498.745 37.2433 498.352 37.55C497.965 37.85 497.422 38 496.722 38H495.242L495.292 36.5L495.242 32.97H496.232L496.202 34.93H497.322ZM497.012 37.31C497.312 37.27 497.538 37.1733 497.692 37.02C497.845 36.8667 497.922 36.6667 497.922 36.42C497.922 36.1667 497.842 35.97 497.682 35.83C497.522 35.6833 497.292 35.6133 496.992 35.62L496.192 35.64L496.182 36.41L496.202 37.28L497.012 37.31ZM329.15 52.41L329.19 54H328.23L328.26 52.5L328.25 51.9L326.96 51.89L325.78 51.91L325.77 52.41L325.81 54H324.85L324.89 52.5L324.85 48.99H325.82L325.79 51.07L327.03 51.09L328.25 51.08L328.23 48.99H329.2L329.15 52.41ZM334.825 54H333.855L333.725 53.38L333.545 52.83L332.425 52.82L331.425 52.83L331.235 53.33L331.095 54H330.145L332.015 48.99H333.135L334.825 54ZM333.295 52.08L332.585 49.89H332.515L331.705 52.08L332.495 52.09L333.295 52.08ZM341.368 54H340.398L340.268 53.38L340.088 52.83L338.968 52.82L337.968 52.83L337.778 53.33L337.638 54H336.688L338.558 48.99H339.678L341.368 54ZM339.838 52.08L339.128 49.89H339.058L338.248 52.08L339.038 52.09L339.838 52.08ZM346.67 52.41L346.71 54H345.75L345.78 52.5L345.77 51.9L344.48 51.89L343.3 51.91L343.29 52.41L343.33 54H342.37L342.41 52.5L342.37 48.99H343.34L343.31 51.07L344.55 51.09L345.77 51.08L345.75 48.99H346.72L346.67 52.41ZM351.365 49.05L351.285 49.77L350.145 49.75H349.395L349.355 52.41L349.395 54H348.405L348.455 52.5L348.405 48.97H351.295L351.365 49.05ZM355.693 52.41L355.723 54H354.743L354.793 52.5L354.753 49.72H353.633L353.593 50.07C353.486 51.0967 353.363 51.89 353.223 52.45C353.089 53.01 352.919 53.4167 352.713 53.67C352.513 53.9167 352.246 54.06 351.913 54.1L351.643 54.12L351.473 53.32C351.739 53.2467 351.949 53.1033 352.103 52.89C352.256 52.67 352.383 52.33 352.483 51.87C352.583 51.41 352.673 50.75 352.753 49.89L352.843 48.99L352.833 48.97H355.743L355.693 52.41ZM357.468 52.5L357.418 49L358.408 48.95L358.348 52.5H358.418L360.768 48.97H361.818L361.768 52.41L361.798 54H360.818L360.868 52.5V50.47H360.788L358.438 54H357.418L357.468 52.5ZM367.212 47.35C367.092 47.6367 366.895 47.86 366.622 48.02C366.355 48.18 366.042 48.26 365.682 48.26C365.322 48.26 365.012 48.1833 364.752 48.03C364.499 47.87 364.305 47.6433 364.172 47.35L364.692 46.99H364.812C364.879 47.2167 364.982 47.3833 365.122 47.49C365.269 47.59 365.462 47.64 365.702 47.64C365.942 47.64 366.129 47.5933 366.262 47.5C366.395 47.4 366.502 47.23 366.582 46.99H366.692L367.212 47.35ZM363.552 52.5L363.502 49L364.492 48.95L364.432 52.5H364.502L366.852 48.97H367.902L367.852 52.41L367.882 54H366.902L366.952 52.5V50.47H366.872L364.522 54H363.502L363.552 52.5ZM371.499 48.93C372.046 48.93 372.523 49.0367 372.929 49.25L372.749 50.1L372.659 50.13C372.493 50.0033 372.299 49.9033 372.079 49.83C371.866 49.7567 371.643 49.72 371.409 49.72C370.489 49.72 370.029 50.2933 370.029 51.44C370.029 52.04 370.149 52.4967 370.389 52.81C370.629 53.1167 370.979 53.27 371.439 53.27C371.666 53.27 371.896 53.2333 372.129 53.16C372.363 53.0867 372.569 52.9867 372.749 52.86L372.849 52.91L372.769 53.76C372.323 53.9667 371.863 54.07 371.389 54.07C370.623 54.07 370.036 53.85 369.629 53.41C369.223 52.97 369.019 52.3433 369.019 51.53C369.019 50.6967 369.233 50.0567 369.659 49.61C370.093 49.1567 370.706 48.93 371.499 48.93ZM376.136 51.34C376.77 52.16 377.48 52.9733 378.266 53.78L378.246 53.92C377.933 54 377.62 54.0567 377.306 54.09L377.166 54.03C376.333 53.03 375.646 52.1533 375.106 51.4V51.33L376.716 49.46L377.036 48.99L378.136 48.98L376.136 51.34ZM375.076 52.41L375.116 54H374.156L374.196 52.5L374.156 48.99H375.126L375.076 52.41ZM381.06 48.92C381.793 48.92 382.36 49.1367 382.76 49.57C383.166 49.9967 383.37 50.6 383.37 51.38C383.37 52.2467 383.153 52.9133 382.72 53.38C382.293 53.8467 381.683 54.08 380.89 54.08C380.15 54.08 379.58 53.86 379.18 53.42C378.78 52.98 378.58 52.3567 378.58 51.55C378.58 50.71 378.793 50.0633 379.22 49.61C379.653 49.15 380.266 48.92 381.06 48.92ZM380.97 49.71C380.49 49.71 380.136 49.8467 379.91 50.12C379.69 50.3867 379.58 50.8233 379.58 51.43C379.58 52.1033 379.69 52.5833 379.91 52.87C380.13 53.1567 380.48 53.3 380.96 53.3C381.446 53.3 381.803 53.1667 382.03 52.9C382.256 52.6267 382.37 52.1833 382.37 51.57C382.37 50.9033 382.26 50.4267 382.04 50.14C381.82 49.8533 381.463 49.71 380.97 49.71ZM390.105 54H389.255L389.155 52.48L388.925 50.44H388.865L387.565 53.47H386.815L385.615 50.44H385.535L385.315 52.39L385.185 54H384.375L384.915 48.99H386.035L386.265 49.73L387.205 52.2H387.275L388.275 49.72L388.525 48.99H389.615L390.105 54ZM397.48 52.41L397.52 54H396.56L396.59 52.5L396.58 51.9L395.29 51.89L394.11 51.91L394.1 52.41L394.14 54H393.18L393.22 52.5L393.18 48.99H394.15L394.12 51.07L395.36 51.09L396.58 51.08L396.56 48.99H397.53L397.48 52.41ZM403.155 54H402.185L402.055 53.38L401.875 52.83L400.755 52.82L399.755 52.83L399.565 53.33L399.425 54H398.475L400.345 48.99H401.465L403.155 54ZM401.625 52.08L400.915 49.89H400.845L400.035 52.08L400.825 52.09L401.625 52.08ZM408.587 53.21V55.27L407.877 55.33L407.737 54H404.257L404.117 55.27L403.397 55.33V53.21H403.837C404.07 53.0967 404.253 52.9267 404.387 52.7C404.52 52.4667 404.63 52.1367 404.717 51.71C404.803 51.2767 404.883 50.6733 404.957 49.9L405.057 49.01L405.047 48.99H407.897L407.857 52.41L407.877 53.21H408.587ZM406.967 52.5L406.937 49.71H405.827L405.787 50.07C405.693 50.9967 405.58 51.6967 405.447 52.17C405.313 52.6367 405.123 52.9833 404.877 53.21H406.947L406.967 52.5ZM411.734 48.92C412.467 48.92 413.034 49.1367 413.434 49.57C413.84 49.9967 414.044 50.6 414.044 51.38C414.044 52.2467 413.827 52.9133 413.394 53.38C412.967 53.8467 412.357 54.08 411.564 54.08C410.824 54.08 410.254 53.86 409.854 53.42C409.454 52.98 409.254 52.3567 409.254 51.55C409.254 50.71 409.467 50.0633 409.894 49.61C410.327 49.15 410.94 48.92 411.734 48.92ZM411.644 49.71C411.164 49.71 410.81 49.8467 410.584 50.12C410.364 50.3867 410.254 50.8233 410.254 51.43C410.254 52.1033 410.364 52.5833 410.584 52.87C410.804 53.1567 411.154 53.3 411.634 53.3C412.12 53.3 412.477 53.1667 412.704 52.9C412.93 52.6267 413.044 52.1833 413.044 51.57C413.044 50.9033 412.934 50.4267 412.714 50.14C412.494 49.8533 412.137 49.71 411.644 49.71Z" fill="white"/>
<path d="M563 101C563 95.4772 558.523 91 553 91H384C378.477 91 374 95.4772 374 101V138.503C374 144.025 378.477 148.503 384 148.503H507.559C508.194 148.503 508.827 148.563 509.451 148.683L563 159V148.503V101Z" fill="#F5807A"/>
<path d="M392.508 107H391.448L391.298 106.28L391.018 105.39L389.658 105.36L388.428 105.39L388.128 106.23L387.968 107H386.938L389.228 100.58H390.438L392.508 107ZM390.758 104.55L389.838 101.59H389.768L388.718 104.55L389.728 104.57L390.758 104.55ZM398.466 105.5L398.516 107H397.526L397.566 105.41V105.27H396.706C396.433 105.783 396.086 106.36 395.666 107L395.556 107.07C395.196 107.05 394.88 106.987 394.606 106.88L394.596 106.77C395.11 106.17 395.56 105.597 395.946 105.05C395.246 104.737 394.896 104.25 394.896 103.59C394.896 103.27 394.976 102.987 395.136 102.74C395.303 102.493 395.53 102.303 395.816 102.17C396.11 102.03 396.443 101.96 396.816 101.96L398.516 101.97L398.466 105.5ZM397.556 104.5L397.526 102.72L396.876 102.7C396.576 102.707 396.343 102.787 396.176 102.94C396.01 103.087 395.926 103.3 395.926 103.58C395.926 103.833 395.99 104.037 396.116 104.19C396.25 104.343 396.453 104.457 396.726 104.53L397.556 104.5ZM404.767 102.05L404.687 102.77L403.547 102.75H402.797L402.757 105.41L402.797 107H401.807L401.857 105.5L401.807 101.97H404.697L404.767 102.05ZM407.675 101.92C408.408 101.92 408.975 102.137 409.375 102.57C409.782 102.997 409.985 103.6 409.985 104.38C409.985 105.247 409.768 105.913 409.335 106.38C408.908 106.847 408.298 107.08 407.505 107.08C406.765 107.08 406.195 106.86 405.795 106.42C405.395 105.98 405.195 105.357 405.195 104.55C405.195 103.71 405.408 103.063 405.835 102.61C406.268 102.15 406.882 101.92 407.675 101.92ZM407.585 102.71C407.105 102.71 406.752 102.847 406.525 103.12C406.305 103.387 406.195 103.823 406.195 104.43C406.195 105.103 406.305 105.583 406.525 105.87C406.745 106.157 407.095 106.3 407.575 106.3C408.062 106.3 408.418 106.167 408.645 105.9C408.872 105.627 408.985 105.183 408.985 104.57C408.985 103.903 408.875 103.427 408.655 103.14C408.435 102.853 408.078 102.71 407.585 102.71ZM413.831 104.4C414.551 104.553 414.911 104.947 414.911 105.58C414.911 106.547 414.134 107.03 412.581 107.03C412.108 107.03 411.651 107.02 411.211 107L411.251 105.5L411.211 101.99L412.971 101.98C413.491 101.98 413.898 102.087 414.191 102.3C414.484 102.513 414.631 102.82 414.631 103.22C414.631 103.493 414.561 103.733 414.421 103.94C414.281 104.14 414.084 104.293 413.831 104.4ZM413.631 103.35C413.631 103.117 413.554 102.95 413.401 102.85C413.248 102.75 412.994 102.7 412.641 102.7H412.161L412.141 104.09L412.961 104.12C413.188 104.067 413.354 103.98 413.461 103.86C413.574 103.74 413.631 103.57 413.631 103.35ZM412.731 106.33C413.118 106.33 413.411 106.263 413.611 106.13C413.818 105.997 413.921 105.8 413.921 105.54C413.921 105.333 413.851 105.173 413.711 105.06C413.571 104.94 413.358 104.857 413.071 104.81L412.131 104.82L412.121 105.41L412.141 106.3C412.354 106.32 412.551 106.33 412.731 106.33ZM418.202 101.92C418.936 101.92 419.502 102.137 419.902 102.57C420.309 102.997 420.512 103.6 420.512 104.38C420.512 105.247 420.296 105.913 419.862 106.38C419.436 106.847 418.826 107.08 418.032 107.08C417.292 107.08 416.722 106.86 416.322 106.42C415.922 105.98 415.722 105.357 415.722 104.55C415.722 103.71 415.936 103.063 416.362 102.61C416.796 102.15 417.409 101.92 418.202 101.92ZM418.112 102.71C417.632 102.71 417.279 102.847 417.052 103.12C416.832 103.387 416.722 103.823 416.722 104.43C416.722 105.103 416.832 105.583 417.052 105.87C417.272 106.157 417.622 106.3 418.102 106.3C418.589 106.3 418.946 106.167 419.172 105.9C419.399 105.627 419.512 105.183 419.512 104.57C419.512 103.903 419.402 103.427 419.182 103.14C418.962 102.853 418.606 102.71 418.112 102.71ZM423.648 101.98C424.188 101.98 424.605 102.113 424.898 102.38C425.198 102.64 425.348 103.013 425.348 103.5C425.348 104.073 425.158 104.527 424.778 104.86C424.398 105.187 423.885 105.35 423.238 105.35H422.668V105.41L422.708 107H421.748L421.788 105.5L421.748 101.99L423.648 101.98ZM423.478 104.63C424.052 104.51 424.338 104.16 424.338 103.58C424.338 103.293 424.258 103.08 424.098 102.94C423.938 102.8 423.692 102.723 423.358 102.71L422.708 102.73L422.678 104.61L423.478 104.63ZM426.466 105.5L426.416 102L427.406 101.95L427.346 105.5H427.416L429.766 101.97H430.816L430.766 105.41L430.796 107H429.816L429.866 105.5V103.47H429.786L427.436 107H426.416L426.466 105.5ZM435.96 105.41L435.99 107H435.01L435.06 105.5L435.02 102.72H433.9L433.86 103.07C433.753 104.097 433.63 104.89 433.49 105.45C433.357 106.01 433.187 106.417 432.98 106.67C432.78 106.917 432.513 107.06 432.18 107.1L431.91 107.12L431.74 106.32C432.007 106.247 432.217 106.103 432.37 105.89C432.523 105.67 432.65 105.33 432.75 104.87C432.85 104.41 432.94 103.75 433.02 102.89L433.11 101.99L433.1 101.97H436.01L435.96 105.41ZM441.636 107H440.666L440.536 106.38L440.356 105.83L439.236 105.82L438.236 105.83L438.046 106.33L437.906 107H436.956L438.826 101.99H439.946L441.636 107ZM440.106 105.08L439.396 102.89H439.326L438.516 105.08L439.306 105.09L440.106 105.08ZM445.999 105.6L446.039 107H445.079L445.129 105.6L445.119 105.32L443.419 101.99H444.449L444.559 102.31L445.559 104.3H445.629L446.729 102.35L446.869 101.99H447.879L446.009 105.3L445.999 105.6ZM452.1 105.41L452.14 107H451.16L451.2 105.5L451.19 104.88H451.12C450.78 105.167 450.407 105.363 450 105.47C449.44 105.47 449.027 105.353 448.76 105.12C448.494 104.88 448.357 104.507 448.35 104L448.33 101.97H449.31L449.3 103.74C449.3 104.013 449.367 104.23 449.5 104.39C449.64 104.543 449.834 104.62 450.08 104.62C450.254 104.62 450.437 104.58 450.63 104.5C450.824 104.413 451.007 104.297 451.18 104.15L451.16 101.97H452.15L452.1 105.41ZM453.878 105.5L453.828 102L454.818 101.95L454.758 105.5H454.828L457.178 101.97H458.228L458.178 105.41L458.208 107H457.228L457.278 105.5V103.47H457.198L454.848 107H453.828L453.878 105.5ZM465.464 107H464.494L464.364 106.38L464.184 105.83L463.064 105.82L462.064 105.83L461.874 106.33L461.734 107H460.784L462.654 101.99H463.774L465.464 107ZM463.934 105.08L463.224 102.89H463.154L462.344 105.08L463.134 105.09L463.934 105.08ZM470.765 105.41L470.805 107H469.845L469.875 105.5L469.865 104.9L468.575 104.89L467.395 104.91L467.385 105.41L467.425 107H466.465L466.505 105.5L466.465 101.99H467.435L467.405 104.07L468.645 104.09L469.865 104.08L469.845 101.99H470.815L470.765 105.41ZM475.46 102.05L475.38 102.77L474.24 102.75H473.49L473.45 105.41L473.49 107H472.5L472.55 105.5L472.5 101.97H475.39L475.46 102.05ZM479.788 105.41L479.818 107H478.838L478.888 105.5L478.848 102.72H477.728L477.688 103.07C477.582 104.097 477.458 104.89 477.318 105.45C477.185 106.01 477.015 106.417 476.808 106.67C476.608 106.917 476.342 107.06 476.008 107.1L475.738 107.12L475.568 106.32C475.835 106.247 476.045 106.103 476.198 105.89C476.352 105.67 476.478 105.33 476.578 104.87C476.678 104.41 476.768 103.75 476.848 102.89L476.938 101.99L476.928 101.97H479.838L479.788 105.41ZM481.564 105.5L481.514 102L482.504 101.95L482.444 105.5H482.514L484.864 101.97H485.914L485.864 105.41L485.894 107H484.914L484.964 105.5V103.47H484.884L482.534 107H481.514L481.564 105.5ZM491.308 100.35C491.188 100.637 490.991 100.86 490.718 101.02C490.451 101.18 490.138 101.26 489.778 101.26C489.418 101.26 489.108 101.183 488.848 101.03C488.594 100.87 488.401 100.643 488.268 100.35L488.788 99.99H488.908C488.974 100.217 489.078 100.383 489.218 100.49C489.364 100.59 489.558 100.64 489.798 100.64C490.038 100.64 490.224 100.593 490.358 100.5C490.491 100.4 490.598 100.23 490.678 99.99H490.788L491.308 100.35ZM487.648 105.5L487.598 102L488.588 101.95L488.528 105.5H488.598L490.948 101.97H491.998L491.948 105.41L491.978 107H490.998L491.048 105.5V103.47H490.968L488.618 107H487.598L487.648 105.5ZM495.595 101.93C496.142 101.93 496.618 102.037 497.025 102.25L496.845 103.1L496.755 103.13C496.588 103.003 496.395 102.903 496.175 102.83C495.962 102.757 495.738 102.72 495.505 102.72C494.585 102.72 494.125 103.293 494.125 104.44C494.125 105.04 494.245 105.497 494.485 105.81C494.725 106.117 495.075 106.27 495.535 106.27C495.762 106.27 495.992 106.233 496.225 106.16C496.458 106.087 496.665 105.987 496.845 105.86L496.945 105.91L496.865 106.76C496.418 106.967 495.958 107.07 495.485 107.07C494.718 107.07 494.132 106.85 493.725 106.41C493.318 105.97 493.115 105.343 493.115 104.53C493.115 103.697 493.328 103.057 493.755 102.61C494.188 102.157 494.802 101.93 495.595 101.93ZM500.232 104.34C500.865 105.16 501.575 105.973 502.362 106.78L502.342 106.92C502.029 107 501.715 107.057 501.402 107.09L501.262 107.03C500.429 106.03 499.742 105.153 499.202 104.4V104.33L500.812 102.46L501.132 101.99L502.232 101.98L500.232 104.34ZM499.172 105.41L499.212 107H498.252L498.292 105.5L498.252 101.99H499.222L499.172 105.41ZM503.39 105.5L503.34 102L504.33 101.95L504.27 105.5H504.34L506.69 101.97H507.74L507.69 105.41L507.72 107H506.74L506.79 105.5V103.47H506.71L504.36 107H503.34L503.39 105.5ZM513.134 100.35C513.014 100.637 512.817 100.86 512.544 101.02C512.277 101.18 511.964 101.26 511.604 101.26C511.244 101.26 510.934 101.183 510.674 101.03C510.421 100.87 510.227 100.643 510.094 100.35L510.614 99.99H510.734C510.801 100.217 510.904 100.383 511.044 100.49C511.191 100.59 511.384 100.64 511.624 100.64C511.864 100.64 512.051 100.593 512.184 100.5C512.317 100.4 512.424 100.23 512.504 99.99H512.614L513.134 100.35ZM509.474 105.5L509.424 102L510.414 101.95L510.354 105.5H510.424L512.774 101.97H513.824L513.774 105.41L513.804 107H512.824L512.874 105.5V103.47H512.794L510.444 107H509.424L509.474 105.5ZM519.16 101.93C519.706 101.93 520.183 102.037 520.59 102.25L520.41 103.1L520.32 103.13C520.153 103.003 519.96 102.903 519.74 102.83C519.526 102.757 519.303 102.72 519.07 102.72C518.15 102.72 517.69 103.293 517.69 104.44C517.69 105.04 517.81 105.497 518.05 105.81C518.29 106.117 518.64 106.27 519.1 106.27C519.326 106.27 519.556 106.233 519.79 106.16C520.023 106.087 520.23 105.987 520.41 105.86L520.51 105.91L520.43 106.76C519.983 106.967 519.523 107.07 519.05 107.07C518.283 107.07 517.696 106.85 517.29 106.41C516.883 105.97 516.68 105.343 516.68 104.53C516.68 103.697 516.893 103.057 517.32 102.61C517.753 102.157 518.366 101.93 519.16 101.93ZM523.857 101.92C524.59 101.92 525.157 102.137 525.557 102.57C525.963 102.997 526.167 103.6 526.167 104.38C526.167 105.247 525.95 105.913 525.517 106.38C525.09 106.847 524.48 107.08 523.687 107.08C522.947 107.08 522.377 106.86 521.977 106.42C521.577 105.98 521.377 105.357 521.377 104.55C521.377 103.71 521.59 103.063 522.017 102.61C522.45 102.15 523.063 101.92 523.857 101.92ZM523.767 102.71C523.287 102.71 522.933 102.847 522.707 103.12C522.487 103.387 522.377 103.823 522.377 104.43C522.377 105.103 522.487 105.583 522.707 105.87C522.927 106.157 523.277 106.3 523.757 106.3C524.243 106.3 524.6 106.167 524.827 105.9C525.053 105.627 525.167 105.183 525.167 104.57C525.167 103.903 525.057 103.427 524.837 103.14C524.617 102.853 524.26 102.71 523.767 102.71ZM534.504 107H533.654L533.554 105.48L533.324 103.44H533.264L531.964 106.47H531.214L530.014 103.44H529.934L529.714 105.39L529.584 107H528.774L529.314 101.99H530.434L530.664 102.73L531.604 105.2H531.674L532.674 102.72L532.924 101.99H534.014L534.504 107ZM540.277 105.41L540.317 107H539.357L539.387 105.5L539.377 104.9L538.087 104.89L536.907 104.91L536.897 105.41L536.937 107H535.977L536.017 105.5L535.977 101.99H536.947L536.917 104.07L538.157 104.09L539.377 104.08L539.357 101.99H540.327L540.277 105.41ZM543.905 101.92C544.639 101.92 545.205 102.137 545.605 102.57C546.012 102.997 546.215 103.6 546.215 104.38C546.215 105.247 545.999 105.913 545.565 106.38C545.139 106.847 544.529 107.08 543.735 107.08C542.995 107.08 542.425 106.86 542.025 106.42C541.625 105.98 541.425 105.357 541.425 104.55C541.425 103.71 541.639 103.063 542.065 102.61C542.499 102.15 543.112 101.92 543.905 101.92ZM543.815 102.71C543.335 102.71 542.982 102.847 542.755 103.12C542.535 103.387 542.425 103.823 542.425 104.43C542.425 105.103 542.535 105.583 542.755 105.87C542.975 106.157 543.325 106.3 543.805 106.3C544.292 106.3 544.649 106.167 544.875 105.9C545.102 105.627 545.215 105.183 545.215 104.57C545.215 103.903 545.105 103.427 544.885 103.14C544.665 102.853 544.309 102.71 543.815 102.71ZM551.152 100.35C551.032 100.637 550.835 100.86 550.562 101.02C550.295 101.18 549.982 101.26 549.622 101.26C549.262 101.26 548.952 101.183 548.692 101.03C548.438 100.87 548.245 100.643 548.112 100.35L548.632 99.99H548.752C548.818 100.217 548.922 100.383 549.062 100.49C549.208 100.59 549.402 100.64 549.642 100.64C549.882 100.64 550.068 100.593 550.202 100.5C550.335 100.4 550.442 100.23 550.522 99.99H550.632L551.152 100.35ZM547.492 105.5L547.442 102L548.432 101.95L548.372 105.5H548.442L550.792 101.97H551.842L551.792 105.41L551.822 107H550.842L550.892 105.5V103.47H550.812L548.462 107H547.442L547.492 105.5ZM554.366 102.02L554.156 105.28L553.586 105.36L553.476 105.26L553.456 102.06L553.556 101.94L554.256 101.9L554.366 102.02ZM553.806 106.03C553.959 106.03 554.079 106.073 554.166 106.16C554.252 106.247 554.296 106.367 554.296 106.52C554.296 106.687 554.249 106.82 554.156 106.92C554.062 107.013 553.936 107.06 553.776 107.06C553.616 107.06 553.492 107.017 553.406 106.93C553.319 106.837 553.276 106.713 553.276 106.56C553.276 106.4 553.322 106.273 553.416 106.18C553.516 106.08 553.646 106.03 553.806 106.03ZM414.411 120.98L414.451 123H413.421L413.471 121.07L413.421 116.58H414.461L414.411 120.98ZM415.561 119.6C416.335 120.64 417.218 121.7 418.211 122.78L418.201 122.9C417.908 122.98 417.578 123.043 417.211 123.09L417.081 123.03C416.068 121.79 415.208 120.663 414.501 119.65V119.58L416.501 117.16L416.901 116.58H418.031L415.561 119.6ZM423.179 123H422.209L422.079 122.38L421.899 121.83L420.779 121.82L419.779 121.83L419.589 122.33L419.449 123H418.499L420.369 117.99H421.489L423.179 123ZM421.649 121.08L420.939 118.89H420.869L420.059 121.08L420.849 121.09L421.649 121.08ZM426.15 120.34C426.783 121.16 427.493 121.973 428.28 122.78L428.26 122.92C427.947 123 427.633 123.057 427.32 123.09L427.18 123.03C426.347 122.03 425.66 121.153 425.12 120.4V120.33L426.73 118.46L427.05 117.99L428.15 117.98L426.15 120.34ZM425.09 121.41L425.13 123H424.17L424.21 121.5L424.17 117.99H425.14L425.09 121.41ZM433.93 118.07L433.87 118.84L432.9 118.77H432.48L432.46 121.41L432.49 123H431.53L431.57 121.5L431.55 118.77H431.14L430.15 118.84L430.08 118.76L430.15 117.99H433.88L433.93 118.07ZM436.675 119.93C437.168 119.93 437.545 120.047 437.805 120.28C438.065 120.513 438.195 120.85 438.195 121.29C438.195 121.823 438.008 122.243 437.635 122.55C437.261 122.85 436.741 123 436.075 123H434.695L434.745 121.5L434.695 117.97H435.685L435.655 119.93H436.675ZM440.005 121.41L440.045 123H439.085L439.125 121.5L439.085 117.99H440.055L440.005 121.41ZM436.365 122.31C436.625 122.27 436.825 122.173 436.965 122.02C437.111 121.867 437.185 121.667 437.185 121.42C437.185 121.167 437.111 120.97 436.965 120.83C436.818 120.683 436.615 120.613 436.355 120.62L435.645 120.64L435.635 121.41L435.655 122.28L436.365 122.31ZM447.78 122.21V124.27L447.07 124.33L446.93 123H443.45L443.31 124.27L442.59 124.33V122.21H443.03C443.263 122.097 443.447 121.927 443.58 121.7C443.713 121.467 443.823 121.137 443.91 120.71C443.997 120.277 444.077 119.673 444.15 118.9L444.25 118.01L444.24 117.99H447.09L447.05 121.41L447.07 122.21H447.78ZM446.16 121.5L446.13 118.71H445.02L444.98 119.07C444.887 119.997 444.773 120.697 444.64 121.17C444.507 121.637 444.317 121.983 444.07 122.21H446.14L446.16 121.5ZM452.954 123H451.984L451.854 122.38L451.674 121.83L450.554 121.82L449.554 121.83L449.364 122.33L449.224 123H448.274L450.144 117.99H451.264L452.954 123ZM451.424 121.08L450.714 118.89H450.644L449.834 121.08L450.624 121.09L451.424 121.08ZM457.405 121.41L457.435 123H456.455L456.505 121.5L456.465 118.72H455.345L455.305 119.07C455.199 120.097 455.075 120.89 454.935 121.45C454.802 122.01 454.632 122.417 454.425 122.67C454.225 122.917 453.959 123.06 453.625 123.1L453.355 123.12L453.185 122.32C453.452 122.247 453.662 122.103 453.815 121.89C453.969 121.67 454.095 121.33 454.195 120.87C454.295 120.41 454.385 119.75 454.465 118.89L454.555 117.99L454.545 117.97H457.455L457.405 121.41ZM461.261 119.93C461.788 119.93 462.188 120.047 462.461 120.28C462.741 120.513 462.881 120.85 462.881 121.29C462.881 121.823 462.684 122.243 462.291 122.55C461.904 122.85 461.361 123 460.661 123H459.181L459.231 121.5L459.181 117.97H460.171L460.141 119.93H461.261ZM460.951 122.31C461.251 122.27 461.478 122.173 461.631 122.02C461.784 121.867 461.861 121.667 461.861 121.42C461.861 121.167 461.781 120.97 461.621 120.83C461.461 120.683 461.231 120.613 460.931 120.62L460.131 120.64L460.121 121.41L460.141 122.28L460.951 122.31ZM470.363 121.41L470.393 123H464.113L464.163 121.5L464.113 117.97H465.103L465.053 121.41L465.073 122.2H466.793L466.813 121.5L466.763 117.97H467.763L467.713 121.41L467.723 122.2H469.443L469.453 121.5L469.423 117.97H470.403L470.363 121.41ZM475.349 122.2L475.419 122.27L475.339 123H472.129L472.169 121.5L472.129 117.99H475.369L475.429 118.07L475.359 118.8L474.089 118.75L473.089 118.76L473.069 120.06L474.029 120.07L474.899 120.04L474.949 120.12L474.889 120.86L473.949 120.83L473.059 120.84L473.049 121.41L473.069 122.23L473.999 122.24L475.349 122.2ZM482.389 121.41L482.419 123H481.449L481.489 121.5L481.459 118.73H479.379L479.339 121.41L479.369 123H478.399L478.439 121.5L478.399 117.97H482.439L482.389 121.41ZM486.031 117.98C486.571 117.98 486.988 118.113 487.281 118.38C487.581 118.64 487.731 119.013 487.731 119.5C487.731 120.073 487.541 120.527 487.161 120.86C486.781 121.187 486.268 121.35 485.621 121.35H485.051V121.41L485.091 123H484.131L484.171 121.5L484.131 117.99L486.031 117.98ZM485.861 120.63C486.435 120.51 486.721 120.16 486.721 119.58C486.721 119.293 486.641 119.08 486.481 118.94C486.321 118.8 486.075 118.723 485.741 118.71L485.091 118.73L485.061 120.61L485.861 120.63ZM490.839 117.92C491.572 117.92 492.139 118.137 492.539 118.57C492.946 118.997 493.149 119.6 493.149 120.38C493.149 121.247 492.932 121.913 492.499 122.38C492.072 122.847 491.462 123.08 490.669 123.08C489.929 123.08 489.359 122.86 488.959 122.42C488.559 121.98 488.359 121.357 488.359 120.55C488.359 119.71 488.572 119.063 488.999 118.61C489.432 118.15 490.046 117.92 490.839 117.92ZM490.749 118.71C490.269 118.71 489.916 118.847 489.689 119.12C489.469 119.387 489.359 119.823 489.359 120.43C489.359 121.103 489.469 121.583 489.689 121.87C489.909 122.157 490.259 122.3 490.739 122.3C491.226 122.3 491.582 122.167 491.809 121.9C492.036 121.627 492.149 121.183 492.149 120.57C492.149 119.903 492.039 119.427 491.819 119.14C491.599 118.853 491.242 118.71 490.749 118.71ZM497.365 118.05L497.285 118.77L496.145 118.75H495.395L495.355 121.41L495.395 123H494.405L494.455 121.5L494.405 117.97H497.295L497.365 118.05ZM500.143 117.98C500.683 117.98 501.099 118.113 501.393 118.38C501.693 118.64 501.843 119.013 501.843 119.5C501.843 120.073 501.653 120.527 501.273 120.86C500.893 121.187 500.379 121.35 499.733 121.35H499.163V121.41L499.203 123H498.243L498.283 121.5L498.243 117.99L500.143 117.98ZM499.973 120.63C500.546 120.51 500.833 120.16 500.833 119.58C500.833 119.293 500.753 119.08 500.593 118.94C500.433 118.8 500.186 118.723 499.853 118.71L499.203 118.73L499.173 120.61L499.973 120.63ZM506.343 123H505.373L505.243 122.38L505.063 121.83L503.943 121.82L502.943 121.83L502.753 122.33L502.613 123H501.663L503.533 117.99H504.653L506.343 123ZM504.813 121.08L504.103 118.89H504.033L503.223 121.08L504.013 121.09L504.813 121.08ZM512.824 123H511.974L511.874 121.48L511.644 119.44H511.584L510.284 122.47H509.534L508.334 119.44H508.254L508.034 121.39L507.904 123H507.094L507.634 117.99H508.754L508.984 118.73L509.924 121.2H509.994L510.994 118.72L511.244 117.99H512.334L512.824 123ZM519.777 123H518.927L518.827 121.48L518.597 119.44H518.537L517.237 122.47H516.487L515.287 119.44H515.207L514.987 121.39L514.857 123H514.047L514.587 117.99H515.707L515.937 118.73L516.877 121.2H516.947L517.947 118.72L518.197 117.99H519.287L519.777 123ZM521.29 121.5L521.24 118L522.23 117.95L522.17 121.5H522.24L524.59 117.97H525.64L525.59 121.41L525.62 123H524.64L524.69 121.5V119.47H524.61L522.26 123H521.24L521.29 121.5ZM529.234 117.98C529.774 117.98 530.191 118.113 530.484 118.38C530.784 118.64 530.934 119.013 530.934 119.5C530.934 120.073 530.744 120.527 530.364 120.86C529.984 121.187 529.471 121.35 528.824 121.35H528.254V121.41L528.294 123H527.334L527.374 121.5L527.334 117.99L529.234 117.98ZM529.064 120.63C529.638 120.51 529.924 120.16 529.924 119.58C529.924 119.293 529.844 119.08 529.684 118.94C529.524 118.8 529.278 118.723 528.944 118.71L528.294 118.73L528.264 120.61L529.064 120.63ZM534.042 117.92C534.775 117.92 535.342 118.137 535.742 118.57C536.149 118.997 536.352 119.6 536.352 120.38C536.352 121.247 536.135 121.913 535.702 122.38C535.275 122.847 534.665 123.08 533.872 123.08C533.132 123.08 532.562 122.86 532.162 122.42C531.762 121.98 531.562 121.357 531.562 120.55C531.562 119.71 531.775 119.063 532.202 118.61C532.635 118.15 533.249 117.92 534.042 117.92ZM533.952 118.71C533.472 118.71 533.119 118.847 532.892 119.12C532.672 119.387 532.562 119.823 532.562 120.43C532.562 121.103 532.672 121.583 532.892 121.87C533.112 122.157 533.462 122.3 533.942 122.3C534.429 122.3 534.785 122.167 535.012 121.9C535.239 121.627 535.352 121.183 535.352 120.57C535.352 119.903 535.242 119.427 535.022 119.14C534.802 118.853 534.445 118.71 533.952 118.71ZM540.198 120.4C540.918 120.553 541.278 120.947 541.278 121.58C541.278 122.547 540.502 123.03 538.948 123.03C538.475 123.03 538.018 123.02 537.578 123L537.618 121.5L537.578 117.99L539.338 117.98C539.858 117.98 540.265 118.087 540.558 118.3C540.852 118.513 540.998 118.82 540.998 119.22C540.998 119.493 540.928 119.733 540.788 119.94C540.648 120.14 540.452 120.293 540.198 120.4ZM539.998 119.35C539.998 119.117 539.922 118.95 539.768 118.85C539.615 118.75 539.362 118.7 539.008 118.7H538.528L538.508 120.09L539.328 120.12C539.555 120.067 539.722 119.98 539.828 119.86C539.942 119.74 539.998 119.57 539.998 119.35ZM539.098 122.33C539.485 122.33 539.778 122.263 539.978 122.13C540.185 121.997 540.288 121.8 540.288 121.54C540.288 121.333 540.218 121.173 540.078 121.06C539.938 120.94 539.725 120.857 539.438 120.81L538.498 120.82L538.488 121.41L538.508 122.3C538.722 122.32 538.918 122.33 539.098 122.33ZM546.479 123H545.509L545.379 122.38L545.199 121.83L544.079 121.82L543.079 121.83L542.889 122.33L542.749 123H541.799L543.669 117.99H544.789L546.479 123ZM544.949 121.08L544.239 118.89H544.169L543.359 121.08L544.149 121.09L544.949 121.08ZM550.014 118.07L549.954 118.84L548.984 118.77H548.564L548.544 121.41L548.574 123H547.614L547.654 121.5L547.634 118.77H547.224L546.234 118.84L546.164 118.76L546.234 117.99H549.964L550.014 118.07ZM553.029 119.93C553.555 119.93 553.955 120.047 554.229 120.28C554.509 120.513 554.649 120.85 554.649 121.29C554.649 121.823 554.452 122.243 554.059 122.55C553.672 122.85 553.129 123 552.429 123H550.949L550.999 121.5L550.949 117.97H551.939L551.909 119.93H553.029ZM552.719 122.31C553.019 122.27 553.245 122.173 553.399 122.02C553.552 121.867 553.629 121.667 553.629 121.42C553.629 121.167 553.549 120.97 553.389 120.83C553.229 120.683 552.999 120.613 552.699 120.62L551.899 120.64L551.889 121.41L551.909 122.28L552.719 122.31ZM497.021 133.93C497.568 133.93 498.044 134.037 498.451 134.25L498.271 135.1L498.181 135.13C498.014 135.003 497.821 134.903 497.601 134.83C497.388 134.757 497.164 134.72 496.931 134.72C496.011 134.72 495.551 135.293 495.551 136.44C495.551 137.04 495.671 137.497 495.911 137.81C496.151 138.117 496.501 138.27 496.961 138.27C497.188 138.27 497.418 138.233 497.651 138.16C497.884 138.087 498.091 137.987 498.271 137.86L498.371 137.91L498.291 138.76C497.844 138.967 497.384 139.07 496.911 139.07C496.144 139.07 495.558 138.85 495.151 138.41C494.744 137.97 494.541 137.343 494.541 136.53C494.541 135.697 494.754 135.057 495.181 134.61C495.614 134.157 496.228 133.93 497.021 133.93ZM501.718 133.92C502.451 133.92 503.018 134.137 503.418 134.57C503.825 134.997 504.028 135.6 504.028 136.38C504.028 137.247 503.811 137.913 503.378 138.38C502.951 138.847 502.341 139.08 501.548 139.08C500.808 139.08 500.238 138.86 499.838 138.42C499.438 137.98 499.238 137.357 499.238 136.55C499.238 135.71 499.451 135.063 499.878 134.61C500.311 134.15 500.925 133.92 501.718 133.92ZM501.628 134.71C501.148 134.71 500.795 134.847 500.568 135.12C500.348 135.387 500.238 135.823 500.238 136.43C500.238 137.103 500.348 137.583 500.568 137.87C500.788 138.157 501.138 138.3 501.618 138.3C502.105 138.3 502.461 138.167 502.688 137.9C502.915 137.627 503.028 137.183 503.028 136.57C503.028 135.903 502.918 135.427 502.698 135.14C502.478 134.853 502.121 134.71 501.628 134.71ZM507.414 136C507.961 136 508.377 136.117 508.664 136.35C508.951 136.577 509.094 136.907 509.094 137.34C509.094 137.867 508.894 138.277 508.494 138.57C508.094 138.857 507.531 139 506.804 139H505.304L505.354 137.5L505.304 133.97H508.834L508.874 134.05L508.824 134.77L507.494 134.75H506.284L506.264 136H507.414ZM507.114 138.32C507.421 138.28 507.654 138.187 507.814 138.04C507.981 137.893 508.064 137.7 508.064 137.46C508.064 137.207 507.981 137.013 507.814 136.88C507.647 136.74 507.407 136.673 507.094 136.68L506.254 136.69L506.244 137.41L506.264 138.28L507.114 138.32ZM510.451 137.5L510.401 134L511.391 133.95L511.331 137.5H511.401L513.751 133.97H514.801L514.751 137.41L514.781 139H513.801L513.851 137.5V135.47H513.771L511.421 139H510.401L510.451 137.5ZM518.395 133.98C518.935 133.98 519.351 134.113 519.645 134.38C519.945 134.64 520.095 135.013 520.095 135.5C520.095 136.073 519.905 136.527 519.525 136.86C519.145 137.187 518.631 137.35 517.985 137.35H517.415V137.41L517.455 139H516.495L516.535 137.5L516.495 133.99L518.395 133.98ZM518.225 136.63C518.798 136.51 519.085 136.16 519.085 135.58C519.085 135.293 519.005 135.08 518.845 134.94C518.685 134.8 518.438 134.723 518.105 134.71L517.455 134.73L517.425 136.61L518.225 136.63ZM524.595 139H523.625L523.495 138.38L523.315 137.83L522.195 137.82L521.195 137.83L521.005 138.33L520.865 139H519.915L521.785 133.99H522.905L524.595 139ZM523.065 137.08L522.355 134.89H522.285L521.475 137.08L522.265 137.09L523.065 137.08ZM528.816 138.2L528.886 138.27L528.806 139H525.596L525.636 137.5L525.596 133.99H528.836L528.896 134.07L528.826 134.8L527.556 134.75L526.556 134.76L526.536 136.06L527.496 136.07L528.366 136.04L528.416 136.12L528.356 136.86L527.416 136.83L526.526 136.84L526.516 137.41L526.536 138.23L527.466 138.24L528.816 138.2ZM536.554 137.41L536.584 139H530.304L530.354 137.5L530.304 133.97H531.294L531.244 137.41L531.264 138.2H532.984L533.004 137.5L532.954 133.97H533.954L533.904 137.41L533.914 138.2H535.634L535.644 137.5L535.614 133.97H536.594L536.554 137.41ZM540.441 135.93C540.967 135.93 541.367 136.047 541.641 136.28C541.921 136.513 542.061 136.85 542.061 137.29C542.061 137.823 541.864 138.243 541.471 138.55C541.084 138.85 540.541 139 539.841 139H538.361L538.411 137.5L538.361 133.97H539.351L539.321 135.93H540.441ZM540.131 138.31C540.431 138.27 540.657 138.173 540.811 138.02C540.964 137.867 541.041 137.667 541.041 137.42C541.041 137.167 540.961 136.97 540.801 136.83C540.641 136.683 540.411 136.613 540.111 136.62L539.311 136.64L539.301 137.41L539.321 138.28L540.131 138.31ZM545.302 133.93C545.849 133.93 546.325 134.037 546.732 134.25L546.552 135.1L546.462 135.13C546.295 135.003 546.102 134.903 545.882 134.83C545.669 134.757 545.445 134.72 545.212 134.72C544.292 134.72 543.832 135.293 543.832 136.44C543.832 137.04 543.952 137.497 544.192 137.81C544.432 138.117 544.782 138.27 545.242 138.27C545.469 138.27 545.699 138.233 545.932 138.16C546.165 138.087 546.372 137.987 546.552 137.86L546.652 137.91L546.572 138.76C546.125 138.967 545.665 139.07 545.192 139.07C544.425 139.07 543.839 138.85 543.432 138.41C543.025 137.97 542.822 137.343 542.822 136.53C542.822 135.697 543.035 135.057 543.462 134.61C543.895 134.157 544.509 133.93 545.302 133.93ZM551.269 137.5L551.319 139H550.329L550.369 137.41V137.27H549.509C549.236 137.783 548.889 138.36 548.469 139L548.359 139.07C547.999 139.05 547.682 138.987 547.409 138.88L547.399 138.77C547.912 138.17 548.362 137.597 548.749 137.05C548.049 136.737 547.699 136.25 547.699 135.59C547.699 135.27 547.779 134.987 547.939 134.74C548.106 134.493 548.332 134.303 548.619 134.17C548.912 134.03 549.246 133.96 549.619 133.96L551.319 133.97L551.269 137.5ZM550.359 136.5L550.329 134.72L549.679 134.7C549.379 134.707 549.146 134.787 548.979 134.94C548.812 135.087 548.729 135.3 548.729 135.58C548.729 135.833 548.792 136.037 548.919 136.19C549.052 136.343 549.256 136.457 549.529 136.53L550.359 136.5ZM552.688 133.89C553.415 133.93 553.975 134.063 554.368 134.29C554.762 134.517 554.958 134.823 554.958 135.21C554.958 135.43 554.892 135.64 554.758 135.84C554.625 136.04 554.438 136.2 554.198 136.32L553.558 136.68L553.528 136.71L553.558 137.31L552.948 137.4L552.868 137.32L552.798 136.49L552.838 136.39L553.558 135.99C553.892 135.81 554.058 135.59 554.058 135.33C554.058 135.11 553.932 134.94 553.678 134.82C553.425 134.693 553.025 134.617 552.478 134.59L552.408 134.5L552.588 133.95L552.688 133.89ZM553.248 138.05C553.402 138.05 553.522 138.097 553.608 138.19C553.702 138.277 553.748 138.393 553.748 138.54C553.748 138.7 553.698 138.827 553.598 138.92C553.505 139.013 553.378 139.06 553.218 139.06C553.065 139.06 552.945 139.02 552.858 138.94C552.778 138.853 552.738 138.733 552.738 138.58C552.738 138.42 552.785 138.293 552.878 138.2C552.972 138.1 553.095 138.05 553.248 138.05Z" fill="white"/>
<path d="M544.358 186.722C555.858 188.722 559.358 199.722 562.358 201.222C597.858 221.556 670.358 262.922 676.358 265.722C682.358 268.522 685.524 274.889 686.358 277.722C685.358 284.222 683.158 297.822 682.358 300.222C681.358 303.222 673.858 308.222 666.358 312.222C658.858 316.222 618.858 316.722 610.358 317.222C601.858 317.722 562.358 314.722 548.358 312.222C534.358 309.722 516.358 296.722 512.358 292.222C509.158 288.622 504.358 270.722 502.358 262.222L495.358 229.222C494.358 219.889 494.858 199.222 504.858 191.222C517.358 181.222 532.858 184.722 544.358 186.722Z" fill="#F5807A"/>
<path d="M604.857 154.222L607.357 158.722C608.191 159.389 610.058 161.122 610.858 162.722C611.858 164.722 610.358 165.222 609.858 167.222C609.358 169.222 611.358 176.222 611.358 179.222C611.358 182.222 608.858 186.222 608.858 188.222C608.858 190.222 612.358 191.222 617.358 192.722C622.358 194.222 621.358 198.722 622.858 201.722C624.058 204.122 618.691 207.056 615.858 208.222L611.858 210.222L578.858 195.722C571.024 199.722 555.158 207.422 554.358 206.222C553.358 204.722 555.358 199.222 555.358 197.722C555.358 196.222 557.358 190.222 560.358 188.722C562.757 187.522 563.691 189.222 563.858 190.222L565.858 188.722L566.858 186.722H564.857C565.024 186.222 565.557 184.722 566.357 182.722C567.157 180.722 566.691 178.556 566.357 177.722C566.024 176.056 567.257 174.722 566.858 172.722C566.458 170.722 567.691 165.556 568.358 163.222C569.024 160.556 570.858 154.822 572.858 153.222C575.358 151.222 580.358 150.222 583.858 150.222C587.358 150.222 592.357 149.722 595.357 150.222C597.757 150.622 602.691 153.056 604.857 154.222Z" fill="#EBDDAC"/>
<path d="M582.858 211.722L573.358 197.722C574.024 196.722 575.558 194.322 576.358 192.722C577.158 191.122 576.024 184.722 575.358 181.722L590.858 187.222L596.358 196.222C596.191 197.056 595.958 199.122 596.358 200.722C596.758 202.322 597.524 203.056 597.858 203.222L602.858 200.722L605.858 208.722L582.858 211.722Z" fill="#FFEEEE"/>
<path d="M642.358 235.722L644.858 240.222L608.358 268.722L605.858 271.222L602.358 268.722C598.024 265.389 588.358 258.222 584.358 256.222C580.358 254.222 573.024 246.389 569.858 242.722C566.524 237.556 559.358 225.522 557.358 218.722C554.858 210.222 558.358 200.222 559.858 195.222C561.058 191.222 565.024 193.556 566.858 195.222H573.358C574.524 197.889 577.558 203.922 580.358 206.722C583.158 209.522 588.858 209.889 591.358 209.722C593.191 209.556 597.658 208.922 600.858 207.722C604.058 206.522 603.191 202.222 602.358 200.222L611.858 204.722L621.358 212.722V218.722L625.858 224.722L633.358 231.222L642.358 235.722Z" fill="#C86B6B"/>
<path d="M643.358 218.222L621.358 212.222L622.858 211.222C624.358 211.222 628.158 211.122 631.358 210.722C635.358 210.222 637.858 209.722 640.358 209.722C642.858 209.722 644.358 212.722 644.358 211.722C644.358 210.722 647.358 208.722 649.358 208.222C650.958 207.822 655.691 209.056 657.858 209.722L659.858 208.222L660.858 209.722L643.358 218.222Z" fill="#F0F0F0"/>
<path d="M622.358 238.222H602.358L618.358 212.222L640.358 213.222L622.358 238.222Z" fill="#C4C4C4"/>
<path d="M580.858 194.222C578.858 192.222 576.691 187.056 575.858 184.722L596.358 197.222C595.191 198.056 595.158 200.122 592.358 199.722C588.858 199.222 583.358 196.722 580.858 194.222Z" fill="#EAC3C3"/>
<path d="M552.358 255.222L553.655 259.115C554.031 260.241 555.299 260.794 556.38 260.303L565.358 256.222L574.358 254.222L596.858 245.222C598.358 245.889 599.784 245.759 600.858 245.222C601.858 244.722 602.358 244.722 602.858 244.222L605.858 242.722L610.358 241.222C611.024 240.222 612.458 238.022 612.858 237.222C613.258 236.422 612.691 234.556 612.358 233.722L613.858 232.722L614.358 229.722L611.858 228.722C610.358 228.389 606.858 227.622 604.858 227.222C602.858 226.822 601.358 229.056 600.858 230.222L596.358 238.222C589.524 238.389 575.758 238.722 575.358 238.722C574.958 238.722 570.191 238.056 567.858 237.722L565.858 237.222L553.858 242.722L551.358 249.722L552.358 255.222Z" fill="#FFEEEE"/>
<path d="M554.358 207.222L560.358 194.222L566.858 201.722L569.358 214.222V228.222L567.858 237.722L564.858 238.722L558.858 241.222L553.358 244.722L551.358 249.722L550.358 247.222L549.358 237.722C549.858 232.222 550.958 220.622 551.358 218.222C551.758 215.822 553.524 209.889 554.358 207.222Z" fill="#935454"/>
<path d="M617.358 277.222L604.358 266.722L613.358 250.222L624.858 247.722L633.358 240.222H642.858L648.858 244.722V250.222L638.358 257.722L633.358 266.722L628.858 270.722L624.858 279.722V284.222L617.358 277.222Z" fill="#E1E1E1"/>
<path d="M728.283 285.982L730.121 279.993L740.898 277.791L746.097 278.26L754.736 280.577L760.125 279.476L769.923 277.475L774.932 279.513L775.532 282.453L760.457 288.595L749.1 292.956L733.424 296.159L729.484 291.86L728.283 285.982Z" fill="#DF6A64"/>
<path d="M701.544 253.946C697.92 249.819 696.821 246.348 696.724 245.129L707.624 229.627C709.848 232.653 714.992 239.978 717.777 245.072C721.258 251.44 729.001 262.477 734.163 269.835C737.029 273.921 739.429 276.751 740.984 278.401C741.78 279.245 741.826 280.608 741 281.423C739.655 282.75 738.107 284.221 737.615 284.49C736.913 284.874 733.862 285.269 732.425 285.419L726.653 279.03C723.698 276.404 717.149 270.61 714.597 268.442C711.406 265.733 706.073 259.105 701.544 253.946Z" fill="#EAC3C3"/>
<path d="M721.858 288.722L724.858 283.222H735.858L740.858 284.722L748.858 288.722H754.358H764.358L768.858 291.722V294.722L752.858 297.722L740.858 299.722H724.858L721.858 294.722V288.722Z" fill="#F5807A"/>
<path d="M651.358 244.222L645.858 251.722H647.858H659.358L669.358 244.222L679.358 233.222L697.358 212.222L694.358 209.722H689.358L669.358 227.722L651.358 244.222Z" fill="#3683C7"/>
<path d="M712.858 245.722C711.658 240.922 712.358 237.722 712.858 236.722L729.858 229.222C730.358 232.556 731.358 240.522 731.358 245.722C731.358 252.222 732.858 264.222 733.858 272.222C734.658 278.622 735.858 282.556 736.358 283.722C734.524 284.222 730.658 285.222 729.858 285.222C729.058 285.222 726.191 284.222 724.858 283.722L722.858 276.222C721.524 272.889 718.558 265.522 717.358 262.722C715.858 259.222 714.358 251.722 712.858 245.722Z" fill="#FFEEEE"/>
<path d="M626.858 274.222C625.658 277.022 625.024 281.056 624.858 282.722L636.858 286.222C639.191 286.889 645.158 288.422 650.358 289.222C656.858 290.222 662.858 289.222 666.858 288.222C670.858 287.222 674.858 285.722 677.358 282.722C679.358 280.322 685.524 270.056 688.358 265.222L700.358 247.722C702.524 243.556 707.158 234.722 708.358 232.722C709.558 230.722 713.191 228.222 714.858 227.222C712.426 228.742 711.119 231.553 711.525 234.392L711.858 236.722L726.358 232.722L731.358 230.753C731.744 230.601 731.997 230.225 731.991 229.81L731.858 219.222V210.722C731.524 209.556 730.558 206.422 729.358 203.222C726.958 201.222 722.691 200.722 720.858 200.722L710.358 203.222L697.858 210.722L685.358 226.222L666.858 245.722L659.358 250.722L653.358 251.722H645.858L640.858 255.222L636.858 257.722L634.358 262.722C632.358 265.389 628.058 271.422 626.858 274.222Z" fill="#6EB6F5"/>
<path d="M640.358 213.222L622.358 238.222L623.858 242.222L642.858 215.722L640.358 213.222Z" fill="#7C6D6D"/>
<path d="M645.358 236.222L623.858 242.222L642.858 215.722L662.858 209.222L645.358 236.222Z" fill="#C4C4C4"/>
<path d="M607.358 176.222C607.358 187.544 606.023 197.222 596.358 197.222C586.693 197.222 573.358 187.544 573.358 176.222C573.358 164.9 582.193 155.722 591.858 155.722C601.523 155.722 607.358 164.9 607.358 176.222Z" fill="#FFEEEE"/>
<path d="M601.358 162.222L599.358 164.722C597.691 163.889 593.858 162.222 591.858 162.222C589.858 162.222 587.024 163.222 585.858 163.722L584.858 168.222C584.524 168.722 583.358 170.222 581.358 172.222C580.558 172.622 578.358 173.389 577.358 173.722L578.358 183.222L574.858 182.222L571.358 179.222L569.858 169.222L570.858 163.722L577.358 155.222L590.858 151.722L605.358 157.222V162.722L601.358 162.222Z" fill="#EBDDAC"/>
</g>
<defs>
<clipPath id="clip0_210_14">
<rect width="777" height="317" fill="white"/>
</clipPath>
</defs>
</svg>
