<svg width="800" height="800" viewBox="0 0 800 800" fill="none" xmlns="http://www.w3.org/2000/svg">
<path d="M480.5 354L475.5 351L291 371.5L284 370.5L278.5 370L274 371.5C272.833 371.667 270.3 372 269.5 372H265.5L262 370.5L258 368.5L246.5 370L242 368H229.5H223.5L220 366H216L213.5 373L207.5 375L196 381.5L190 388.5L182.5 404.5L174.5 420.5L168 436L160.5 451V460.5L150 485L144 499.5L136.5 521L133 529.5L127.5 537L121 545.5L119 553L117.5 558.5L111 567V572.5V585.5V591L113 597L117.5 604L615 654.5L621.5 652L627.5 647L635.5 640L645 630L647 621.5L649 612.5L647 599.5L645 592.5L643 585L641 578.5L638 572L637 566.5L634 560L632.5 549L631.5 543.5L626.5 522L623 503L620 488L615 468L613 458L610 448L608 434.5L605.5 422L604.5 410L588 397L575 389L562.5 386.5L545.5 383L536 381H516H501.5L493 372.5L485.5 361L480.5 354Z" fill="#F5F5F5"/>
<path d="M617.5 588C612.7 586.4 607.167 587.333 605 588L578.5 612.5L510.5 626H489.5L456 625.5H441.5L410 621L369 613L337.5 604.5L309.739 595L295.5 594H287.5L274.5 597L259 600L246 601L229 604L221 606L216.5 609L207 617L204.5 632.5L246 656L351 701.5L399.5 728.5L425 734L439 739L447.5 744.5L459.5 747L484 750C490.667 750.833 504.3 752.5 505.5 752.5H522L546 747H553.5L556 750H563.5L570.5 747L578.5 741.5L588 733.5L597 721L604.5 703.5L612 684.5L615.5 658L617.5 646L619 619V602.5C619 599.667 618.7 592.8 617.5 588Z" fill="#F5DDDD"/>
<path d="M216.5 600V611.5L211 626L227.5 632L239.5 636L260 643.5L284 654.5L307 665.5L329 677.5L351 692.5L383 708C393.5 715 415.2 729 418 729C420.8 729 433.167 735.667 439 739L409.5 742H383L355 747H329H304L265.5 742L252 739L232 733L211 729L150.5 712.5L134.5 708L123.5 703L119 695.5L115 669L112 649L115 617L119 596L123.5 574.5L129 558.5H139.5H161L183 567L199.5 574.5L211 584.5L216.5 600Z" fill="#F0D7D7"/>
<path d="M499.5 615L489.5 626L507 629L518 631L535 633L549.5 634.5H562L571 631L575 629L577.5 624.5V622.5L576 619H580L587.5 617.5L595 613L601.5 608.5L604.775 603.5L606.5 600L605.5 597L604.775 595L606.5 593.5L607.5 591V589L605.5 587.5H598L581.5 584.5L574 587.5L562 591L545 594.5H537.5L540.5 591L551 584.5L564.5 575L571 569V562H567H559.5L548.5 566.5L535 575L520 584.5L511.5 594.5L499.5 615Z" fill="#F0D7D7"/>
<path d="M477.5 352L479 347.5L492.5 342L496.5 330L494.5 316L479 297.5L456.5 286L418.5 281.5L347.5 286L335.5 287L318.5 297.5L300.5 312.5L291.5 353.5L290 365V376L291.5 398L293 406L303 419L313.5 429.5L325.5 446L338.5 462.5L349.5 474.5L359 482L371.5 492.5L384.5 482L406 467.5L418 458L432.5 448L445 436.5L454.5 426L462.5 411.5L466.5 399.5L470 388.5L472.5 379.5L474.5 374.5L476.5 368V356L477.5 352Z" fill="#F75C55"/>
<path d="M459 292L455 296.5L342.5 289L338.5 291L335 292L333.5 297.5L331 299.5L326 302.5L322.5 309V314.5H314.5L310 317.5L303 322.5L298.5 330V343L297.5 348.5L293.5 357L290.5 362L289.5 366L287.5 368L283.5 370.5L285 367L287.5 363L286.5 359.5L283.5 363L282.5 364L285 358V350L283.5 347L282.5 339L281 329L279 316L277 309L276 299.5L277 289L275 273.5L273.5 261V254L277 247.5V236.5L278 223.5L281.5 217.5L280.5 212V202.5L282.5 195L286 187.5L288.5 181L281.5 183L275 186.5L269 192.5L272.5 186.5L279 179.5L285 176.5L290 170.5V166H288.5L285 168.5L280.5 170.5L286 164L288.5 157L293 148L299 135V131V121L304.5 107L310 98L315.5 90.5L324.5 88.5L329 81.5L334.5 74.5L341.5 67L354.5 60C359.167 59 368.7 56.9 369.5 56.5C370.3 56.1 375.5 54.6667 378 54H393L398.5 51.5L406 47H416.5L427 48.5L438 54L445 60L451.5 67.5L455 80L457 83.5L464 85.5L474 97L482.5 107.5L493 125L500.5 140L508.5 152L512 168.5L513.5 181L515.5 186.5L518.5 201.5V220L522 227.5L525.5 245L527 252.5L528 263L527 279.5L525.5 289.5V306V317L522 326.5L517 335L510 340.5H506L510 337L515.5 330.5L518.5 324V317L517 311.5L515 318L511 325.5L504 337L498 344.5L493.5 347.5H487H479L481 343L490.5 335L492.5 330L491.5 322.5L487 315L475 302.5L467 296L461.5 292H459Z" fill="#F59149"/>
<path d="M461 271.5L470 242.5L467.5 236.5L341.5 283.5V294L344.5 300.5L350.5 309L359 312.5L378 317.5H399L416.5 316L429.5 314.5L442 304L455 297L461 271.5Z" fill="#DEC3C3"/>
<path d="M326.5 165L330 143L338 124L346.5 111.5L357 104.5L368.5 101.5L377.5 100L390.5 94L404.5 92L419 94L426.5 96L430.5 101.5L438.5 106L448 116L455 128.5L461.5 145L462.5 160.5L471.5 171.5L475 180L476.5 193L483 190.5L487.5 189.5L494 191.5L498.5 198.5L499.5 206.5L498.5 220.5L491.5 238.5L483.5 244.5L476.5 246L470.5 244.5L467.5 238.5L465 242.5L457 261.5L449 273.5L434 289.5L421 302.5L403 311L386.5 314H375.5L363.5 311L352 304L340.5 287L328.5 269.5L320.5 253L318.5 241V189L320.5 183L322.5 176L326.5 165Z" fill="#F5DDDD"/>
</svg>
