<svg width="100" height="100" viewBox="0 0 100 100" fill="none" xmlns="http://www.w3.org/2000/svg">
<g clip-path="url(#clip0_472_10)">
<rect width="100" height="100" fill="#E84855"/>
<path d="M-3.20591 109.182L-1.69335 104.846C-0.247734 101.751 -0.247734 101.954 0.234141 100.991C0.819138 99.8207 18.9057 104.447 19.0272 107.737L4.9954 122.563L1.69548 125.453L-3.20591 128.674C-3.88127 128.997 -5.44552 129.688 -6.29963 129.864C-7.15375 130.04 -9.80196 127.27 -11.0193 125.863C-11.6664 124.523 -13.2615 121.463 -14.4651 119.942C-15.6687 118.422 -20.2082 110.075 -22.3274 106.091L-28.0545 91.7997L-32.1433 85.459L-36.2077 84.6388L-42.4074 84.2585L-47.8549 84.8284L-54.1638 83.9181L-57.0513 83.4079L-57.4881 81.2878L-57.9372 76.4073L-57.6218 75.2373L-57.4156 73.5371L-57.2094 71.837L-57.5371 70.2469L-57.3309 68.5467L-55.511 69.2769L-55.1956 68.1068L-53.3757 68.8369L-52.1866 71.9072L-51.4221 75.6175L-51.0779 77.2883C-50.9664 77.8292 -50.4376 78.1774 -49.8966 78.0659L-49.2746 77.9378L-49.0684 76.2377L-49.5053 74.1175L-50.4882 69.347C-50.8376 67.6509 -48.9918 69.4071 -48.0252 70.4972L-46.8361 73.5675L-46.2735 76.2984C-46.162 76.8393 -45.6332 77.1875 -45.0922 77.076L-43.9364 76.8379L-39.132 75.848L-32.1923 74.4181C-29.6299 73.8902 -27.2746 74.8783 -26.4172 75.4384L-23.8451 77.1186L-21.6853 82.1991L-19.9624 85.1594L-15.4489 90.8601L-13.6168 94.3504C-12.3954 96.6773 -9.3095 101.751 -9.3095 101.751C-9.3095 101.751 -8.30088 102.578 -7.47583 103.882L-4.7104 107.282L-3.63052 109.823L-3.20591 109.182Z" fill="#FFEEEE"/>
<path d="M104.926 101.698L103 99.2843L95.2963 100.732L90 107.007L91.4444 110.868L93.3704 114.729L96.2593 119.073L99.6296 122.451L103 128.243L105.889 132.104L107.815 135L112.148 133.552L117.444 130.174L122.741 125.83L127.074 120.521L128.519 116.177L129.481 112.798L130.444 111.35L132.852 108.937L133.815 107.972L135.741 106.524L138.148 105.076L139.593 102.18L141.037 99.7669L142.963 97.3537L145.852 94.9404L151.148 91.562L155 90.114L153.074 89.1487H151.63L148.259 90.114L145.852 91.0792L142.963 93.0099L142.481 91.0792V87.2181V83.3569L141.037 84.3222L139.593 86.7355L139.111 91.562L138.63 94.4578H138.148L136.704 93.9751L134.778 91.562L133.815 90.114L134.296 89.1487L135.259 86.7355L136.222 85.2875L137.185 83.3569C137.346 83.0352 137.57 82.1986 137.185 81.4264C136.8 80.6542 135.741 81.1046 135.259 81.4264L133.333 82.8743L130.926 86.7355L129.481 90.114L128.519 91.562L127.074 93.0099L125.148 95.9058L124.667 97.3537V99.7669V101.698L124.185 104.111L121.778 105.559L118.889 106.524L116 107.972L113.593 109.42L112.148 108.937L109.741 106.524L104.926 101.698Z" fill="#FFEEEE"/>
<path d="M42.5 15H46H50L53.5 16L59.5 18.5L63.5 22L68 28.5L69.5 33C69.8333 34.5 70.6 37.6 71 38C71.4 38.4 72.8333 42.1667 73.5 44L75.5 48.5L76 54.5V62L74.5 70L72.5 75L30.5 70C29.3333 68.8333 27 66.4 27 66C27 65.6 24.3333 62.5 23 61L20.5 50.5V44L22.5 36.5L25 28.5L28 22L36 17L42.5 15Z" fill="#EBDDAC"/>
<path d="M29 67H26V87.5L32.5 111L44 115L69 117L81.5 115L83.5 107L81.5 85L74.5 71.5L72.5 71L67.5 69.5L61 67.5L61.5 69.5L62 73L61 76L59.5 78.5L55 80H50L47 79L41 74.5L38 70.5L35 66L32.5 66.5L29 67Z" fill="#C86B6B"/>
<path d="M35 123L41.5 123.5L61.5 120L65 118.5L65.5 117V114L65 112L63 110H52.5L45 109.5L43.5 108L42 107L39.5 101.5L37 96.5L34.5 91L33 86.5L32.5 83L32 78.5L29.5 70.5L26 67H23L19.5 70L17.5 75.5L17 85L18.5 92.5L20.5 99.5L23 104.5L28.5 111.5L33 118.5L35 123Z" fill="#935454"/>
<path d="M66.5 124V128H71.5L76.5 127.5L84.5 124.5L88 123.5L89.5 123V115.5V112.5L88.5 104L86.5 94C86 92 85 87.7 85 86.5C85 85 84 80.5 83.5 79C83.1 77.8 80.6667 74.8333 79.5 73.5L77 71.5L73 71L73.5 71.5L75.5 75.5L77 79.5V83L78 91.5C78.3333 92.3333 79.1 94.4 79.5 96C79.9 97.6 79.3333 102 79 104L78 108L77.5 110L77 111.5L72 114.5L66.5 117.5L62 119L63 119.5L65 121L66.5 124Z" fill="#935454"/>
<path d="M41 65.5V63L56 56.5V60.5L55.5 66L57 66.5L61 67.5L62.5 71L63 78L53 81.5L45.5 79.5L40.5 77L35.5 70L35 66H37.5L41 65.5Z" fill="#FFEEEE"/>
<path d="M54.2484 60.0032L56 56.5L41.8749 63.0917C41.3956 63.3154 41.1952 63.8905 41.4318 64.3636C41.477 64.4539 41.5364 64.5364 41.6078 64.6078L42.5549 65.5549C42.8497 65.8497 43.1901 66.095 43.563 66.2815C44.4831 66.7415 45.5483 66.8172 46.5242 66.4919L47.0971 66.301C47.6943 66.1019 48.2516 65.7987 48.7432 65.4054L50.5 64L52.2144 62.5713C53.0623 61.8647 53.7548 60.9904 54.2484 60.0032Z" fill="#EAC3C3"/>
<path d="M63.5 40.5C63.5 53.2025 50.7696 64 40 64C34.5 64 29 54 26 40.5C26 27.7975 33.2304 17.5 44 17.5C54.7696 17.5 63.5 27.7975 63.5 40.5Z" fill="#FFEEEE"/>
<path d="M30.5 31.5C30.9 30.7 33.6667 28.1667 35 27C35.3333 28.1667 36.1 30.7 36.5 31.5C37 32.5 38.5 34.5 39.5 35.5C40.3 36.3 43.8333 39.5 45.5 41L48 43.5L51 47L55.5 54.5L59 60.5L64 59.5L67.5 57L66.5 45.5L68.5 38.5L65 32.5L62.5 27L59.5 25.5L53 18L46 17.5L37.5 18L30.5 23L24.5 32.5V39.5L29 53.5L28 49.5C27.8333 47.5 27.5 43.4 27.5 43C27.5 42.6 27.8333 39.8333 28 38.5C28.6667 36.5 30.1 32.3 30.5 31.5Z" fill="#EBDDAC"/>
</g>
<defs>
<clipPath id="clip0_472_10">
<rect width="100" height="100" fill="white"/>
</clipPath>
</defs>
</svg>
