<svg width="74" height="72" viewBox="0 0 74 72" fill="none" xmlns="http://www.w3.org/2000/svg">
<circle cx="36" cy="36" r="34.35" stroke="url(#paint0_linear_301_14)" stroke-width="3.3"/>
<path d="M20.91 24.7C22.97 24.7 24.82 25.17 26.46 26.11C28.12 27.03 29.42 28.31 30.36 29.95C31.3 31.59 31.77 33.44 31.77 35.5C31.77 37.56 31.3 39.41 30.36 41.05C29.42 42.69 28.12 43.98 26.46 44.92C24.82 45.84 22.97 46.3 20.91 46.3C19.03 46.3 17.31 45.91 15.75 45.13C14.21 44.35 12.94 43.26 11.94 41.86C10.96 40.46 10.35 38.87 10.11 37.09H6.81V46H2.97V25H6.81V33.61H10.17C10.45 31.87 11.08 30.33 12.06 28.99C13.06 27.63 14.32 26.58 15.84 25.84C17.38 25.08 19.07 24.7 20.91 24.7ZM20.91 42.88C22.21 42.88 23.39 42.57 24.45 41.95C25.51 41.33 26.34 40.46 26.94 39.34C27.54 38.22 27.84 36.94 27.84 35.5C27.84 34.06 27.54 32.78 26.94 31.66C26.34 30.54 25.51 29.67 24.45 29.05C23.39 28.43 22.21 28.12 20.91 28.12C19.61 28.12 18.43 28.43 17.37 29.05C16.33 29.67 15.5 30.54 14.88 31.66C14.28 32.78 13.98 34.06 13.98 35.5C13.98 36.94 14.28 38.22 14.88 39.34C15.5 40.46 16.33 41.33 17.37 41.95C18.43 42.57 19.61 42.88 20.91 42.88Z" fill="black"/>
<path d="M70.97 25V46H67.22V43.33C65.8 45.31 63.6 46.3 60.62 46.3C58.14 46.3 56.19 45.53 54.77 43.99C53.35 42.43 52.64 40.23 52.64 37.39V25H56.54V37.24C56.54 39.1 56.98 40.51 57.86 41.47C58.76 42.41 59.99 42.88 61.55 42.88C63.23 42.88 64.57 42.38 65.57 41.38C66.57 40.36 67.07 38.85 67.07 36.85V25H70.97Z" fill="black"/>
<circle cx="21.5" cy="56.5" r="4.5" fill="#6EB6F5"/>
<circle cx="17" cy="11" r="9" fill="#6EB6F5"/>
<circle cx="48" cy="56" r="12" fill="#6EB6F5"/>
<circle cx="52.5" cy="18.5" r="4.5" fill="#6EB6F5"/>
<circle cx="72" cy="40" r="2" fill="#6EB6F5"/>
<circle cx="36.5" cy="6.5" r="1.5" fill="#6EB6F5"/>
<circle cx="18.5" cy="70.5" r="1.5" fill="#6EB6F5"/>
<defs>
<linearGradient id="paint0_linear_301_14" x1="36" y1="0" x2="36" y2="72" gradientUnits="userSpaceOnUse">
<stop offset="0.273661"/>
<stop offset="0.273761" stop-opacity="0"/>
<stop offset="0.726713" stop-opacity="0"/>
<stop offset="0.726813"/>
</linearGradient>
</defs>
</svg>
