<svg width="100" height="100" viewBox="0 0 100 100" fill="none" xmlns="http://www.w3.org/2000/svg">
<g clip-path="url(#clip0_327_17)">
<rect width="100" height="100" fill="#1865A9"/>
<path d="M-3.20591 109.182L-1.69335 104.846C-0.247734 101.751 -0.247734 101.954 0.234141 100.991C0.819138 99.8207 18.9057 104.447 19.0272 107.737L4.9954 122.563L1.69548 125.453L-3.20591 128.674C-3.88127 128.997 -5.44552 129.688 -6.29963 129.864C-7.15375 130.04 -9.80196 127.27 -11.0193 125.863C-11.6664 124.523 -13.2615 121.463 -14.4651 119.942C-15.6687 118.422 -20.2082 110.075 -22.3274 106.091L-28.0545 91.7997L-32.1433 85.459L-36.2077 84.6388L-42.4074 84.2585L-47.8549 84.8284L-54.1638 83.9181L-57.0513 83.4079L-57.4881 81.2878L-57.9372 76.4073L-57.6218 75.2373L-57.4156 73.5371L-57.2094 71.837L-57.5371 70.2469L-57.3309 68.5467L-55.511 69.2769L-55.1956 68.1068L-53.3757 68.8369L-52.1866 71.9072L-51.4221 75.6175L-51.0779 77.2883C-50.9664 77.8292 -50.4376 78.1774 -49.8966 78.0659L-49.2746 77.9378L-49.0684 76.2377L-49.5053 74.1175L-50.4882 69.347C-50.8376 67.6509 -48.9918 69.4071 -48.0252 70.4972L-46.8361 73.5675L-46.2735 76.2984C-46.162 76.8393 -45.6332 77.1875 -45.0922 77.076L-43.9364 76.8379L-39.132 75.848L-32.1923 74.4181C-29.6299 73.8902 -27.2746 74.8783 -26.4172 75.4384L-23.8451 77.1186L-21.6853 82.1991L-19.9624 85.1594L-15.4489 90.8601L-13.6168 94.3504C-12.3954 96.6773 -9.3095 101.751 -9.3095 101.751C-9.3095 101.751 -8.30088 102.578 -7.47583 103.882L-4.7104 107.282L-3.63052 109.823L-3.20591 109.182Z" fill="#FFEEEE"/>
<path d="M104.926 101.698L103 99.2843L95.2963 100.732L90 107.007L91.4444 110.868L93.3704 114.729L96.2593 119.073L99.6296 122.451L103 128.243L105.889 132.104L107.815 135L112.148 133.552L117.444 130.174L122.741 125.83L127.074 120.521L128.519 116.177L129.481 112.798L130.444 111.35L132.852 108.937L133.815 107.972L135.741 106.524L138.148 105.076L139.593 102.18L141.037 99.7669L142.963 97.3537L145.852 94.9404L151.148 91.562L155 90.114L153.074 89.1487H151.63L148.259 90.114L145.852 91.0792L142.963 93.0099L142.481 91.0792V87.2181V83.3569L141.037 84.3222L139.593 86.7355L139.111 91.562L138.63 94.4578H138.148L136.704 93.9751L134.778 91.562L133.815 90.114L134.296 89.1487L135.259 86.7355L136.222 85.2875L137.185 83.3569C137.346 83.0352 137.57 82.1986 137.185 81.4264C136.8 80.6542 135.741 81.1046 135.259 81.4264L133.333 82.8743L130.926 86.7355L129.481 90.114L128.519 91.562L127.074 93.0099L125.148 95.9058L124.667 97.3537V99.7669V101.698L124.185 104.111L121.778 105.559L118.889 106.524L116 107.972L113.593 109.42L112.148 108.937L109.741 106.524L104.926 101.698Z" fill="#FFEEEE"/>
<path d="M45.28 66.3284L44.32 62.5075L60.16 52V54.8657V60.597V63.4627L62.56 66.3284L64 67.7612L62.56 71.1045L56.8 78.2687L51.52 82.0896L45.28 84L41.92 82.0896L40 75.8806V71.1045L41.92 67.7612L45.28 66.3284Z" fill="#FFEEEE"/>
<path d="M19.2857 76.3981L27 73L24.1071 102.126L19.2857 107.951L16.3929 115.233L12.5357 121.544L8.19643 123L10.125 121.544V119.117L8.19643 113.291C7.71429 111.511 6.75 107.466 6.75 105.524C6.75 103.583 2.25 101.803 0 101.155L2.41071 98.2427L6.75 91.932L12.5357 87.0777L17.3571 80.767L19.2857 76.3981Z" fill="#FED89B"/>
<path d="M40.5094 70.3349L41.478 67.445L31.7925 70.3349L26.9497 72.7431L21.1384 83.3394L17.7484 91.5275L18.2327 101.642V118.982L17.7484 128.615V137.284L15.327 149.326L12.4214 159.44L10 164.257L13.8742 168.592H24.5283L35.6667 171L49.7107 168.592H66.1761L77.7987 167.147L79.2516 162.33V158.477L73.4403 142.583V128.615L77.7987 118.018L82.1572 107.422V95.3807L80.7044 80.9312L87 73.7064L79.2516 70.3349L64.7233 66.4817L63.2704 66L62.7862 66.4817L63.7547 67.445L61.8176 68.4083L58.9119 70.3349L52.1321 73.7064H46.805L41.478 72.7431L40.5094 70.3349Z" fill="#F5B349"/>
<path d="M90.2105 76.9142L86.8947 74L80.7368 76.9142L76 90.5138V101.199L80.7368 106.542L84.5263 108.97L86.8947 112.37C88 114.313 92.5993 119.233 92.1053 117.713C91.906 117.1 91.7067 116.573 91.4722 116.06C90.8027 114.594 90.5577 112.937 91.1432 111.436L92.1053 108.97C92.7368 107.675 94.6632 104.599 97.3158 102.656C99.9684 100.714 102.211 99.5802 103 99.2564L101.105 96.3422L97.3158 90.5138L92.1053 82.7426L90.2105 76.9142Z" fill="#FED89B"/>
<path d="M57.125 57.8L59 53L44 62.6L45.875 65H48.6875L53.375 62.6L57.125 57.8Z" fill="#EAC3C3"/>
<path d="M32.25 45L34 33.8966L32.25 31H30.0625L27.875 34.8621L27 37.2759L28.75 42.5862L32.25 45Z" fill="#613636"/>
<path d="M64 44.5C61.4194 55.7895 51.6129 61.9474 42.8387 64C35.6129 62.4605 34.0645 56.3026 32 44.5C32 33.447 33.4321 25 42.8387 25C52.2454 25 64 33.447 64 44.5Z" fill="#FFEEEE"/>
<path d="M33.5342 34.7123H38.0959L40.6301 30.6575H45.6986H50.7671L54.3151 34.7123L56.3425 39.274L57.863 41.3014L59.8904 42.8219V49.9178V51.9452L60.9041 52.9589L61.9178 56L63.9452 54.4795L65.4658 51.9452L66.4795 49.9178V46.8767L68 44.8493V41.3014L66.4795 37.2466V32.6849V30.6575L65.4658 28.6301L63.9452 24.5753L61.9178 22.5479H57.863L56.3425 20.5205L54.3151 19H50.7671L45.6986 20.5205L42.6575 21.5342H38.0959L34.5479 24.5753L31 28.6301V32.6849L33.5342 34.7123Z" fill="#613636"/>
<path d="M39.5405 65.2985L41.7027 67.4478L43.3243 69.0597L42.7838 72.2836H48.1892L56.2973 70.1343L60.6216 67.4478L66.5676 63.1493L73.5946 61L76.8378 63.6866L81.7027 62.6119L84.9459 65.2985L86.027 65.8358H89.2703L93.5946 68.5224L97.3784 73.8955L99 80.8806V83.0299L95.0795 87.5263L92.672 84.1045L92.1904 83.2632L90.2644 77.5789L86.027 75.2105L76.8378 81.9552L67.1081 87.8657L63.3243 91.6269L58.4595 93.7761L48.1892 97L40.0811 95.9254L30.8919 93.7761L24.9459 91.6269L19.5405 84.1045L19 75.5075L22.2432 66.9104H29.8108L32.5135 65.8358L36.2973 68.5224L39.5405 65.2985Z" fill="#F75C55"/>
</g>
<defs>
<clipPath id="clip0_327_17">
<rect width="100" height="100" fill="white"/>
</clipPath>
</defs>
</svg>
