<svg width="304" height="339" viewBox="0 0 304 339" fill="none" xmlns="http://www.w3.org/2000/svg">
<path d="M86.6658 0H82.9451H78.6929L74.9721 1.06667L68.5938 3.73333L64.3415 7.46667L59.5577 14.4L57.9631 19.2C57.6088 20.8 56.7938 24.1067 56.3685 24.5333C55.9433 24.96 54.4196 28.9778 53.7109 30.9333L51.5848 35.7333L51.0532 42.1333V50.1333L52.6478 58.6667L54.7739 64L99.4226 58.6667C100.663 57.4222 103.143 54.8267 103.143 54.4C103.143 53.9733 105.978 50.6667 107.396 49.0667L110.053 37.8667V30.9333L107.927 22.9333L105.269 14.4L102.08 7.46667L93.5757 2.13333L86.6658 0Z" fill="#EBDDAC"/>
<path d="M101.818 56.0588H105.053V77.7647L98.0445 102.647L85.6445 106.882L58.688 109L45.2097 106.882L43.0532 98.4118L45.2097 75.1176L52.7576 60.8235L54.9141 60.2941L60.3054 58.7059L67.3141 56.5882L66.775 58.7059L66.2358 62.4118L67.3141 65.5882L68.9315 68.2353L73.7837 69.8235H79.175L82.4097 68.7647L88.8793 64L92.1141 59.7647L95.3489 55L98.0445 55.5294L101.818 56.0588Z" fill="#C86B6B"/>
<path d="M125.412 336.355L128.053 334.24L126.997 327.893L125.412 324.19L124.355 320.488L121.185 312.025V307.793L119.6 299.86V283.992L122.242 276.058L121.185 275L118.544 276.058L116.431 275L108.506 276.058L107.449 278.174H104.28L102.166 277.116V276.058H101.11L100.053 278.174L105.336 296.157L106.393 304.62V312.025V320.488V327.893L105.336 331.066V334.24L106.393 336.355L112.732 339H119.6L125.412 336.355Z" fill="#613636"/>
<path d="M58.0532 276.602L56.3936 275V277.136L54.7341 278.737H51.9681L48.649 277.669H43.6702L42.0107 278.737H40.9043L39.7979 277.136V275L38.1383 276.602V278.737L40.9043 289.415L42.0107 297.958L41.4575 307.034L40.9043 308.636V313.441L36.4788 321.983L33.7128 326.254L33.1596 329.458L32.0532 331.593V335.331L36.4788 338H44.7766L50.8617 336.932L56.3936 333.195V331.593L57.5 327.322V325.186V316.644L56.3936 312.373L58.0532 276.602Z" fill="#613636"/>
<path d="M102.584 279.861L100.991 276.119L100.459 272.911L99.9282 270.772L100.459 268.634V265.96C100.105 263.644 99.2907 258.689 98.8657 257.406C98.4407 256.123 95.8553 250.099 94.6157 247.248L90.897 238.158V234.951L89.8345 233.347V230.673L88.772 229.604L88.2407 228.535L86.1157 225.861C85.9386 225.149 85.5845 223.509 85.5845 222.653C85.5845 221.798 78.5011 210.535 74.9595 205.01C71.5949 198.772 64.547 185.869 63.272 184.158C61.997 182.448 58.8449 174.178 57.4282 170.257L55.3032 168.653L52.647 170.257L51.5845 178.812L50.522 188.436C50.8761 191.287 51.6907 197.418 52.1157 199.129C52.5407 200.84 53.0011 209.465 53.1782 213.564V225.327L54.2407 227.465L52.647 229.604L53.1782 232.812V237.624L53.7095 244.04V255.802L54.2407 266.495L54.772 269.168L55.3032 272.376L55.8345 277.188L56.3657 278.257L54.2407 280.931L46.8032 282L39.3657 279.327L39.897 275.05L38.3032 272.911V269.703L36.1782 267.03V261.683L30.8657 244.574L31.397 231.743L30.8657 228L31.397 226.396L30.3345 222.653L30.8657 221.05L28.7407 213.03L25.022 201.267L19.1782 176.673C18.4699 170.614 17.0532 158.174 17.0532 156.891C17.0532 155.608 18.8241 148.515 19.7095 145.129V140.851L21.8345 139.782L27.147 132.832L35.1157 123.208L37.772 120H39.897L38.8345 121.604L39.897 124.812L42.5532 128.554L48.397 131.228L54.772 133.901L60.0845 134.97L66.9907 136.04H76.022L82.397 134.97L87.1782 132.832L88.2407 133.901L89.8345 144.594L91.4282 146.198L91.9595 151.545L93.022 152.614V160.099L95.147 163.307L94.0845 165.98L95.147 170.257L96.7407 176.139L98.3345 191.644L100.459 203.941L104.709 211.96L106.303 214.634L106.834 217.307L107.897 217.842L108.959 219.98L110.553 223.723L113.209 229.604L115.334 237.624L116.397 247.782V254.198L117.459 261.683L117.991 264.891V267.03L118.522 268.634V270.772V273.446L119.053 275.05L113.741 280.396L102.584 279.861Z" fill="#6EB6F5"/>
<path d="M77.401 137L88.0532 132.789L85.3902 129.632L82.1945 126.474L78.9989 122.263H76.8684L66.7489 121.211L51.3032 119.632L42.2489 117L40.6511 118.579L39.0532 120.158L39.5858 125.947L43.3141 131.737L60.3576 135.947L77.401 137Z" fill="#C86B6B"/>
<path d="M61.9199 107.333L62.4532 110L52.3199 109.467L48.0532 102.533L64.0532 102L62.4532 103.6L61.9199 107.333Z" fill="#FFEEEE"/>
<path d="M24.8242 73.3615L15.9618 80.8493L20.7673 82.9851L20.7673 90.4602L13.2922 91.5281L10.0885 86.7226L0.495873 94.2051L6.35096 101.139L10.0885 100.071L7.95277 95.7996L12.2243 99.5371L17.5637 97.9353L14.36 102.207L17.5637 105.944L12.2243 103.809L11.1564 107.546L26.8978 125.021L38.9212 112.352L51.2261 104.177L24.8242 73.3615Z" fill="#C4C4C4"/>
<path d="M93.6982 126.565C92.1656 126.172 90.8176 126.913 90.5398 127.994C90.2619 129.076 91.0858 130.375 92.6185 130.768C94.1511 131.162 95.4991 130.421 95.7769 129.34C96.0548 128.258 95.2309 126.959 93.6982 126.565Z" stroke="black"/>
<path d="M93.3054 125.948L95.8768 128.814L99.7625 128.71L100.028 127.675L93.3054 125.948Z" fill="black"/>
<path d="M101.328 126.907L100.028 127.675L99.7625 128.71L100.295 128.845L115.025 131.528L115.808 130.627L101.328 126.907Z" fill="#ADADAD"/>
<path d="M94.6218 123.957C93.1814 123.301 92.597 121.879 93.0595 120.862C93.522 119.845 94.9786 119.352 96.419 120.007C97.8593 120.662 98.4437 122.085 97.9812 123.101C97.5187 124.118 96.0621 124.612 94.6218 123.957Z" stroke="black"/>
<path d="M93.4427 123.969L97.4675 123.454L100.689 126.093L100.247 127.065L93.4427 123.969Z" fill="black"/>
<path d="M100.776 128.479L100.247 127.065L100.689 126.093L101.189 126.322L114.34 133.478L114.384 134.671L100.776 128.479Z" fill="#C4C4C4"/>
<circle r="0.266969" transform="matrix(0.248828 -0.968548 -0.968548 -0.248828 101.905 127.882)" fill="#393939"/>
<path d="M94.7543 115.469L87.7852 116L66.3419 112.283L62.5893 110.69L62.0532 109.097V105.912L62.5893 103.788L64.7336 101.664H75.9914L84.0326 101.133L85.6409 99.5398L87.2491 98.4779L89.9295 92.6372L92.6099 87.3274L95.2903 81.4867L96.8986 76.708L97.4347 72.9911L97.9707 68.2124L100.651 59.7168L104.404 56H107.62L111.373 59.1858L113.517 65.0265L114.053 75.115L112.445 83.0796L110.301 90.5133L107.62 95.823L101.723 103.257L96.8986 110.69L94.7543 115.469Z" fill="#935454"/>
<path d="M69.022 121.638L61.5845 120.574L61.0532 113.128L66.3657 111L78.0532 112.596L81.772 113.66L88.6782 114.723L91.8657 116.319L94.522 117.915V120.043L95.0532 123.234L94.522 125.362V128.021L93.9907 129.617L91.8657 131.213V133.872L91.3345 136H89.2095V134.404L87.6157 132.277L82.8345 128.021L78.0532 122.17L69.022 121.638Z" fill="#FFEEEE"/>
<path d="M61.3078 116.719V121H56.035L50.7623 120.465L42.326 117.254L38.635 116.184L37.0532 115.649V107.623V104.412L38.1078 95.3158L40.2169 84.614C40.7441 82.4737 41.7987 77.8719 41.7987 76.5877C41.7987 74.9825 42.8532 70.1667 43.3805 68.5614C43.8023 67.2772 46.3684 64.1023 47.5987 62.6754L50.235 60.5351L54.4532 60L53.926 60.5351L51.8169 64.8158L50.235 69.0965V72.8421L49.1805 81.9386C48.829 82.8304 48.0205 85.0421 47.5987 86.7544C47.1769 88.4667 47.7744 93.1754 48.1259 95.3158L49.1805 99.5965L49.7078 101.737L50.235 103.342L55.5078 106.553L61.3078 109.763L66.0532 111.368L64.9987 111.904L62.8896 113.509L61.3078 116.719Z" fill="#935454"/>
<path d="M88.6247 54.36V51.76L72.5532 45V49.16L73.0889 54.88L71.4818 55.4L67.1961 56.44L65.5889 60.08L65.0532 67.36L75.7675 71L83.8032 68.92L89.1604 66.32L94.5175 59.04L95.0532 54.88H92.3747L88.6247 54.36Z" fill="#FFEEEE"/>
<path d="M74.9577 48.7408L73.0532 45L88.1293 51.9098C88.6333 52.1409 88.8436 52.745 88.5921 53.2391C88.5443 53.333 88.4815 53.4186 88.4063 53.4925L87.4013 54.4795C87.0824 54.7927 86.7154 55.0528 86.3142 55.2498C85.3348 55.7308 84.2061 55.81 83.1691 55.4705L82.5551 55.2694C81.9143 55.0597 81.3153 54.7393 80.7852 54.3228L78.9199 52.8571L77.0201 51.3022C76.1626 50.6005 75.4603 49.7282 74.9577 48.7408Z" fill="#EAC3C3"/>
<path d="M64.0532 27.7312C64.0532 41.3898 77.9718 53 89.7466 53C95.7599 53 101.773 42.2473 105.053 27.7312C105.053 14.0725 97.1479 3 85.3732 3C73.5985 3 64.0532 14.0725 64.0532 27.7312Z" fill="#FFEEEE"/>
<path d="M99.6441 17.9767C99.2169 17.1209 96.2616 14.4109 94.8373 13.1628C94.4813 14.4109 93.6623 17.1209 93.235 17.9767C92.7009 19.0465 91.0987 21.186 90.0305 22.2558C89.1759 23.1116 85.4017 26.5349 83.6214 28.1395L80.9509 30.814L77.7464 34.5581L72.9396 42.5814L69.2009 49L63.86 47.9302L60.1214 45.2558L61.1896 32.9535L59.0532 25.4651L62.7919 19.0465L65.4623 13.1628L68.6669 11.5581L75.61 3.53488L83.0873 3L92.1669 3.53488L99.6441 8.88372L106.053 19.0465V26.5349L101.246 41.5116L102.315 37.2326C102.493 35.093 102.849 30.707 102.849 30.2791C102.849 29.8512 102.493 26.8915 102.315 25.4651C101.602 23.3256 100.071 18.8326 99.6441 17.9767Z" fill="#EBDDAC"/>
<path d="M140.204 139.5C140.204 145.023 144.681 149.5 150.204 149.5H293.553C299.076 149.5 303.553 145.023 303.553 139.5V109.423C303.553 103.901 299.076 99.4235 293.553 99.4235H178.91C176.732 99.4235 174.613 98.7124 172.876 97.3983L130.053 65L137.672 90.8382C139.351 96.5322 140.204 102.438 140.204 108.374V139.5Z" fill="#F5807A"/>
<path d="M158.163 120.15V122.23L157.393 122.3L157.243 121H152.953L152.813 122.23L152.033 122.3V120.15H152.563C152.843 119.997 153.063 119.763 153.223 119.45C153.383 119.137 153.513 118.693 153.613 118.12C153.713 117.547 153.81 116.74 153.903 115.7L154.013 114.58H157.323L157.283 118.98L157.303 120.15H158.163ZM156.333 119.07L156.293 115.37H154.853L154.803 115.88C154.69 117.16 154.547 118.12 154.373 118.76C154.2 119.393 153.953 119.857 153.633 120.15H156.303L156.333 119.07ZM163.333 121H162.363L162.233 120.38L162.053 119.83L160.933 119.82L159.933 119.83L159.743 120.33L159.603 121H158.653L160.523 115.99H161.643L163.333 121ZM161.803 119.08L161.093 116.89H161.023L160.213 119.08L161.003 119.09L161.803 119.08ZM166.945 118.4C167.665 118.553 168.025 118.947 168.025 119.58C168.025 120.547 167.248 121.03 165.695 121.03C165.222 121.03 164.765 121.02 164.325 121L164.365 119.5L164.325 115.99L166.085 115.98C166.605 115.98 167.012 116.087 167.305 116.3C167.598 116.513 167.745 116.82 167.745 117.22C167.745 117.493 167.675 117.733 167.535 117.94C167.395 118.14 167.198 118.293 166.945 118.4ZM166.745 117.35C166.745 117.117 166.668 116.95 166.515 116.85C166.362 116.75 166.108 116.7 165.755 116.7H165.275L165.255 118.09L166.075 118.12C166.302 118.067 166.468 117.98 166.575 117.86C166.688 117.74 166.745 117.57 166.745 117.35ZM165.845 120.33C166.232 120.33 166.525 120.263 166.725 120.13C166.932 119.997 167.035 119.8 167.035 119.54C167.035 119.333 166.965 119.173 166.825 119.06C166.685 118.94 166.472 118.857 166.185 118.81L165.245 118.82L165.235 119.41L165.255 120.3C165.468 120.32 165.665 120.33 165.845 120.33ZM173.226 121H172.256L172.126 120.38L171.946 119.83L170.826 119.82L169.826 119.83L169.636 120.33L169.496 121H168.546L170.416 115.99H171.536L173.226 121ZM171.696 119.08L170.986 116.89H170.916L170.106 119.08L170.896 119.09L171.696 119.08ZM177.927 114.35C177.807 114.637 177.611 114.86 177.337 115.02C177.071 115.18 176.757 115.26 176.397 115.26C176.037 115.26 175.727 115.183 175.467 115.03C175.214 114.87 175.021 114.643 174.887 114.35L175.407 113.99H175.527C175.594 114.217 175.697 114.383 175.837 114.49C175.984 114.59 176.177 114.64 176.417 114.64C176.657 114.64 176.844 114.593 176.977 114.5C177.111 114.4 177.217 114.23 177.297 113.99H177.407L177.927 114.35ZM174.267 119.5L174.217 116L175.207 115.95L175.147 119.5H175.217L177.567 115.97H178.617L178.567 119.41L178.597 121H177.617L177.667 119.5V117.47H177.587L175.237 121H174.217L174.267 119.5ZM184.523 118.4C185.243 118.553 185.603 118.947 185.603 119.58C185.603 120.547 184.826 121.03 183.273 121.03C182.8 121.03 182.343 121.02 181.903 121L181.943 119.5L181.903 115.99L183.663 115.98C184.183 115.98 184.59 116.087 184.883 116.3C185.176 116.513 185.323 116.82 185.323 117.22C185.323 117.493 185.253 117.733 185.113 117.94C184.973 118.14 184.776 118.293 184.523 118.4ZM184.323 117.35C184.323 117.117 184.246 116.95 184.093 116.85C183.94 116.75 183.686 116.7 183.333 116.7H182.853L182.833 118.09L183.653 118.12C183.88 118.067 184.046 117.98 184.153 117.86C184.266 117.74 184.323 117.57 184.323 117.35ZM183.423 120.33C183.81 120.33 184.103 120.263 184.303 120.13C184.51 119.997 184.613 119.8 184.613 119.54C184.613 119.333 184.543 119.173 184.403 119.06C184.263 118.94 184.05 118.857 183.763 118.81L182.823 118.82L182.813 119.41L182.833 120.3C183.046 120.32 183.243 120.33 183.423 120.33ZM192.344 121H191.494L191.394 119.48L191.164 117.44H191.104L189.804 120.47H189.054L187.854 117.44H187.774L187.554 119.39L187.424 121H186.614L187.154 115.99H188.274L188.504 116.73L189.444 119.2H189.514L190.514 116.72L190.764 115.99H191.854L192.344 121ZM197.037 120.2L197.107 120.27L197.027 121H193.817L193.857 119.5L193.817 115.99H197.057L197.117 116.07L197.047 116.8L195.777 116.75L194.777 116.76L194.757 118.06L195.717 118.07L196.587 118.04L196.637 118.12L196.577 118.86L195.637 118.83L194.747 118.84L194.737 119.41L194.757 120.23L195.687 120.24L197.037 120.2ZM200.379 115.93C200.925 115.93 201.402 116.037 201.809 116.25L201.629 117.1L201.539 117.13C201.372 117.003 201.179 116.903 200.959 116.83C200.745 116.757 200.522 116.72 200.289 116.72C199.369 116.72 198.909 117.293 198.909 118.44C198.909 119.04 199.029 119.497 199.269 119.81C199.509 120.117 199.859 120.27 200.319 120.27C200.545 120.27 200.775 120.233 201.009 120.16C201.242 120.087 201.449 119.987 201.629 119.86L201.729 119.91L201.649 120.76C201.202 120.967 200.742 121.07 200.269 121.07C199.502 121.07 198.915 120.85 198.509 120.41C198.102 119.97 197.899 119.343 197.899 118.53C197.899 117.697 198.112 117.057 198.539 116.61C198.972 116.157 199.585 115.93 200.379 115.93ZM206.106 116.07L206.046 116.84L205.076 116.77H204.656L204.636 119.41L204.666 121H203.706L203.746 119.5L203.726 116.77H203.316L202.326 116.84L202.256 116.76L202.326 115.99H206.056L206.106 116.07ZM210.221 120.2L210.291 120.27L210.211 121H207.001L207.041 119.5L207.001 115.99H210.241L210.301 116.07L210.231 116.8L208.961 116.75L207.961 116.76L207.941 118.06L208.901 118.07L209.771 118.04L209.821 118.12L209.761 118.86L208.821 118.83L207.931 118.84L207.921 119.41L207.941 120.23L208.871 120.24L210.221 120.2ZM215.44 118.39C216.154 118.563 216.51 118.96 216.51 119.58C216.51 120.047 216.32 120.413 215.94 120.68C215.56 120.94 215.04 121.07 214.38 121.07C214.08 121.07 213.797 121.043 213.53 120.99C213.264 120.93 213.037 120.847 212.85 120.74L213.03 119.93L213.11 119.89C213.284 120.003 213.48 120.093 213.7 120.16C213.92 120.227 214.144 120.26 214.37 120.26C214.717 120.26 214.994 120.19 215.2 120.05C215.414 119.91 215.52 119.723 215.52 119.49C215.52 119.31 215.457 119.163 215.33 119.05C215.21 118.93 215.037 118.847 214.81 118.8H213.65L213.59 118.73L213.65 118.06L214.74 118.08C214.907 118.007 215.037 117.907 215.13 117.78C215.23 117.647 215.28 117.5 215.28 117.34C215.28 116.947 214.98 116.75 214.38 116.75C213.954 116.75 213.51 116.86 213.05 117.08L212.94 117.03L213.02 116.21C213.454 116.01 213.917 115.91 214.41 115.91C214.997 115.91 215.454 116.023 215.78 116.25C216.107 116.477 216.27 116.787 216.27 117.18C216.27 117.447 216.197 117.687 216.05 117.9C215.904 118.113 215.7 118.277 215.44 118.39ZM221.82 121H220.85L220.72 120.38L220.54 119.83L219.42 119.82L218.42 119.83L218.23 120.33L218.09 121H217.14L219.01 115.99H220.13L221.82 121ZM220.29 119.08L219.58 116.89H219.51L218.7 119.08L219.49 119.09L220.29 119.08ZM224.721 115.98C225.261 115.98 225.678 116.113 225.971 116.38C226.271 116.64 226.421 117.013 226.421 117.5C226.421 118.073 226.231 118.527 225.851 118.86C225.471 119.187 224.958 119.35 224.311 119.35H223.741V119.41L223.781 121H222.821L222.861 119.5L222.821 115.99L224.721 115.98ZM224.551 118.63C225.125 118.51 225.411 118.16 225.411 117.58C225.411 117.293 225.331 117.08 225.171 116.94C225.011 116.8 224.765 116.723 224.431 116.71L223.781 116.73L223.751 118.61L224.551 118.63ZM230.719 120.2L230.789 120.27L230.709 121H227.499L227.539 119.5L227.499 115.99H230.739L230.799 116.07L230.729 116.8L229.459 116.75L228.459 116.76L228.439 118.06L229.399 118.07L230.269 118.04L230.319 118.12L230.259 118.86L229.319 118.83L228.429 118.84L228.419 119.41L228.439 120.23L229.369 120.24L230.719 120.2ZM235.127 116.05L235.047 116.77L233.907 116.75H233.157L233.117 119.41L233.157 121H232.167L232.217 119.5L232.167 115.97H235.057L235.127 116.05ZM236.045 119.5L235.995 116L236.985 115.95L236.925 119.5H236.995L239.345 115.97H240.395L240.345 119.41L240.375 121H239.395L239.445 119.5V117.47H239.365L237.015 121H235.995L236.045 119.5ZM243.992 115.93C244.539 115.93 245.015 116.037 245.422 116.25L245.242 117.1L245.152 117.13C244.985 117.003 244.792 116.903 244.572 116.83C244.359 116.757 244.135 116.72 243.902 116.72C242.982 116.72 242.522 117.293 242.522 118.44C242.522 119.04 242.642 119.497 242.882 119.81C243.122 120.117 243.472 120.27 243.932 120.27C244.159 120.27 244.389 120.233 244.622 120.16C244.855 120.087 245.062 119.987 245.242 119.86L245.342 119.91L245.262 120.76C244.815 120.967 244.355 121.07 243.882 121.07C243.115 121.07 242.529 120.85 242.122 120.41C241.715 119.97 241.512 119.343 241.512 118.53C241.512 117.697 241.725 117.057 242.152 116.61C242.585 116.157 243.199 115.93 243.992 115.93ZM249.719 116.07L249.659 116.84L248.689 116.77H248.269L248.249 119.41L248.279 121H247.319L247.359 119.5L247.339 116.77H246.929L245.939 116.84L245.869 116.76L245.939 115.99H249.669L249.719 116.07ZM252.514 115.98C253.054 115.98 253.471 116.113 253.764 116.38C254.064 116.64 254.214 117.013 254.214 117.5C254.214 118.073 254.024 118.527 253.644 118.86C253.264 119.187 252.751 119.35 252.104 119.35H251.534V119.41L251.574 121H250.614L250.654 119.5L250.614 115.99L252.514 115.98ZM252.344 118.63C252.917 118.51 253.204 118.16 253.204 117.58C253.204 117.293 253.124 117.08 252.964 116.94C252.804 116.8 252.557 116.723 252.224 116.71L251.574 116.73L251.544 118.61L252.344 118.63ZM255.332 119.5L255.282 116L256.272 115.95L256.212 119.5H256.282L258.632 115.97H259.682L259.632 119.41L259.662 121H258.682L258.732 119.5V117.47H258.652L256.302 121H255.282L255.332 119.5ZM263.276 115.98C263.816 115.98 264.233 116.113 264.526 116.38C264.826 116.64 264.976 117.013 264.976 117.5C264.976 118.073 264.786 118.527 264.406 118.86C264.026 119.187 263.513 119.35 262.866 119.35H262.296V119.41L262.336 121H261.376L261.416 119.5L261.376 115.99L263.276 115.98ZM263.106 118.63C263.679 118.51 263.966 118.16 263.966 117.58C263.966 117.293 263.886 117.08 263.726 116.94C263.566 116.8 263.319 116.723 262.986 116.71L262.336 116.73L262.306 118.61L263.106 118.63ZM267.794 119.6L267.834 121H266.874L266.924 119.6L266.914 119.32L265.214 115.99H266.244L266.354 116.31L267.354 118.3H267.424L268.524 116.35L268.664 115.99H269.674L267.804 119.3L267.794 119.6ZM273.756 120.2L273.826 120.27L273.746 121H270.536L270.576 119.5L270.536 115.99H273.776L273.836 116.07L273.766 116.8L272.496 116.75L271.496 116.76L271.476 118.06L272.436 118.07L273.306 118.04L273.356 118.12L273.296 118.86L272.356 118.83L271.466 118.84L271.456 119.41L271.476 120.23L272.406 120.24L273.756 120.2ZM280.684 121H279.834L279.734 119.48L279.504 117.44H279.444L278.144 120.47H277.394L276.194 117.44H276.114L275.894 119.39L275.764 121H274.954L275.494 115.99H276.614L276.844 116.73L277.784 119.2H277.854L278.854 116.72L279.104 115.99H280.194L280.684 121ZM284.197 115.93C284.744 115.93 285.22 116.037 285.627 116.25L285.447 117.1L285.357 117.13C285.19 117.003 284.997 116.903 284.777 116.83C284.564 116.757 284.34 116.72 284.107 116.72C283.187 116.72 282.727 117.293 282.727 118.44C282.727 119.04 282.847 119.497 283.087 119.81C283.327 120.117 283.677 120.27 284.137 120.27C284.364 120.27 284.594 120.233 284.827 120.16C285.06 120.087 285.267 119.987 285.447 119.86L285.547 119.91L285.467 120.76C285.02 120.967 284.56 121.07 284.087 121.07C283.32 121.07 282.734 120.85 282.327 120.41C281.92 119.97 281.717 119.343 281.717 118.53C281.717 117.697 281.93 117.057 282.357 116.61C282.79 116.157 283.404 115.93 284.197 115.93ZM290.164 119.5L290.214 121H289.224L289.264 119.41V119.27H288.404C288.131 119.783 287.784 120.36 287.364 121L287.254 121.07C286.894 121.05 286.577 120.987 286.304 120.88L286.294 120.77C286.807 120.17 287.257 119.597 287.644 119.05C286.944 118.737 286.594 118.25 286.594 117.59C286.594 117.27 286.674 116.987 286.834 116.74C287.001 116.493 287.227 116.303 287.514 116.17C287.807 116.03 288.141 115.96 288.514 115.96L290.214 115.97L290.164 119.5ZM289.254 118.5L289.224 116.72L288.574 116.7C288.274 116.707 288.041 116.787 287.874 116.94C287.707 117.087 287.624 117.3 287.624 117.58C287.624 117.833 287.687 118.037 287.814 118.19C287.947 118.343 288.151 118.457 288.424 118.53L289.254 118.5ZM219.59 135.5L219.54 132L220.53 131.95L220.47 135.5H220.54L222.89 131.97H223.94L223.89 135.41L223.92 137H222.94L222.99 135.5V133.47H222.91L220.56 137H219.54L219.59 135.5ZM229.385 134C229.932 134 230.349 134.117 230.635 134.35C230.922 134.577 231.065 134.907 231.065 135.34C231.065 135.867 230.865 136.277 230.465 136.57C230.065 136.857 229.502 137 228.775 137H227.275L227.325 135.5L227.275 131.97H230.805L230.845 132.05L230.795 132.77L229.465 132.75H228.255L228.235 134H229.385ZM229.085 136.32C229.392 136.28 229.625 136.187 229.785 136.04C229.952 135.893 230.035 135.7 230.035 135.46C230.035 135.207 229.952 135.013 229.785 134.88C229.619 134.74 229.379 134.673 229.065 134.68L228.225 134.69L228.215 135.41L228.235 136.28L229.085 136.32ZM234.152 135.6L234.192 137H233.232L233.282 135.6L233.272 135.32L231.572 131.99H232.602L232.712 132.31L233.712 134.3H233.782L234.882 132.35L235.022 131.99H236.032L234.162 135.3L234.152 135.6ZM240.913 136.21V138.27L240.203 138.33L240.063 137H236.583L236.443 138.27L235.723 138.33V136.21H236.163C236.397 136.097 236.58 135.927 236.713 135.7C236.847 135.467 236.957 135.137 237.043 134.71C237.13 134.277 237.21 133.673 237.283 132.9L237.383 132.01L237.373 131.99H240.223L240.183 135.41L240.203 136.21H240.913ZM239.293 135.5L239.263 132.71H238.153L238.113 133.07C238.02 133.997 237.907 134.697 237.773 135.17C237.64 135.637 237.45 135.983 237.203 136.21H239.273L239.293 135.5ZM245.367 136.2L245.437 136.27L245.357 137H242.147L242.187 135.5L242.147 131.99H245.387L245.447 132.07L245.377 132.8L244.107 132.75L243.107 132.76L243.087 134.06L244.047 134.07L244.917 134.04L244.967 134.12L244.907 134.86L243.967 134.83L243.077 134.84L243.067 135.41L243.087 136.23L244.017 136.24L245.367 136.2ZM252.295 137H251.445L251.345 135.48L251.115 133.44H251.055L249.755 136.47H249.005L247.805 133.44H247.725L247.505 135.39L247.375 137H246.565L247.105 131.99H248.225L248.455 132.73L249.395 135.2H249.465L250.465 132.72L250.715 131.99H251.805L252.295 137ZM257.13 135.6L257.17 137H256.21L256.26 135.6L256.25 135.32L254.55 131.99H255.58L255.69 132.31L256.69 134.3H256.76L257.86 132.35L258 131.99H259.01L257.14 135.3L257.13 135.6ZM263.232 135.41L263.272 137H262.292L262.332 135.5L262.322 134.88H262.252C261.912 135.167 261.538 135.363 261.132 135.47C260.572 135.47 260.158 135.353 259.892 135.12C259.625 134.88 259.488 134.507 259.482 134L259.462 131.97H260.442L260.432 133.74C260.432 134.013 260.498 134.23 260.632 134.39C260.772 134.543 260.965 134.62 261.212 134.62C261.385 134.62 261.568 134.58 261.762 134.5C261.955 134.413 262.138 134.297 262.312 134.15L262.292 131.97H263.282L263.232 135.41ZM265.01 135.5L264.96 132L265.95 131.95L265.89 135.5H265.96L268.31 131.97H269.36L269.31 135.41L269.34 137H268.36L268.41 135.5V133.47H268.33L265.98 137H264.96L265.01 135.5ZM274.006 132.07L273.946 132.84L272.976 132.77H272.556L272.536 135.41L272.566 137H271.606L271.646 135.5L271.626 132.77H271.216L270.226 132.84L270.156 132.76L270.226 131.99H273.956L274.006 132.07ZM277.021 133.93C277.548 133.93 277.948 134.047 278.221 134.28C278.501 134.513 278.641 134.85 278.641 135.29C278.641 135.823 278.445 136.243 278.051 136.55C277.665 136.85 277.121 137 276.421 137H274.941L274.991 135.5L274.941 131.97H275.931L275.901 133.93H277.021ZM276.711 136.31C277.011 136.27 277.238 136.173 277.391 136.02C277.545 135.867 277.621 135.667 277.621 135.42C277.621 135.167 277.541 134.97 277.381 134.83C277.221 134.683 276.991 134.613 276.691 134.62L275.891 134.64L275.881 135.41L275.901 136.28L276.711 136.31ZM281.883 131.93C282.429 131.93 282.906 132.037 283.313 132.25L283.133 133.1L283.043 133.13C282.876 133.003 282.683 132.903 282.463 132.83C282.249 132.757 282.026 132.72 281.793 132.72C280.873 132.72 280.413 133.293 280.413 134.44C280.413 135.04 280.533 135.497 280.773 135.81C281.013 136.117 281.363 136.27 281.823 136.27C282.049 136.27 282.279 136.233 282.513 136.16C282.746 136.087 282.953 135.987 283.133 135.86L283.233 135.91L283.153 136.76C282.706 136.967 282.246 137.07 281.773 137.07C281.006 137.07 280.419 136.85 280.013 136.41C279.606 135.97 279.403 135.343 279.403 134.53C279.403 133.697 279.616 133.057 280.043 132.61C280.476 132.157 281.089 131.93 281.883 131.93ZM287.85 135.5L287.9 137H286.91L286.95 135.41V135.27H286.09C285.816 135.783 285.47 136.36 285.05 137L284.94 137.07C284.58 137.05 284.263 136.987 283.99 136.88L283.98 136.77C284.493 136.17 284.943 135.597 285.33 135.05C284.63 134.737 284.28 134.25 284.28 133.59C284.28 133.27 284.36 132.987 284.52 132.74C284.686 132.493 284.913 132.303 285.2 132.17C285.493 132.03 285.826 131.96 286.2 131.96L287.9 131.97L287.85 135.5ZM286.94 134.5L286.91 132.72L286.26 132.7C285.96 132.707 285.726 132.787 285.56 132.94C285.393 133.087 285.31 133.3 285.31 133.58C285.31 133.833 285.373 134.037 285.5 134.19C285.633 134.343 285.836 134.457 286.11 134.53L286.94 134.5ZM290.419 132.02L290.209 135.28L289.639 135.36L289.529 135.26L289.509 132.06L289.609 131.94L290.309 131.9L290.419 132.02ZM289.859 136.03C290.012 136.03 290.132 136.073 290.219 136.16C290.305 136.247 290.349 136.367 290.349 136.52C290.349 136.687 290.302 136.82 290.209 136.92C290.115 137.013 289.989 137.06 289.829 137.06C289.669 137.06 289.545 137.017 289.459 136.93C289.372 136.837 289.329 136.713 289.329 136.56C289.329 136.4 289.375 136.273 289.469 136.18C289.569 136.08 289.699 136.03 289.859 136.03Z" fill="white"/>
</svg>
