<svg width="251" height="72" viewBox="0 0 251 72" fill="none" xmlns="http://www.w3.org/2000/svg">
<g clip-path="url(#clip0_220_85)">
<circle cx="126" cy="36" r="34.35" stroke="url(#paint0_linear_220_85)" stroke-width="3.3"/>
<path d="M18.91 24.7C20.97 24.7 22.82 25.17 24.46 26.11C26.12 27.03 27.42 28.31 28.36 29.95C29.3 31.59 29.77 33.44 29.77 35.5C29.77 37.56 29.3 39.41 28.36 41.05C27.42 42.69 26.12 43.98 24.46 44.92C22.82 45.84 20.97 46.3 18.91 46.3C17.03 46.3 15.31 45.91 13.75 45.13C12.21 44.35 10.94 43.26 9.94 41.86C8.96 40.46 8.35 38.87 8.11 37.09H4.81V46H0.97V25H4.81V33.61H8.17C8.45 31.87 9.08 30.33 10.06 28.99C11.06 27.63 12.32 26.58 13.84 25.84C15.38 25.08 17.07 24.7 18.91 24.7ZM18.91 42.88C20.21 42.88 21.39 42.57 22.45 41.95C23.51 41.33 24.34 40.46 24.94 39.34C25.54 38.22 25.84 36.94 25.84 35.5C25.84 34.06 25.54 32.78 24.94 31.66C24.34 30.54 23.51 29.67 22.45 29.05C21.39 28.43 20.21 28.12 18.91 28.12C17.61 28.12 16.43 28.43 15.37 29.05C14.33 29.67 13.5 30.54 12.88 31.66C12.28 32.78 11.98 34.06 11.98 35.5C11.98 36.94 12.28 38.22 12.88 39.34C13.5 40.46 14.33 41.33 15.37 41.95C16.43 42.57 17.61 42.88 18.91 42.88ZM52.7934 25V46H48.8934V37H38.0334V46H34.1334V25H38.0334V33.67H48.8934V25H52.7934ZM76.7141 25V46H72.9641V43.33C71.5441 45.31 69.3441 46.3 66.3641 46.3C63.8841 46.3 61.9341 45.53 60.5141 43.99C59.0941 42.43 58.3841 40.23 58.3841 37.39V25H62.2841V37.24C62.2841 39.1 62.7241 40.51 63.6041 41.47C64.5041 42.41 65.7341 42.88 67.2941 42.88C68.9741 42.88 70.3141 42.38 71.3141 41.38C72.3141 40.36 72.8141 38.85 72.8141 36.85V25H76.7141ZM100.473 25V39.58C100.473 42.68 99.6232 45.06 97.9232 46.72C96.2432 48.38 93.9132 49.21 90.9332 49.21C89.1732 49.21 87.5732 48.95 86.1332 48.43C84.6932 47.93 83.4732 47.21 82.4732 46.27L84.0632 43.27C85.9232 44.95 88.1932 45.79 90.8732 45.79C94.6732 45.79 96.5732 43.78 96.5732 39.76V38.17C95.1532 39.97 93.0932 40.87 90.3932 40.87C87.7332 40.87 85.6732 40.11 84.2132 38.59C82.7532 37.07 82.0232 34.89 82.0232 32.05V25H85.9232V31.87C85.9232 33.71 86.3632 35.11 87.2432 36.07C88.1432 37.01 89.3932 37.48 90.9932 37.48C92.6932 37.48 94.0432 36.98 95.0432 35.98C96.0632 34.96 96.5732 33.46 96.5732 31.48V25H100.473ZM125.347 46L125.317 32.08L118.417 43.6H116.677L109.777 32.26V46H106.087V25H109.297L117.607 38.89L125.827 25H129.007L129.067 46H125.347Z" fill="black"/>
<path d="M160.97 25V46H157.22V43.33C155.8 45.31 153.6 46.3 150.62 46.3C148.14 46.3 146.19 45.53 144.77 43.99C143.35 42.43 142.64 40.23 142.64 37.39V25H146.54V37.24C146.54 39.1 146.98 40.51 147.86 41.47C148.76 42.41 149.99 42.88 151.55 42.88C153.23 42.88 154.57 42.38 155.57 41.38C156.57 40.36 157.07 38.85 157.07 36.85V25H160.97ZM180.559 35.08C181.899 35.44 182.919 36.06 183.619 36.94C184.319 37.8 184.669 38.88 184.669 40.18C184.669 42.02 183.989 43.45 182.629 44.47C181.269 45.49 179.299 46 176.719 46H166.759V25H176.149C178.509 25 180.349 25.47 181.669 26.41C182.989 27.35 183.649 28.68 183.649 30.4C183.649 31.5 183.379 32.45 182.839 33.25C182.319 34.05 181.559 34.66 180.559 35.08ZM170.599 33.97H175.819C177.079 33.97 178.039 33.72 178.699 33.22C179.359 32.72 179.689 31.98 179.689 31C179.689 30.02 179.359 29.28 178.699 28.78C178.039 28.26 177.079 28 175.819 28H170.599V33.97ZM176.599 43C179.359 43 180.739 41.96 180.739 39.88C180.739 37.84 179.359 36.82 176.599 36.82H170.599V43H176.599ZM205.372 43.99C204.432 44.73 203.222 45.3 201.742 45.7C200.262 46.1 198.662 46.3 196.942 46.3C194.922 46.3 193.202 46.04 191.782 45.52C190.382 45 189.322 44.28 188.602 43.36C187.882 42.44 187.522 41.38 187.522 40.18C187.522 39.02 187.842 38.01 188.482 37.15C189.122 36.29 189.982 35.66 191.062 35.26C190.242 34.82 189.592 34.21 189.112 33.43C188.652 32.63 188.422 31.74 188.422 30.76C188.422 29.64 188.752 28.63 189.412 27.73C190.092 26.81 191.102 26.08 192.442 25.54C193.782 24.98 195.432 24.7 197.392 24.7C198.712 24.7 200.002 24.84 201.262 25.12C202.522 25.4 203.622 25.78 204.562 26.26L203.452 29.35C201.692 28.43 199.722 27.97 197.542 27.97C195.822 27.97 194.522 28.25 193.642 28.81C192.782 29.35 192.352 30.08 192.352 31C192.352 31.9 192.672 32.59 193.312 33.07C193.952 33.53 194.892 33.76 196.132 33.76H201.682V37H195.922C194.502 37 193.402 37.25 192.622 37.75C191.842 38.23 191.452 38.95 191.452 39.91C191.452 40.87 191.922 41.63 192.862 42.19C193.802 42.75 195.222 43.03 197.122 43.03C198.442 43.03 199.722 42.85 200.962 42.49C202.222 42.13 203.272 41.63 204.112 40.99L205.372 43.99ZM227.43 25V46H223.53V37H212.67V46H208.77V25H212.67V33.67H223.53V25H227.43ZM248.351 30.22C246.371 29.1 244.311 28.42 242.171 28.18V46H238.271V28.18C236.111 28.42 234.041 29.1 232.061 30.22L230.711 27.22C232.111 26.38 233.611 25.75 235.211 25.33C236.831 24.91 238.491 24.7 240.191 24.7C241.891 24.7 243.551 24.91 245.171 25.33C246.791 25.75 248.301 26.38 249.701 27.22L248.351 30.22Z" fill="black"/>
<circle cx="111.5" cy="56.5" r="4.5" fill="#6EB6F5"/>
<circle cx="107" cy="11" r="9" fill="#6EB6F5"/>
<circle cx="138" cy="56" r="12" fill="#6EB6F5"/>
<circle cx="142.5" cy="18.5" r="4.5" fill="#6EB6F5"/>
<circle cx="162" cy="40" r="2" fill="#6EB6F5"/>
<circle cx="126.5" cy="6.5" r="1.5" fill="#6EB6F5"/>
<circle cx="108.5" cy="70.5" r="1.5" fill="#6EB6F5"/>
</g>
<defs>
<linearGradient id="paint0_linear_220_85" x1="126" y1="0" x2="126" y2="72" gradientUnits="userSpaceOnUse">
<stop offset="0.273661"/>
<stop offset="0.273761" stop-opacity="0"/>
<stop offset="0.726713" stop-opacity="0"/>
<stop offset="0.726813"/>
</linearGradient>
<clipPath id="clip0_220_85">
<rect width="251" height="72" fill="white"/>
</clipPath>
</defs>
</svg>
