<svg width="567" height="322" viewBox="0 0 567 322" fill="none" xmlns="http://www.w3.org/2000/svg">
<path d="M149.702 266.957L156 267.913L117.727 299L78 283.696L98.3478 271.261H104.646H112.398L125.478 266.957H133.23C134.005 266.957 140.981 266.319 144.373 266L149.702 266.957Z" fill="#378CD7"/>
<path d="M69.35 224.077L65 211.959L70.3167 179.969L72.7333 180.454L83.85 179H92.0667L108.983 181.423L123.483 184.816L132.183 189.663L137.5 194.995L143.3 197.418L147.65 200.327L152 205.658L142.333 217.776L134.6 221.653L131.217 229.408L129.283 238.133V251.704L131.217 257.52L132.667 262.367L133.15 267.214L127.35 266.73L116.717 271.092L107.533 274H102.217L84.8167 269.638L69.35 224.077Z" fill="#F5B349"/>
<path d="M91 185.583L92.4776 179.75H95.9254L97.403 177.806L98.3881 171L120.552 176.347V180.236L121.045 184.611L124 185.583L123.015 193.847L115.134 200.653L104.299 206L99.8657 203.083L92.4776 193.847L91 185.583Z" fill="#FFEEEE"/>
<path d="M101.333 182L99 177L120 182L119.067 183L117.2 185.5L113.467 188L109.733 187L104.6 185L101.333 182Z" fill="#EAC3C3"/>
<path d="M172 239.4V250.571L176.881 251.057L178.833 253H211.048L213 244.743L212.024 236L179.81 236.486L176.881 239.4H172Z" fill="#515354"/>
<path d="M49.4815 209.484L35.8272 209L29 296.033L37.2901 297H42.1667L49.9691 295.066L82.642 289.264L88.9815 287.33L93.3704 284.912L96.2963 282.978L101.173 278.143L102.636 273.791L101.173 272.824L97.7593 270.89L95.321 266.055L93.3704 262.187L92.8827 258.802L94.3457 256.868L97.7593 254.451L107.025 241.396L108 239.945V237.527V232.209L105.562 226.407L101.173 223.022L95.321 220.604L74.3519 222.055H70.9383H68.0123L64.1111 220.604L60.6975 216.736L57.284 213.352L49.4815 209.484Z" fill="#636773"/>
<path d="M86.5308 256.586L90.3981 253.702L100.55 241.685L102 237.84V233.514L100.55 229.188L98.1327 222.939L94.2654 220.055L87.981 217.171H82.6635L77.8294 219.094L71.545 222.939L66.7109 225.343H61.8768L57.0427 222.939L54.6256 219.094L51.2417 214.768L45.4408 211.403L38.1896 209.961L28.5213 209L21.2701 211.403L13.0521 218.613L10.6351 221.497L5.31754 231.11L1.45024 240.243L0 248.895V258.508L1.45024 267.641L3.8673 274.851L9.18483 283.983L13.0521 289.271L22.7204 294.558L29.4882 296L39.6398 294.558L46.891 291.193L51.2417 288.309L54.1422 283.983L57.0427 280.619L60.4265 278.696L64.2938 279.657L69.128 281.58L79.763 283.983H82.6635L87.981 281.58L90.3981 278.696L92.8152 275.812V273.409L87.981 270.525L85.0806 265.718V259.47L86.5308 256.586Z" fill="#E5CFB6"/>
<path d="M27 259.523V240.909L24 239L21.5 240.909L23 243.295L19 249.023L23 255.705L21.5 257.136L23 260L27 259.523Z" fill="#E7E7E7"/>
<path d="M131.931 224.397L130 236.5L133.379 241.341L135.31 246.667V254.413L137.724 259.738L142.069 265.063L146.414 267H150.759L158 253.929L156.069 243.762V238.921V236.5L154.621 235.048V228.27L155.103 218.103L154.621 212.778L153.172 208.421L152.207 206L144.966 206.968L139.172 214.23L131.931 224.397Z" fill="#FED89B"/>
<path d="M172 242L78 242.96V254L172 250.16V242Z" fill="#515354"/>
<path d="M89.1148 321C90.6885 321 94.3607 317.667 96 316H79.7705H66V318.273L75.8361 321H89.1148Z" fill="#613636"/>
<path d="M113 302.346L114.948 290.808L125.175 281.673L150.5 270.135L155.37 267.25L159.753 265.808L163.649 264.846L164.623 261H170.955L181.182 262.923L184.591 265.808L186.539 270.135L188 274.462L187.513 281.673L181.182 286.481L179.721 289.365H176.312L172.903 292.25L166.571 294.173L142.708 307.154L134.916 311H121.766L113 302.346Z" fill="#4BA1ED"/>
<path d="M117.71 321L135.129 316.06L139 305.236L134.161 300.747L122.548 290.911L108.032 288.398L98.8387 286.422H90.6129H86.2581L80.9355 282.964L75.129 280H68.3548H62.5484L57.2258 284.446L50.9355 293.337L49 302.229L53.8387 310.627L65.9355 316.06H100.774L117.71 321Z" fill="#6EB6F5"/>
<path d="M155.96 299.133L143 306.6L149.72 308L164.6 306.6H176.6L179 304.733L176.6 299.133L166.52 294L155.96 299.133Z" fill="#613636"/>
<path d="M25 247L195 244" stroke="black" stroke-width="0.2"/>
<path d="M25 252L194 248" stroke="black" stroke-width="0.2"/>
<path d="M25 250L205 244" stroke="black" stroke-width="0.2"/>
<path d="M25 251L204 246" stroke="black" stroke-width="0.2"/>
<path d="M25 245L185 243" stroke="black" stroke-width="0.2"/>
<path d="M25 254L185 249" stroke="black" stroke-width="0.2"/>
<path d="M42.1507 239.76L37.8356 235.32L34 233.347V231.373V224.96L37.8356 222L43.589 223.48L47.9041 226.933L50.7808 227.92L55.5753 229.4L58.9315 230.387L61.8082 233.347L64.6849 237.787L68.5205 242.227L69 246.173L67.5616 247.16L66.6027 246.173L65.6438 244.693L64.2055 242.227L61.8082 241.733L62.2877 244.693V247.16L63.2466 248.147L64.6849 247.653H66.1233L67.5616 248.147V249.133L66.1233 251.107L64.6849 251.6L62.2877 252.587L64.6849 254.067L65.6438 256.533L66.1233 258.013L64.2055 259L62.2877 258.507L60.3699 257.52L59.411 258.507H56.5342L55.0959 257.027H52.6986L49.3425 255.053L45.9863 249.133L43.589 244.2L42.1507 239.76Z" fill="#FFEEEE"/>
<path d="M70.5492 198.496L65.2295 212.124H58.459C56.3634 211.799 52.0754 211.15 51.6885 211.15H42.5H33.3115V213.584L34.7623 217.478L43.4672 223.805L42.5 223.319L39.1148 223.805L36.2131 226.726L34.7623 230.133V233.54L36.6967 235H32.3443L27.0246 232.566L21.7049 228.673L14.4508 224.292L13 218.451L14.4508 212.124L24.6066 202.876V198.496L31.377 197.522L32.3443 195.088L35.2459 192.655L45.4016 189.248L55.0738 184.381L61.8443 180.973L70.5492 180L72 189.248L70.5492 198.496Z" fill="#FED89B"/>
<path d="M149.286 266.527L154.524 268L160.238 267.018L163.571 265.545L164.524 261.127L165 258.182V254.255L164.048 251.8L163.095 249.345L162.143 246.4L159.286 243.455L156.905 242.473L155.476 242.964L155 243.945L157.857 247.382L159.762 250.818C160.272 251.607 159.99 252.664 159.155 253.094L158.81 253.273L155.952 249.836L154.048 246.4L152.143 241.491L150.238 241L148.81 243.455L146.905 243.945L146.429 247.873L145.476 248.364L145 253.273L145.476 258.182L146.429 262.6L149.286 266.527Z" fill="#FFEEEE"/>
<path d="M131 158.238C131 172.177 125.577 183 114.133 183C102.688 183 91 172.177 91 158.238C91 144.299 100.278 133 111.723 133C123.168 133 131 144.299 131 158.238Z" fill="#FFEEEE"/>
<path d="M115.727 145.184C115.635 145.138 115.545 145.087 115.457 145.031C112.836 143.358 109.97 140.868 107.08 142.016C106.601 142.206 106.156 142.471 105.76 142.802L101.88 146.05C101.416 146.438 100.993 146.872 100.616 147.345L99.1239 149.219C98.2253 150.347 97.6111 151.675 97.3329 153.09L96.8629 155.481C96.7411 156.101 96.6849 156.732 96.6952 157.363L96.8078 164.298L96.8928 169.539C96.9081 170.481 96.7116 171.414 96.3177 172.269L95.0344 175.056C94.8084 175.547 94.3208 175.865 93.7804 175.874C93.5949 175.877 93.4107 175.843 93.2383 175.775L91.8105 175.207C90.9861 174.879 90.2157 174.43 89.5249 173.873C88.275 172.866 87.3169 171.54 86.7896 170.024C86.0132 167.792 85.1678 165.185 85.1565 164.487L85.0851 160.091C85.0672 158.988 85.2524 157.891 85.6314 156.854L85.7524 156.523C86.0321 155.758 86.2067 154.959 86.2714 154.147L86.5812 150.26C86.6323 149.619 86.7519 148.986 86.938 148.37L87.3573 146.984C87.6268 146.092 87.7564 145.164 87.7413 144.233L87.7288 143.462C87.7195 142.892 87.7618 142.323 87.8744 141.764C88.1013 140.639 88.4616 139.1 88.8111 138.341L89.3342 137.205C89.7334 136.338 90.2851 135.551 90.842 134.776C91.1401 134.361 91.4378 133.892 91.6451 133.442C91.9088 132.869 93.2527 132.39 94.6716 132.045C96.3944 131.626 97.9485 130.613 98.8088 129.063C99.0285 128.667 99.2956 128.299 99.6041 127.967L100.753 126.731C101.943 125.452 103.476 124.537 105.183 124.166C106.852 123.804 108.674 123.459 109.547 123.444C110.542 123.428 112.193 123.811 113.484 124.172C114.368 124.419 115.189 124.845 115.934 125.381L117.476 126.489C118.425 127.171 119.568 127.528 120.736 127.51C122.527 127.48 124.217 128.336 125.255 129.796L125.62 130.311C126.25 131.198 127.088 131.916 128.061 132.402L128.412 132.578C130.255 133.5 131.684 135.082 132.414 137.01L132.781 137.977C132.996 138.545 133.111 139.146 133.12 139.753C133.142 141.11 133.696 142.399 134.612 143.401C135.502 144.376 136.42 145.46 136.719 146.057C137.321 147.26 137.331 147.867 137.341 148.473C137.351 149.08 136.255 153.344 136.264 153.951C136.268 154.193 135.985 154.652 135.63 155.127C134.99 155.981 133.953 156.415 132.887 156.432L132.644 156.436C132.367 156.441 132.092 156.399 131.829 156.312C130.987 156.035 130.357 155.331 130.175 154.463L129.837 152.842L129.215 150.425L129.162 150.271C128.829 149.284 127.896 148.627 126.855 148.643L122.777 148.71C121.029 148.738 118.077 146.359 115.727 145.184Z" fill="#613636"/>
<ellipse cx="185.5" cy="235" rx="2.5" ry="1" fill="#C4C4C4"/>
<rect x="185" y="235" width="1" height="3" fill="#C4C4C4"/>
<ellipse cx="195.5" cy="235" rx="2.5" ry="1" fill="#C4C4C4"/>
<rect x="195" y="235" width="1" height="3" fill="#C4C4C4"/>
<ellipse cx="204.5" cy="235" rx="2.5" ry="1" fill="#C4C4C4"/>
<rect x="204" y="235" width="1" height="3" fill="#C4C4C4"/>
<ellipse cx="204.5" cy="255" rx="2.5" ry="1" transform="rotate(-180 204.5 255)" fill="#C4C4C4"/>
<rect x="205" y="255" width="1" height="3" transform="rotate(-180 205 255)" fill="#C4C4C4"/>
<ellipse cx="195.5" cy="255" rx="2.5" ry="1" transform="rotate(-180 195.5 255)" fill="#C4C4C4"/>
<rect x="196" y="255" width="1" height="3" transform="rotate(-180 196 255)" fill="#C4C4C4"/>
<ellipse cx="185.5" cy="255" rx="2.5" ry="1" transform="rotate(-180 185.5 255)" fill="#C4C4C4"/>
<rect x="186" y="255" width="1" height="3" transform="rotate(-180 186 255)" fill="#C4C4C4"/>
<path d="M162.734 10C162.734 4.47716 167.211 0 172.734 0H363C368.523 0 373 4.47715 373 10V46.3091C373 51.8319 368.523 56.3091 363 56.3091H226.22C224.345 56.3091 222.508 56.8363 220.918 57.8306L133.5 112.5L161.605 58.4787C162.346 57.0533 162.734 55.4702 162.734 53.8634V10Z" fill="#6EB6F5"/>
<path d="M174.44 15C175.327 15 176.01 15.2733 176.49 15.82C176.97 16.3667 177.21 17.1467 177.21 18.16C177.21 19.2533 176.953 20.1 176.44 20.7C175.927 21.2933 175.197 21.59 174.25 21.59C173.37 21.59 172.69 21.31 172.21 20.75C171.737 20.1833 171.5 19.3833 171.5 18.35C171.5 17.2767 171.753 16.45 172.26 15.87C172.773 15.29 173.5 15 174.44 15ZM174.36 15.84C173.753 15.84 173.3 16.0367 173 16.43C172.707 16.8167 172.56 17.4167 172.56 18.23C172.56 19.1167 172.703 19.7667 172.99 20.18C173.283 20.5867 173.733 20.79 174.34 20.79C174.953 20.79 175.407 20.5933 175.7 20.2C175.993 19.8067 176.14 19.1933 176.14 18.36C176.14 17.4867 175.993 16.85 175.7 16.45C175.413 16.0433 174.967 15.84 174.36 15.84ZM180.489 18.5V19.14L178.089 19.5L177.999 19.41V18.77L180.399 18.42L180.489 18.5ZM184.215 15C185.102 15 185.785 15.2733 186.265 15.82C186.745 16.3667 186.985 17.1467 186.985 18.16C186.985 19.2533 186.729 20.1 186.215 20.7C185.702 21.2933 184.972 21.59 184.025 21.59C183.145 21.59 182.465 21.31 181.985 20.75C181.512 20.1833 181.275 19.3833 181.275 18.35C181.275 17.2767 181.529 16.45 182.035 15.87C182.549 15.29 183.275 15 184.215 15ZM184.135 15.84C183.529 15.84 183.075 16.0367 182.775 16.43C182.482 16.8167 182.335 17.4167 182.335 18.23C182.335 19.1167 182.479 19.7667 182.765 20.18C183.059 20.5867 183.509 20.79 184.115 20.79C184.729 20.79 185.182 20.5933 185.475 20.2C185.769 19.8067 185.915 19.1933 185.915 18.36C185.915 17.4867 185.769 16.85 185.475 16.45C185.189 16.0433 184.742 15.84 184.135 15.84ZM190.264 18.5V19.14L187.864 19.5L187.774 19.41V18.77L190.174 18.42L190.264 18.5ZM193.991 15C194.877 15 195.561 15.2733 196.041 15.82C196.521 16.3667 196.761 17.1467 196.761 18.16C196.761 19.2533 196.504 20.1 195.991 20.7C195.477 21.2933 194.747 21.59 193.801 21.59C192.921 21.59 192.241 21.31 191.761 20.75C191.287 20.1833 191.051 19.3833 191.051 18.35C191.051 17.2767 191.304 16.45 191.811 15.87C192.324 15.29 193.051 15 193.991 15ZM193.911 15.84C193.304 15.84 192.851 16.0367 192.551 16.43C192.257 16.8167 192.111 17.4167 192.111 18.23C192.111 19.1167 192.254 19.7667 192.541 20.18C192.834 20.5867 193.284 20.79 193.891 20.79C194.504 20.79 194.957 20.5933 195.251 20.2C195.544 19.8067 195.691 19.1933 195.691 18.36C195.691 17.4867 195.544 16.85 195.251 16.45C194.964 16.0433 194.517 15.84 193.911 15.84ZM200.04 18.5V19.14L197.64 19.5L197.55 19.41V18.77L199.95 18.42L200.04 18.5ZM203.766 15C204.653 15 205.336 15.2733 205.816 15.82C206.296 16.3667 206.536 17.1467 206.536 18.16C206.536 19.2533 206.28 20.1 205.766 20.7C205.253 21.2933 204.523 21.59 203.576 21.59C202.696 21.59 202.016 21.31 201.536 20.75C201.063 20.1833 200.826 19.3833 200.826 18.35C200.826 17.2767 201.08 16.45 201.586 15.87C202.1 15.29 202.826 15 203.766 15ZM203.686 15.84C203.08 15.84 202.626 16.0367 202.326 16.43C202.033 16.8167 201.886 17.4167 201.886 18.23C201.886 19.1167 202.03 19.7667 202.316 20.18C202.61 20.5867 203.06 20.79 203.666 20.79C204.28 20.79 204.733 20.5933 205.026 20.2C205.32 19.8067 205.466 19.1933 205.466 18.36C205.466 17.4867 205.32 16.85 205.026 16.45C204.74 16.0433 204.293 15.84 203.686 15.84ZM216.156 21.5H215.236L215.106 19.55L214.806 16.65H214.736L213.086 20.79H212.266L210.736 16.65H210.646L210.346 19.46L210.186 21.5H209.316L209.986 15.08H211.166L211.466 16.04L212.696 19.45H212.776L214.076 16.01L214.376 15.08H215.546L216.156 21.5ZM220.29 15C221.176 15 221.86 15.2733 222.34 15.82C222.82 16.3667 223.06 17.1467 223.06 18.16C223.06 19.2533 222.803 20.1 222.29 20.7C221.776 21.2933 221.046 21.59 220.1 21.59C219.22 21.59 218.54 21.31 218.06 20.75C217.586 20.1833 217.35 19.3833 217.35 18.35C217.35 17.2767 217.603 16.45 218.11 15.87C218.623 15.29 219.35 15 220.29 15ZM220.21 15.84C219.603 15.84 219.15 16.0367 218.85 16.43C218.556 16.8167 218.41 17.4167 218.41 18.23C218.41 19.1167 218.553 19.7667 218.84 20.18C219.133 20.5867 219.583 20.79 220.19 20.79C220.803 20.79 221.256 20.5933 221.55 20.2C221.843 19.8067 221.99 19.1933 221.99 18.36C221.99 17.4867 221.843 16.85 221.55 16.45C221.263 16.0433 220.816 15.84 220.21 15.84ZM228.154 19.57L228.204 21.5H227.174L227.214 19.48V19.21H226.134C225.754 19.93 225.304 20.6967 224.784 21.51L224.664 21.59C224.304 21.5633 223.977 21.4933 223.684 21.38L223.674 21.26C224.254 20.5267 224.81 19.7667 225.344 18.98C224.47 18.5933 224.034 17.97 224.034 17.11C224.034 16.71 224.127 16.3567 224.314 16.05C224.5 15.7367 224.764 15.4933 225.104 15.32C225.444 15.1467 225.834 15.06 226.274 15.06L228.204 15.08L228.154 19.57ZM227.204 18.36L227.174 15.91L226.334 15.88C225.947 15.8867 225.644 15.9933 225.424 16.2C225.21 16.4067 225.104 16.7067 225.104 17.1C225.104 17.4467 225.187 17.7267 225.354 17.94C225.527 18.1533 225.79 18.3067 226.144 18.4L227.204 18.36ZM234.225 15C235.112 15 235.795 15.2733 236.275 15.82C236.755 16.3667 236.995 17.1467 236.995 18.16C236.995 19.2533 236.738 20.1 236.225 20.7C235.712 21.2933 234.982 21.59 234.035 21.59C233.155 21.59 232.475 21.31 231.995 20.75C231.522 20.1833 231.285 19.3833 231.285 18.35C231.285 17.2767 231.538 16.45 232.045 15.87C232.558 15.29 233.285 15 234.225 15ZM234.145 15.84C233.538 15.84 233.085 16.0367 232.785 16.43C232.492 16.8167 232.345 17.4167 232.345 18.23C232.345 19.1167 232.488 19.7667 232.775 20.18C233.068 20.5867 233.518 20.79 234.125 20.79C234.738 20.79 235.192 20.5933 235.485 20.2C235.778 19.8067 235.925 19.1933 235.925 18.36C235.925 17.4867 235.778 16.85 235.485 16.45C235.198 16.0433 234.752 15.84 234.145 15.84ZM240.864 17.73C241.511 17.73 242.001 17.8767 242.334 18.17C242.674 18.4567 242.844 18.8733 242.844 19.42C242.844 20.0867 242.611 20.6 242.144 20.96C241.678 21.32 241.018 21.5 240.164 21.5H238.464L238.514 19.58L238.464 15.08H242.544L242.604 15.17L242.534 15.93L240.954 15.9H239.494L239.474 17.73H240.864ZM240.524 20.78C240.931 20.7333 241.241 20.6067 241.454 20.4C241.668 20.1867 241.774 19.9033 241.774 19.55C241.774 19.1967 241.668 18.9267 241.454 18.74C241.248 18.5533 240.944 18.46 240.544 18.46L239.464 18.47L239.454 19.49L239.474 20.74L240.524 20.78ZM246.754 15C247.641 15 248.324 15.2733 248.804 15.82C249.284 16.3667 249.524 17.1467 249.524 18.16C249.524 19.2533 249.268 20.1 248.754 20.7C248.241 21.2933 247.511 21.59 246.564 21.59C245.684 21.59 245.004 21.31 244.524 20.75C244.051 20.1833 243.814 19.3833 243.814 18.35C243.814 17.2767 244.068 16.45 244.574 15.87C245.088 15.29 245.814 15 246.754 15ZM246.674 15.84C246.068 15.84 245.614 16.0367 245.314 16.43C245.021 16.8167 244.874 17.4167 244.874 18.23C244.874 19.1167 245.018 19.7667 245.304 20.18C245.598 20.5867 246.048 20.79 246.654 20.79C247.268 20.79 247.721 20.5933 248.014 20.2C248.308 19.8067 248.454 19.1933 248.454 18.36C248.454 17.4867 248.308 16.85 248.014 16.45C247.728 16.0433 247.281 15.84 246.674 15.84ZM253.164 15.07C253.81 15.07 254.307 15.2367 254.654 15.57C255.007 15.8967 255.184 16.37 255.184 16.99C255.184 17.71 254.96 18.28 254.514 18.7C254.074 19.12 253.467 19.33 252.694 19.33H251.984V19.48L252.034 21.5H250.984L251.054 19.57L250.984 15.08L253.164 15.07ZM252.994 18.53C253.36 18.4567 253.637 18.3 253.824 18.06C254.017 17.8133 254.114 17.4867 254.114 17.08C254.114 16.68 254.01 16.3833 253.804 16.19C253.604 15.9967 253.297 15.8933 252.884 15.88L252.034 15.91L251.994 18.51L252.994 18.53ZM258.932 15C259.819 15 260.502 15.2733 260.982 15.82C261.462 16.3667 261.702 17.1467 261.702 18.16C261.702 19.2533 261.446 20.1 260.932 20.7C260.419 21.2933 259.689 21.59 258.742 21.59C257.862 21.59 257.182 21.31 256.702 20.75C256.229 20.1833 255.992 19.3833 255.992 18.35C255.992 17.2767 256.246 16.45 256.752 15.87C257.266 15.29 257.992 15 258.932 15ZM258.852 15.84C258.246 15.84 257.792 16.0367 257.492 16.43C257.199 16.8167 257.052 17.4167 257.052 18.23C257.052 19.1167 257.196 19.7667 257.482 20.18C257.776 20.5867 258.226 20.79 258.832 20.79C259.446 20.79 259.899 20.5933 260.192 20.2C260.486 19.8067 260.632 19.1933 260.632 18.36C260.632 17.4867 260.486 16.85 260.192 16.45C259.906 16.0433 259.459 15.84 258.852 15.84ZM268.271 19.48L268.301 21.5H267.271L267.321 19.57L267.311 18.7L265.671 18.69L264.171 18.7L264.161 19.48L264.201 21.5H263.181L263.221 19.57L263.181 15.08H264.211L264.181 17.84L265.751 17.86L267.301 17.84L267.271 15.08H268.321L268.271 19.48ZM275.031 21.5H273.971L273.821 20.78L273.541 19.89L272.181 19.86L270.951 19.89L270.651 20.73L270.491 21.5H269.461L271.751 15.08H272.961L275.031 21.5ZM273.281 19.05L272.361 16.09H272.291L271.241 19.05L272.251 19.07L273.281 19.05ZM276.918 16.52L276.708 19.78L276.138 19.86L276.028 19.76L276.008 16.56L276.108 16.44L276.808 16.4L276.918 16.52ZM276.358 20.53C276.512 20.53 276.632 20.5733 276.718 20.66C276.805 20.7467 276.848 20.8667 276.848 21.02C276.848 21.1867 276.802 21.32 276.708 21.42C276.615 21.5133 276.488 21.56 276.328 21.56C276.168 21.56 276.045 21.5167 275.958 21.43C275.872 21.3367 275.828 21.2133 275.828 21.06C275.828 20.9 275.875 20.7733 275.968 20.68C276.068 20.58 276.198 20.53 276.358 20.53ZM174.43 31.01C175.083 31.01 175.66 31.1567 176.16 31.45L175.97 32.36L175.87 32.39C175.423 32.0433 174.93 31.87 174.39 31.87C173.803 31.87 173.353 32.07 173.04 32.47C172.733 32.8633 172.58 33.4533 172.58 34.24C172.58 35.0467 172.737 35.66 173.05 36.08C173.363 36.5 173.81 36.71 174.39 36.71C174.67 36.71 174.947 36.6633 175.22 36.57C175.5 36.47 175.757 36.3333 175.99 36.16L176.09 36.22L176.01 37.16C175.437 37.44 174.87 37.58 174.31 37.58C173.41 37.58 172.717 37.3 172.23 36.74C171.743 36.18 171.5 35.3833 171.5 34.35C171.5 33.2833 171.753 32.46 172.26 31.88C172.773 31.3 173.497 31.01 174.43 31.01ZM180.016 31C180.903 31 181.586 31.2733 182.066 31.82C182.546 32.3667 182.786 33.1467 182.786 34.16C182.786 35.2533 182.53 36.1 182.016 36.7C181.503 37.2933 180.773 37.59 179.826 37.59C178.946 37.59 178.266 37.31 177.786 36.75C177.313 36.1833 177.076 35.3833 177.076 34.35C177.076 33.2767 177.33 32.45 177.836 31.87C178.35 31.29 179.076 31 180.016 31ZM179.936 31.84C179.33 31.84 178.876 32.0367 178.576 32.43C178.283 32.8167 178.136 33.4167 178.136 34.23C178.136 35.1167 178.28 35.7667 178.566 36.18C178.86 36.5867 179.31 36.79 179.916 36.79C180.53 36.79 180.983 36.5933 181.276 36.2C181.57 35.8067 181.716 35.1933 181.716 34.36C181.716 33.4867 181.57 32.85 181.276 32.45C180.99 32.0433 180.543 31.84 179.936 31.84ZM188.198 35.48L188.228 37.5H187.198L187.248 35.57L187.208 31.87H185.728L185.678 32.38C185.558 33.6867 185.418 34.7 185.258 35.42C185.105 36.14 184.908 36.6667 184.668 37C184.435 37.3333 184.128 37.54 183.748 37.62L183.458 37.64L183.268 36.81C183.588 36.7033 183.838 36.5033 184.018 36.21C184.205 35.9167 184.355 35.4633 184.468 34.85C184.588 34.2367 184.698 33.3533 184.798 32.2L184.908 31.1L184.898 31.08H188.248L188.198 35.48ZM195.303 35.48L195.333 37.5H194.303L194.353 35.57L194.343 34.7L192.703 34.69L191.203 34.7L191.193 35.48L191.233 37.5H190.213L190.253 35.57L190.213 31.08H191.243L191.213 33.84L192.783 33.86L194.333 33.84L194.303 31.08H195.353L195.303 35.48ZM201.092 36.62L201.152 36.71L201.082 37.5H197.292L197.362 35.57L197.292 31.08H201.102L201.162 31.17L201.082 31.96L199.562 31.92L198.342 31.93L198.312 33.8L199.472 33.82L200.532 33.79L200.602 33.87L200.522 34.66L199.392 34.63L198.302 34.65L198.292 35.48L198.322 36.66L199.542 36.67L201.092 36.62ZM206.614 35.48L206.654 37.5H205.614L205.664 35.57L205.654 34.73H205.564C205.157 35.0967 204.701 35.35 204.194 35.49C203.527 35.49 203.034 35.3433 202.714 35.05C202.401 34.7567 202.237 34.2967 202.224 33.67L202.204 31.08H203.244L203.224 33.39C203.224 33.7567 203.311 34.0467 203.484 34.26C203.664 34.4733 203.904 34.58 204.204 34.58C204.431 34.58 204.671 34.5167 204.924 34.39C205.177 34.2633 205.417 34.0867 205.644 33.86L205.614 31.08H206.664L206.614 35.48ZM213.711 35.48L213.741 37.5H212.711L212.761 35.57L212.751 34.7L211.111 34.69L209.611 34.7L209.601 35.48L209.641 37.5H208.621L208.661 35.57L208.621 31.08H209.651L209.621 33.84L211.191 33.86L212.741 33.84L212.711 31.08H213.761L213.711 35.48ZM217.75 33.66C218.33 33.66 218.774 33.81 219.08 34.11C219.394 34.4033 219.55 34.83 219.55 35.39C219.55 36.0567 219.334 36.5767 218.9 36.95C218.467 37.3167 217.857 37.5 217.07 37.5H215.5L215.55 35.58L215.5 31.08H216.54L216.51 33.66H217.75ZM221.4 35.48L221.45 37.5H220.4L220.47 35.57L220.4 31.08H221.46L221.4 35.48ZM217.41 36.77C217.757 36.7167 218.024 36.5833 218.21 36.37C218.397 36.1567 218.49 35.8733 218.49 35.52C218.49 35.16 218.397 34.8833 218.21 34.69C218.024 34.4967 217.76 34.4033 217.42 34.41L216.5 34.42L216.49 35.49L216.51 36.73L217.41 36.77ZM223.446 35.57L223.396 31.11L224.436 31.06L224.376 35.9H224.456L227.466 31.08H228.556L228.506 35.48L228.546 37.5H227.506L227.556 35.57V32.68H227.476L224.466 37.5H223.396L223.446 35.57ZM227.486 29.66C227.352 29.9467 227.139 30.17 226.846 30.33C226.552 30.49 226.209 30.57 225.816 30.57C225.422 30.57 225.086 30.4933 224.806 30.34C224.526 30.18 224.319 29.9533 224.186 29.66L224.706 29.3H224.826C224.906 29.5267 225.026 29.6933 225.186 29.8C225.346 29.9 225.562 29.95 225.836 29.95C226.116 29.95 226.332 29.9 226.486 29.8C226.646 29.7 226.769 29.5333 226.856 29.3H226.976L227.486 29.66ZM234.497 34.15C235.37 34.37 235.807 34.8833 235.807 35.69C235.807 36.2767 235.584 36.74 235.137 37.08C234.69 37.42 234.084 37.59 233.317 37.59C232.97 37.59 232.64 37.55 232.327 37.47C232.014 37.39 231.747 37.2767 231.527 37.13L231.717 36.23L231.807 36.2C232.014 36.3667 232.247 36.4967 232.507 36.59C232.774 36.6833 233.04 36.73 233.307 36.73C233.74 36.73 234.09 36.6267 234.357 36.42C234.63 36.2133 234.767 35.9433 234.767 35.61C234.767 35.3433 234.684 35.1233 234.517 34.95C234.35 34.7767 234.117 34.66 233.817 34.6H232.467L232.387 34.52L232.457 33.81L233.747 33.83C233.96 33.7367 234.13 33.5933 234.257 33.4C234.39 33.2067 234.457 32.9933 234.457 32.76C234.457 32.1867 234.084 31.9 233.337 31.9C232.817 31.9 232.28 32.07 231.727 32.41L231.607 32.36L231.697 31.45C232.224 31.1567 232.784 31.01 233.377 31.01C234.037 31.01 234.557 31.1533 234.937 31.44C235.317 31.72 235.507 32.1067 235.507 32.6C235.507 32.94 235.417 33.2467 235.237 33.52C235.064 33.7933 234.817 34.0033 234.497 34.15ZM242.053 37.5H240.993L240.843 36.78L240.563 35.89L239.203 35.86L237.973 35.89L237.673 36.73L237.513 37.5H236.483L238.773 31.08H239.983L242.053 37.5ZM240.303 35.05L239.383 32.09H239.313L238.263 35.05L239.273 35.07L240.303 35.05ZM243.28 35.57L243.23 31.11L244.27 31.06L244.21 35.9H244.29L247.3 31.08H248.39L248.34 35.48L248.38 37.5H247.34L247.39 35.57V32.68H247.31L244.3 37.5H243.23L243.28 35.57ZM247.32 29.66C247.186 29.9467 246.973 30.17 246.68 30.33C246.386 30.49 246.043 30.57 245.65 30.57C245.256 30.57 244.92 30.4933 244.64 30.34C244.36 30.18 244.153 29.9533 244.02 29.66L244.54 29.3H244.66C244.74 29.5267 244.86 29.6933 245.02 29.8C245.18 29.9 245.396 29.95 245.67 29.95C245.95 29.95 246.166 29.9 246.32 29.8C246.48 29.7 246.603 29.5333 246.69 29.3H246.81L247.32 29.66ZM254.309 35.48L254.349 37.5H253.309L253.359 35.57L253.349 34.73H253.259C252.853 35.0967 252.396 35.35 251.889 35.49C251.223 35.49 250.729 35.3433 250.409 35.05C250.096 34.7567 249.933 34.2967 249.919 33.67L249.899 31.08H250.939L250.919 33.39C250.919 33.7567 251.006 34.0467 251.179 34.26C251.359 34.4733 251.599 34.58 251.899 34.58C252.126 34.58 252.366 34.5167 252.619 34.39C252.873 34.2633 253.113 34.0867 253.339 33.86L253.309 31.08H254.359L254.309 35.48ZM256.346 35.57L256.296 31.11L257.336 31.06L257.276 35.9H257.356L260.366 31.08H261.456L261.406 35.48L261.446 37.5H260.406L260.456 35.57V32.68H260.376L257.366 37.5H256.296L256.346 35.57ZM264.396 35.48L264.436 37.5H263.406L263.456 35.57L263.406 31.08H264.446L264.396 35.48ZM265.546 34.1C266.319 35.14 267.202 36.2 268.196 37.28L268.186 37.4C267.892 37.48 267.562 37.5433 267.196 37.59L267.066 37.53C266.052 36.29 265.192 35.1633 264.486 34.15V34.08L266.486 31.66L266.886 31.08H268.016L265.546 34.1ZM273.405 31.01C274.058 31.01 274.635 31.1567 275.135 31.45L274.945 32.36L274.845 32.39C274.398 32.0433 273.905 31.87 273.365 31.87C272.778 31.87 272.328 32.07 272.015 32.47C271.708 32.8633 271.555 33.4533 271.555 34.24C271.555 35.0467 271.711 35.66 272.025 36.08C272.338 36.5 272.785 36.71 273.365 36.71C273.645 36.71 273.921 36.6633 274.195 36.57C274.475 36.47 274.731 36.3333 274.965 36.16L275.065 36.22L274.985 37.16C274.411 37.44 273.845 37.58 273.285 37.58C272.385 37.58 271.691 37.3 271.205 36.74C270.718 36.18 270.475 35.3833 270.475 34.35C270.475 33.2833 270.728 32.46 271.235 31.88C271.748 31.3 272.471 31.01 273.405 31.01ZM280.251 31.17L280.191 31.95L279.031 31.89H278.491L278.441 35.48L278.491 37.5H277.451L277.511 35.57L277.461 31.89H276.921L275.741 31.95L275.671 31.86L275.751 31.08H280.191L280.251 31.17ZM285.125 36.62L285.185 36.71L285.115 37.5H281.325L281.395 35.57L281.325 31.08H285.135L285.195 31.17L285.115 31.96L283.595 31.92L282.375 31.93L282.345 33.8L283.505 33.82L284.565 33.79L284.635 33.87L284.555 34.66L283.425 34.63L282.335 34.65L282.325 35.48L282.355 36.66L283.575 36.67L285.125 36.62ZM287.667 35.48L287.707 37.5H286.677L286.727 35.57L286.677 31.08H287.717L287.667 35.48ZM288.817 34.1C289.591 35.14 290.474 36.2 291.467 37.28L291.457 37.4C291.164 37.48 290.834 37.5433 290.467 37.59L290.337 37.53C289.324 36.29 288.464 35.1633 287.757 34.15V34.08L289.757 31.66L290.157 31.08H291.287L288.817 34.1ZM296.695 35.48L296.725 37.5H295.695L295.745 35.57L295.705 31.87H294.225L294.175 32.38C294.055 33.6867 293.915 34.7 293.755 35.42C293.601 36.14 293.405 36.6667 293.165 37C292.931 37.3333 292.625 37.54 292.245 37.62L291.955 37.64L291.765 36.81C292.085 36.7033 292.335 36.5033 292.515 36.21C292.701 35.9167 292.851 35.4633 292.965 34.85C293.085 34.2367 293.195 33.3533 293.295 32.2L293.405 31.1L293.395 31.08H296.745L296.695 35.48ZM302.529 35.57L302.579 37.5H301.549L301.589 35.48V35.21H300.509C300.129 35.93 299.679 36.6967 299.159 37.51L299.039 37.59C298.679 37.5633 298.352 37.4933 298.059 37.38L298.049 37.26C298.629 36.5267 299.185 35.7667 299.719 34.98C298.845 34.5933 298.409 33.97 298.409 33.11C298.409 32.71 298.502 32.3567 298.689 32.05C298.875 31.7367 299.139 31.4933 299.479 31.32C299.819 31.1467 300.209 31.06 300.649 31.06L302.579 31.08L302.529 35.57ZM301.579 34.36L301.549 31.91L300.709 31.88C300.322 31.8867 300.019 31.9933 299.799 32.2C299.585 32.4067 299.479 32.7067 299.479 33.1C299.479 33.4467 299.562 33.7267 299.729 33.94C299.902 34.1533 300.165 34.3067 300.519 34.4L301.579 34.36ZM309.639 35.48L309.669 37.5H308.639L308.689 35.57L308.679 34.7L307.039 34.69L305.539 34.7L305.529 35.48L305.569 37.5H304.549L304.589 35.57L304.549 31.08H305.579L305.549 33.84L307.119 33.86L308.669 33.84L308.639 31.08H309.689L309.639 35.48ZM316.738 35.48L316.768 37.5H315.738L315.788 35.57L315.778 34.7L314.138 34.69L312.638 34.7L312.628 35.48L312.668 37.5H311.648L311.688 35.57L311.648 31.08H312.678L312.648 33.84L314.218 33.86L315.768 33.84L315.738 31.08H316.788L316.738 35.48ZM321.061 31C321.948 31 322.631 31.2733 323.111 31.82C323.591 32.3667 323.831 33.1467 323.831 34.16C323.831 35.2533 323.574 36.1 323.061 36.7C322.548 37.2933 321.818 37.59 320.871 37.59C319.991 37.59 319.311 37.31 318.831 36.75C318.358 36.1833 318.121 35.3833 318.121 34.35C318.121 33.2767 318.374 32.45 318.881 31.87C319.394 31.29 320.121 31 321.061 31ZM320.981 31.84C320.374 31.84 319.921 32.0367 319.621 32.43C319.328 32.8167 319.181 33.4167 319.181 34.23C319.181 35.1167 319.324 35.7667 319.611 36.18C319.904 36.5867 320.354 36.79 320.961 36.79C321.574 36.79 322.028 36.5933 322.321 36.2C322.614 35.8067 322.761 35.1933 322.761 34.36C322.761 33.4867 322.614 32.85 322.321 32.45C322.034 32.0433 321.588 31.84 320.981 31.84ZM328.76 31.17L328.68 31.93L327.31 31.9H326.34L326.3 35.48L326.34 37.5H325.31L325.35 35.57L325.31 31.08H328.69L328.76 31.17ZM331.725 31C332.612 31 333.295 31.2733 333.775 31.82C334.255 32.3667 334.495 33.1467 334.495 34.16C334.495 35.2533 334.238 36.1 333.725 36.7C333.212 37.2933 332.482 37.59 331.535 37.59C330.655 37.59 329.975 37.31 329.495 36.75C329.022 36.1833 328.785 35.3833 328.785 34.35C328.785 33.2767 329.038 32.45 329.545 31.87C330.058 31.29 330.785 31 331.725 31ZM331.645 31.84C331.038 31.84 330.585 32.0367 330.285 32.43C329.992 32.8167 329.845 33.4167 329.845 34.23C329.845 35.1167 329.988 35.7667 330.275 36.18C330.568 36.5867 331.018 36.79 331.625 36.79C332.238 36.79 332.692 36.5933 332.985 36.2C333.278 35.8067 333.425 35.1933 333.425 34.36C333.425 33.4867 333.278 32.85 332.985 32.45C332.698 32.0433 332.252 31.84 331.645 31.84ZM341.045 31.17L340.965 31.93L339.595 31.9H338.625L338.585 35.48L338.625 37.5H337.595L337.635 35.57L337.595 31.08H340.975L341.045 31.17ZM345.347 35.48L345.377 37.5H344.347L344.397 35.57L344.357 31.87H342.877L342.827 32.38C342.707 33.6867 342.567 34.7 342.407 35.42C342.254 36.14 342.057 36.6667 341.817 37C341.584 37.3333 341.277 37.54 340.897 37.62L340.607 37.64L340.417 36.81C340.737 36.7033 340.987 36.5033 341.167 36.21C341.354 35.9167 341.504 35.4633 341.617 34.85C341.737 34.2367 341.847 33.3533 341.947 32.2L342.057 31.1L342.047 31.08H345.397L345.347 35.48ZM352.111 37.5H351.051L350.901 36.78L350.621 35.89L349.261 35.86L348.031 35.89L347.731 36.73L347.571 37.5H346.541L348.831 31.08H350.041L352.111 37.5ZM350.361 35.05L349.441 32.09H349.371L348.321 35.05L349.331 35.07L350.361 35.05ZM355.688 34.15C356.562 34.37 356.998 34.8833 356.998 35.69C356.998 36.2767 356.775 36.74 356.328 37.08C355.882 37.42 355.275 37.59 354.508 37.59C354.162 37.59 353.832 37.55 353.518 37.47C353.205 37.39 352.938 37.2767 352.718 37.13L352.908 36.23L352.998 36.2C353.205 36.3667 353.438 36.4967 353.698 36.59C353.965 36.6833 354.232 36.73 354.498 36.73C354.932 36.73 355.282 36.6267 355.548 36.42C355.822 36.2133 355.958 35.9433 355.958 35.61C355.958 35.3433 355.875 35.1233 355.708 34.95C355.542 34.7767 355.308 34.66 355.008 34.6H353.658L353.578 34.52L353.648 33.81L354.938 33.83C355.152 33.7367 355.322 33.5933 355.448 33.4C355.582 33.2067 355.648 32.9933 355.648 32.76C355.648 32.1867 355.275 31.9 354.528 31.9C354.008 31.9 353.472 32.07 352.918 32.41L352.798 32.36L352.888 31.45C353.415 31.1567 353.975 31.01 354.568 31.01C355.228 31.01 355.748 31.1533 356.128 31.44C356.508 31.72 356.698 32.1067 356.698 32.6C356.698 32.94 356.608 33.2467 356.428 33.52C356.255 33.7933 356.008 34.0033 355.688 34.15ZM363.244 37.5H362.184L362.034 36.78L361.754 35.89L360.394 35.86L359.164 35.89L358.864 36.73L358.704 37.5H357.674L359.964 31.08H361.174L363.244 37.5ZM361.494 35.05L360.574 32.09H360.504L359.454 35.05L360.464 35.07L361.494 35.05Z" fill="white"/>
<path d="M485.5 4H489H493L496.5 5L502.5 7.5L506.5 11L511 17.5L512.5 22C512.833 23.5 513.6 26.6 514 27C514.4 27.4 515.833 31.1667 516.5 33L518.5 37.5L519 43.5V51L517.5 59L515.5 64L473.5 59C472.333 57.8333 470 55.4 470 55C470 54.6 467.333 51.5 466 50L463.5 39.5V33L465.5 25.5L468 17.5L471 11L479 6L485.5 4Z" fill="#EBDDAC"/>
<path d="M472 56H469V76.5L475.5 100L487 104L512 106L524.5 104L526.5 96L524.5 74L517.5 60.5L515.5 60L510.5 58.5L504 56.5L504.5 58.5L505 62L504 65L502.5 67.5L498 69H493L490 68L484 63.5L481 59.5L478 55L475.5 55.5L472 56Z" fill="#C86B6B"/>
<path d="M449.5 319L447 317L448 311L449.5 307.5L450.5 304L453.5 296V292L455 284.5V269.5L452.5 262L453.5 261L456 262L458 261L465.5 262L466.5 264H469.5L471.5 263V262H472.5L473.5 264L468.5 281L467.5 289V296V304V311L468.5 314V317L467.5 319L461.5 321.5H455L449.5 319Z" fill="#613636"/>
<path d="M513 263L514.5 261.5V263.5L516 265H518.5L521.5 264H526L527.5 265H528.5L529.5 263.5V261.5L531 263V265L528.5 275L527.5 283L528 291.5L528.5 293V297.5L532.5 305.5L535 309.5L535.5 312.5L536.5 314.5V318L532.5 320.5H525L519.5 319.5L514.5 316V314.5L513.5 310.5V308.5V300.5L514.5 296.5L513 263Z" fill="#613636"/>
<path d="M470.5 265.5L472 262L472.5 259L473 257L472.5 255V252.5C472.833 250.333 473.6 245.7 474 244.5C474.4 243.3 476.833 237.667 478 235L481.5 226.5V223.5L482.5 222V219.5L483.5 218.5L484 217.5L486 215C486.167 214.333 486.5 212.8 486.5 212C486.5 211.2 493.167 200.667 496.5 195.5C499.667 189.667 506.3 177.6 507.5 176C508.7 174.4 511.667 166.667 513 163L515 161.5L517.5 163L518.5 171L519.5 180C519.167 182.667 518.4 188.4 518 190C517.6 191.6 517.167 199.667 517 203.5V214.5L516 216.5L517.5 218.5L517 221.5V226L516.5 232V243L516 253L515.5 255.5L515 258.5L514.5 263L514 264L516 266.5L523 267.5L530 265L529.5 261L531 259V256L533 253.5V248.5L538 232.5L537.5 220.5L538 217L537.5 215.5L538.5 212L538 210.5L540 203L543.5 192L549 169C549.667 163.333 551 151.7 551 150.5C551 149.3 549.333 142.667 548.5 139.5V135.5L546.5 134.5L541.5 128L534 119L531.5 116H529.5L530.5 117.5L529.5 120.5L527 124L521.5 126.5L515.5 129L510.5 130L504 131H495.5L489.5 130L485 128L484 129L482.5 139L481 140.5L480.5 145.5L479.5 146.5V153.5L477.5 156.5L478.5 159L477.5 163L476 168.5L474.5 183L472.5 194.5L468.5 202L467 204.5L466.5 207L465.5 207.5L464.5 209.5L463 213L460.5 218.5L458.5 226L457.5 235.5V241.5L456.5 248.5L456 251.5V253.5L455.5 255V257V259.5L455 261L460 266L470.5 265.5Z" fill="#6EB6F5"/>
<path d="M494.5 132.5L484.5 128.5L487 125.5L490 122.5L493 118.5H495L504.5 117.5L519 116L527.5 113.5L529 115L530.5 116.5L530 122L526.5 127.5L510.5 131.5L494.5 132.5Z" fill="#C86B6B"/>
<path d="M508.5 104.5L508 107L517.5 106.5L521.5 100L506.5 99.5L508 101L508.5 104.5Z" fill="#FFEEEE"/>
<path d="M543.701 72.4881L552 79.5L547.5 81.5L547.5 88.5L554.5 89.5L557.5 85L566.483 92.0069L561 98.5L557.5 97.5L559.5 93.5L555.5 97L550.5 95.5L553.5 99.5L550.5 103L555.5 101L556.5 104.5L541.759 120.864L530.5 109L518.977 101.345L543.701 72.4881Z" fill="#C4C4C4"/>
<path d="M479.213 122.341C480.636 121.975 481.877 122.665 482.132 123.656C482.386 124.647 481.632 125.85 480.208 126.215C478.784 126.581 477.544 125.891 477.289 124.9C477.034 123.909 477.789 122.707 479.213 122.341Z" stroke="black"/>
<path d="M479.573 121.732L477.165 124.416L473.526 124.318L473.277 123.35L479.573 121.732Z" fill="black"/>
<path d="M472.06 122.63L473.277 123.35L473.526 124.318L473.027 124.445L459.233 126.958L458.5 126.114L472.06 122.63Z" fill="#ADADAD"/>
<path d="M478.327 119.838C479.665 119.23 480.198 117.914 479.774 116.983C479.35 116.051 478.008 115.589 476.67 116.198C475.332 116.806 474.799 118.122 475.223 119.053C475.647 119.985 476.989 120.447 478.327 119.838Z" stroke="black"/>
<path d="M479.444 119.879L475.675 119.397L472.658 121.868L473.072 122.778L479.444 119.879Z" fill="black"/>
<path d="M472.577 124.103L473.073 122.778L472.658 121.868L472.19 122.082L459.875 128.784L459.834 129.901L472.577 124.103Z" fill="#C4C4C4"/>
<circle cx="471.52" cy="123.543" r="0.25" transform="rotate(-104.408 471.52 123.543)" fill="#393939"/>
<path d="M478 112L484.5 112.5L504.5 109L508 107.5L508.5 106V103L508 101L506 99H495.5L488 98.5L486.5 97L485 96L482.5 90.5L480 85.5L477.5 80L476 75.5L475.5 72L475 67.5L472.5 59.5L469 56H466L462.5 59L460.5 64.5L460 74L461.5 81.5L463.5 88.5L466 93.5L471.5 100.5L476 107.5L478 112Z" fill="#935454"/>
<path d="M502.5 118L509.5 117L510 110L505 108L494 109.5L490.5 110.5L484 111.5L481 113L478.5 114.5V116.5L478 119.5L478.5 121.5V124L479 125.5L481 127V129.5L481.5 131.5H483.5V130L485 128L489.5 124L494 118.5L502.5 118Z" fill="#FFEEEE"/>
<path d="M509.5 113V117H514.5L519.5 116.5L527.5 113.5L531 112.5L532.5 112V104.5V101.5L531.5 93L529.5 83C529 81 528 76.7 528 75.5C528 74 527 69.5 526.5 68C526.1 66.8 523.667 63.8333 522.5 62.5L520 60.5L516 60L516.5 60.5L518.5 64.5L520 68.5V72L521 80.5C521.333 81.3333 522.1 83.4 522.5 85C522.9 86.6 522.333 91 522 93L521 97L520.5 99L520 100.5L515 103.5L509.5 106.5L505 108L506 108.5L508 110L509.5 113Z" fill="#935454"/>
<path d="M484 54.5V52L499 45.5V49.5L498.5 55L500 55.5L504 56.5L505.5 60L506 67L496 70.5L488.5 68.5L483.5 66L478.5 59L478 55H480.5L484 54.5Z" fill="#FFEEEE"/>
<path d="M497.248 49.0032L499 45.5L484.875 52.0917C484.396 52.3154 484.195 52.8905 484.432 53.3636C484.477 53.4539 484.536 53.5364 484.608 53.6078L485.555 54.5549C485.85 54.8497 486.19 55.095 486.563 55.2815C487.483 55.7415 488.548 55.8172 489.524 55.4919L490.097 55.301C490.694 55.1019 491.252 54.7987 491.743 54.4054L493.5 53L495.214 51.5713C496.062 50.8647 496.755 49.9904 497.248 49.0032Z" fill="#EAC3C3"/>
<path d="M506.5 29.5C506.5 42.2025 493.77 53 483 53C477.5 53 472 43 469 29.5C469 16.7975 476.23 6.5 487 6.5C497.77 6.5 506.5 16.7975 506.5 29.5Z" fill="#FFEEEE"/>
<path d="M473.5 20.5C473.9 19.7 476.667 17.1667 478 16C478.333 17.1667 479.1 19.7 479.5 20.5C480 21.5 481.5 23.5 482.5 24.5C483.3 25.3 486.833 28.5 488.5 30L491 32.5L494 36L498.5 43.5L502 49.5L507 48.5L510.5 46L509.5 34.5L511.5 27.5L508 21.5L505.5 16L502.5 14.5L496 7L489 6.5L480.5 7L473.5 12L467.5 21.5V28.5L472 42.5L471 38.5C470.833 36.5 470.5 32.4 470.5 32C470.5 31.6 470.833 28.8333 471 27.5C471.667 25.5 473.1 21.3 473.5 20.5Z" fill="#EBDDAC"/>
<path d="M435.503 157C435.503 162.523 431.025 167 425.503 167H266C260.477 167 256 162.523 256 157V107.213C256 101.69 260.477 97.2128 266 97.2128H381.285C382.907 97.2128 384.504 96.8183 385.94 96.0633L445 65L438.033 88.6286C436.355 94.3219 435.503 100.227 435.503 106.162V157Z" fill="#F5807A"/>
<path d="M289.335 116.98L289.375 119H288.345L288.395 117.07L288.345 112.58H289.385L289.335 116.98ZM290.485 115.6C291.259 116.64 292.142 117.7 293.135 118.78L293.125 118.9C292.832 118.98 292.502 119.043 292.135 119.09L292.005 119.03C290.992 117.79 290.132 116.663 289.425 115.65V115.58L291.425 113.16L291.825 112.58H292.955L290.485 115.6ZM298.103 119H297.133L297.003 118.38L296.823 117.83L295.703 117.82L294.703 117.83L294.513 118.33L294.373 119H293.423L295.293 113.99H296.413L298.103 119ZM296.573 117.08L295.863 114.89H295.793L294.983 117.08L295.773 117.09L296.573 117.08ZM301.074 116.34C301.707 117.16 302.417 117.973 303.204 118.78L303.184 118.92C302.871 119 302.557 119.057 302.244 119.09L302.104 119.03C301.271 118.03 300.584 117.153 300.044 116.4V116.33L301.654 114.46L301.974 113.99L303.074 113.98L301.074 116.34ZM300.014 117.41L300.054 119H299.094L299.134 117.5L299.094 113.99H300.064L300.014 117.41ZM308.132 119H307.162L307.032 118.38L306.852 117.83L305.732 117.82L304.732 117.83L304.542 118.33L304.402 119H303.452L305.322 113.99H306.442L308.132 119ZM306.602 117.08L305.892 114.89H305.822L305.012 117.08L305.802 117.09L306.602 117.08ZM312.287 117.5L312.337 119H311.347L311.387 117.41V117.27H310.527C310.253 117.783 309.907 118.36 309.487 119L309.377 119.07C309.017 119.05 308.7 118.987 308.427 118.88L308.417 118.77C308.93 118.17 309.38 117.597 309.767 117.05C309.067 116.737 308.717 116.25 308.717 115.59C308.717 115.27 308.797 114.987 308.957 114.74C309.123 114.493 309.35 114.303 309.637 114.17C309.93 114.03 310.263 113.96 310.637 113.96L312.337 113.97L312.287 117.5ZM311.377 116.5L311.347 114.72L310.697 114.7C310.397 114.707 310.163 114.787 309.997 114.94C309.83 115.087 309.747 115.3 309.747 115.58C309.747 115.833 309.81 116.037 309.937 116.19C310.07 116.343 310.273 116.457 310.547 116.53L311.377 116.5ZM317.657 113.92C318.391 113.92 318.957 114.137 319.357 114.57C319.764 114.997 319.967 115.6 319.967 116.38C319.967 117.247 319.751 117.913 319.317 118.38C318.891 118.847 318.281 119.08 317.487 119.08C316.747 119.08 316.177 118.86 315.777 118.42C315.377 117.98 315.177 117.357 315.177 116.55C315.177 115.71 315.391 115.063 315.817 114.61C316.251 114.15 316.864 113.92 317.657 113.92ZM317.567 114.71C317.087 114.71 316.734 114.847 316.507 115.12C316.287 115.387 316.177 115.823 316.177 116.43C316.177 117.103 316.287 117.583 316.507 117.87C316.727 118.157 317.077 118.3 317.557 118.3C318.044 118.3 318.401 118.167 318.627 117.9C318.854 117.627 318.967 117.183 318.967 116.57C318.967 115.903 318.857 115.427 318.637 115.14C318.417 114.853 318.061 114.71 317.567 114.71ZM323.354 116C323.9 116 324.317 116.117 324.604 116.35C324.89 116.577 325.034 116.907 325.034 117.34C325.034 117.867 324.834 118.277 324.434 118.57C324.034 118.857 323.47 119 322.744 119H321.244L321.294 117.5L321.244 113.97H324.774L324.814 114.05L324.764 114.77L323.434 114.75H322.224L322.204 116H323.354ZM323.054 118.32C323.36 118.28 323.594 118.187 323.754 118.04C323.92 117.893 324.004 117.7 324.004 117.46C324.004 117.207 323.92 117.013 323.754 116.88C323.587 116.74 323.347 116.673 323.034 116.68L322.194 116.69L322.184 117.41L322.204 118.28L323.054 118.32ZM328.39 113.92C329.123 113.92 329.69 114.137 330.09 114.57C330.496 114.997 330.7 115.6 330.7 116.38C330.7 117.247 330.483 117.913 330.05 118.38C329.623 118.847 329.013 119.08 328.22 119.08C327.48 119.08 326.91 118.86 326.51 118.42C326.11 117.98 325.91 117.357 325.91 116.55C325.91 115.71 326.123 115.063 326.55 114.61C326.983 114.15 327.596 113.92 328.39 113.92ZM328.3 114.71C327.82 114.71 327.466 114.847 327.24 115.12C327.02 115.387 326.91 115.823 326.91 116.43C326.91 117.103 327.02 117.583 327.24 117.87C327.46 118.157 327.81 118.3 328.29 118.3C328.776 118.3 329.133 118.167 329.36 117.9C329.586 117.627 329.7 117.183 329.7 116.57C329.7 115.903 329.59 115.427 329.37 115.14C329.15 114.853 328.793 114.71 328.3 114.71ZM333.836 113.98C334.376 113.98 334.793 114.113 335.086 114.38C335.386 114.64 335.536 115.013 335.536 115.5C335.536 116.073 335.346 116.527 334.966 116.86C334.586 117.187 334.073 117.35 333.426 117.35H332.856V117.41L332.896 119H331.936L331.976 117.5L331.936 113.99L333.836 113.98ZM333.666 116.63C334.239 116.51 334.526 116.16 334.526 115.58C334.526 115.293 334.446 115.08 334.286 114.94C334.126 114.8 333.879 114.723 333.546 114.71L332.896 114.73L332.866 116.61L333.666 116.63ZM338.644 113.92C339.377 113.92 339.944 114.137 340.344 114.57C340.75 114.997 340.954 115.6 340.954 116.38C340.954 117.247 340.737 117.913 340.304 118.38C339.877 118.847 339.267 119.08 338.474 119.08C337.734 119.08 337.164 118.86 336.764 118.42C336.364 117.98 336.164 117.357 336.164 116.55C336.164 115.71 336.377 115.063 336.804 114.61C337.237 114.15 337.85 113.92 338.644 113.92ZM338.554 114.71C338.074 114.71 337.72 114.847 337.494 115.12C337.274 115.387 337.164 115.823 337.164 116.43C337.164 117.103 337.274 117.583 337.494 117.87C337.714 118.157 338.064 118.3 338.544 118.3C339.03 118.3 339.387 118.167 339.614 117.9C339.84 117.627 339.954 117.183 339.954 116.57C339.954 115.903 339.844 115.427 339.624 115.14C339.404 114.853 339.047 114.71 338.554 114.71ZM346.49 117.41L346.53 119H345.57L345.6 117.5L345.59 116.9L344.3 116.89L343.12 116.91L343.11 117.41L343.15 119H342.19L342.23 117.5L342.19 113.99H343.16L343.13 116.07L344.37 116.09L345.59 116.08L345.57 113.99H346.54L346.49 117.41ZM352.165 119H351.195L351.065 118.38L350.885 117.83L349.765 117.82L348.765 117.83L348.575 118.33L348.435 119H347.485L349.355 113.99H350.475L352.165 119ZM350.635 117.08L349.925 114.89H349.855L349.045 117.08L349.835 117.09L350.635 117.08ZM352.846 113.89C353.573 113.93 354.133 114.063 354.526 114.29C354.92 114.517 355.116 114.823 355.116 115.21C355.116 115.43 355.05 115.64 354.916 115.84C354.783 116.04 354.596 116.2 354.356 116.32L353.716 116.68L353.686 116.71L353.716 117.31L353.106 117.4L353.026 117.32L352.956 116.49L352.996 116.39L353.716 115.99C354.05 115.81 354.216 115.59 354.216 115.33C354.216 115.11 354.09 114.94 353.836 114.82C353.583 114.693 353.183 114.617 352.636 114.59L352.566 114.5L352.746 113.95L352.846 113.89ZM353.406 118.05C353.56 118.05 353.68 118.097 353.766 118.19C353.86 118.277 353.906 118.393 353.906 118.54C353.906 118.7 353.856 118.827 353.756 118.92C353.663 119.013 353.536 119.06 353.376 119.06C353.223 119.06 353.103 119.02 353.016 118.94C352.936 118.853 352.896 118.733 352.896 118.58C352.896 118.42 352.943 118.293 353.036 118.2C353.13 118.1 353.253 118.05 353.406 118.05ZM361.46 112.67L361.4 113.45L360.24 113.39H359.7L359.65 116.98L359.7 119H358.66L358.72 117.07L358.67 113.39H358.13L356.95 113.45L356.88 113.36L356.96 112.58H361.4L361.46 112.67ZM364.264 115.93C364.758 115.93 365.134 116.047 365.394 116.28C365.654 116.513 365.784 116.85 365.784 117.29C365.784 117.823 365.598 118.243 365.224 118.55C364.851 118.85 364.331 119 363.664 119H362.284L362.334 117.5L362.284 113.97H363.274L363.244 115.93H364.264ZM367.594 117.41L367.634 119H366.674L366.714 117.5L366.674 113.99H367.644L367.594 117.41ZM363.954 118.31C364.214 118.27 364.414 118.173 364.554 118.02C364.701 117.867 364.774 117.667 364.774 117.42C364.774 117.167 364.701 116.97 364.554 116.83C364.408 116.683 364.204 116.613 363.944 116.62L363.234 116.64L363.224 117.41L363.244 118.28L363.954 118.31ZM375.37 118.21V120.27L374.66 120.33L374.52 119H371.04L370.9 120.27L370.18 120.33V118.21H370.62C370.853 118.097 371.037 117.927 371.17 117.7C371.303 117.467 371.413 117.137 371.5 116.71C371.587 116.277 371.667 115.673 371.74 114.9L371.84 114.01L371.83 113.99H374.68L374.64 117.41L374.66 118.21H375.37ZM373.75 117.5L373.72 114.71H372.61L372.57 115.07C372.477 115.997 372.363 116.697 372.23 117.17C372.097 117.637 371.907 117.983 371.66 118.21H373.73L373.75 117.5ZM378.517 113.92C379.25 113.92 379.817 114.137 380.217 114.57C380.623 114.997 380.827 115.6 380.827 116.38C380.827 117.247 380.61 117.913 380.177 118.38C379.75 118.847 379.14 119.08 378.347 119.08C377.607 119.08 377.037 118.86 376.637 118.42C376.237 117.98 376.037 117.357 376.037 116.55C376.037 115.71 376.25 115.063 376.677 114.61C377.11 114.15 377.723 113.92 378.517 113.92ZM378.427 114.71C377.947 114.71 377.593 114.847 377.367 115.12C377.147 115.387 377.037 115.823 377.037 116.43C377.037 117.103 377.147 117.583 377.367 117.87C377.587 118.157 377.937 118.3 378.417 118.3C378.903 118.3 379.26 118.167 379.487 117.9C379.713 117.627 379.827 117.183 379.827 116.57C379.827 115.903 379.717 115.427 379.497 115.14C379.277 114.853 378.92 114.71 378.427 114.71ZM385.386 117.41L385.416 119H384.436L384.486 117.5L384.446 114.72H383.326L383.286 115.07C383.179 116.097 383.056 116.89 382.916 117.45C382.783 118.01 382.613 118.417 382.406 118.67C382.206 118.917 381.939 119.06 381.606 119.1L381.336 119.12L381.166 118.32C381.433 118.247 381.643 118.103 381.796 117.89C381.949 117.67 382.076 117.33 382.176 116.87C382.276 116.41 382.366 115.75 382.446 114.89L382.536 113.99L382.526 113.97H385.436L385.386 117.41ZM387.371 119.07C387.078 119.043 386.765 118.987 386.431 118.9L386.421 118.8C387.101 118.033 387.761 117.213 388.401 116.34L386.561 113.97H387.611L387.911 114.45L389.381 116.32V116.38C388.921 117.1 388.288 117.98 387.481 119.02L387.371 119.07ZM389.411 117.5L389.371 113.97H390.351L390.301 117.41L390.331 119H389.371L389.411 117.5ZM392.231 119.02C391.525 118.12 390.891 117.24 390.331 116.38V116.32L391.801 114.45L392.101 113.97H393.151L391.311 116.34C391.898 117.147 392.558 117.967 393.291 118.8L393.281 118.9C392.948 118.987 392.635 119.043 392.341 119.07L392.231 119.02ZM397.509 118.2L397.579 118.27L397.499 119H394.289L394.329 117.5L394.289 113.99H397.529L397.589 114.07L397.519 114.8L396.249 114.75L395.249 114.76L395.229 116.06L396.189 116.07L397.059 116.04L397.109 116.12L397.049 116.86L396.109 116.83L395.219 116.84L395.209 117.41L395.229 118.23L396.159 118.24L397.509 118.2ZM403.257 117.41L403.297 119H402.337L402.367 117.5L402.357 116.9L401.067 116.89L399.887 116.91L399.877 117.41L399.917 119H398.957L398.997 117.5L398.957 113.99H399.927L399.897 116.07L401.137 116.09L402.357 116.08L402.337 113.99H403.307L403.257 117.41ZM408.744 116C409.291 116 409.707 116.117 409.994 116.35C410.281 116.577 410.424 116.907 410.424 117.34C410.424 117.867 410.224 118.277 409.824 118.57C409.424 118.857 408.861 119 408.134 119H406.634L406.684 117.5L406.634 113.97H410.164L410.204 114.05L410.154 114.77L408.824 114.75H407.614L407.594 116H408.744ZM408.444 118.32C408.751 118.28 408.984 118.187 409.144 118.04C409.311 117.893 409.394 117.7 409.394 117.46C409.394 117.207 409.311 117.013 409.144 116.88C408.977 116.74 408.737 116.673 408.424 116.68L407.584 116.69L407.574 117.41L407.594 118.28L408.444 118.32ZM413.591 115.93C414.084 115.93 414.461 116.047 414.721 116.28C414.981 116.513 415.111 116.85 415.111 117.29C415.111 117.823 414.924 118.243 414.551 118.55C414.177 118.85 413.657 119 412.991 119H411.611L411.661 117.5L411.611 113.97H412.601L412.571 115.93H413.591ZM416.921 117.41L416.961 119H416.001L416.041 117.5L416.001 113.99H416.971L416.921 117.41ZM413.281 118.31C413.541 118.27 413.741 118.173 413.881 118.02C414.027 117.867 414.101 117.667 414.101 117.42C414.101 117.167 414.027 116.97 413.881 116.83C413.734 116.683 413.531 116.613 413.271 116.62L412.561 116.64L412.551 117.41L412.571 118.28L413.281 118.31ZM422.114 117.41L422.144 119H421.164L421.214 117.5L421.174 114.72H420.054L420.014 115.07C419.908 116.097 419.784 116.89 419.644 117.45C419.511 118.01 419.341 118.417 419.134 118.67C418.934 118.917 418.668 119.06 418.334 119.1L418.064 119.12L417.894 118.32C418.161 118.247 418.371 118.103 418.524 117.89C418.678 117.67 418.804 117.33 418.904 116.87C419.004 116.41 419.094 115.75 419.174 114.89L419.264 113.99L419.254 113.97H422.164L422.114 117.41ZM268.836 133.41L268.866 135H267.896L267.936 133.5L267.906 130.73H265.826L265.786 133.41L265.816 135H264.846L264.886 133.5L264.846 129.97H268.886L268.836 133.41ZM272.472 129.92C273.205 129.92 273.772 130.137 274.172 130.57C274.578 130.997 274.782 131.6 274.782 132.38C274.782 133.247 274.565 133.913 274.132 134.38C273.705 134.847 273.095 135.08 272.302 135.08C271.562 135.08 270.992 134.86 270.592 134.42C270.192 133.98 269.992 133.357 269.992 132.55C269.992 131.71 270.205 131.063 270.632 130.61C271.065 130.15 271.678 129.92 272.472 129.92ZM272.382 130.71C271.902 130.71 271.548 130.847 271.322 131.12C271.102 131.387 270.992 131.823 270.992 132.43C270.992 133.103 271.102 133.583 271.322 133.87C271.542 134.157 271.892 134.3 272.372 134.3C272.858 134.3 273.215 134.167 273.442 133.9C273.668 133.627 273.782 133.183 273.782 132.57C273.782 131.903 273.672 131.427 273.452 131.14C273.232 130.853 272.875 130.71 272.382 130.71ZM281.518 135H280.668L280.568 133.48L280.338 131.44H280.278L278.978 134.47H278.228L277.028 131.44H276.948L276.728 133.39L276.598 135H275.788L276.328 129.99H277.448L277.678 130.73L278.618 133.2H278.688L279.688 130.72L279.938 129.99H281.028L281.518 135ZM285.021 129.92C285.754 129.92 286.321 130.137 286.721 130.57C287.127 130.997 287.331 131.6 287.331 132.38C287.331 133.247 287.114 133.913 286.681 134.38C286.254 134.847 285.644 135.08 284.851 135.08C284.111 135.08 283.541 134.86 283.141 134.42C282.741 133.98 282.541 133.357 282.541 132.55C282.541 131.71 282.754 131.063 283.181 130.61C283.614 130.15 284.227 129.92 285.021 129.92ZM284.931 130.71C284.451 130.71 284.097 130.847 283.871 131.12C283.651 131.387 283.541 131.823 283.541 132.43C283.541 133.103 283.651 133.583 283.871 133.87C284.091 134.157 284.441 134.3 284.921 134.3C285.407 134.3 285.764 134.167 285.991 133.9C286.217 133.627 286.331 133.183 286.331 132.57C286.331 131.903 286.221 131.427 286.001 131.14C285.781 130.853 285.424 130.71 284.931 130.71ZM291.546 130.05L291.466 130.77L290.326 130.75H289.576L289.536 133.41L289.576 135H288.586L288.636 133.5L288.586 129.97H291.476L291.546 130.05ZM296.364 135H295.394L295.264 134.38L295.084 133.83L293.964 133.82L292.964 133.83L292.774 134.33L292.634 135H291.684L293.554 129.99H294.674L296.364 135ZM294.834 133.08L294.124 130.89H294.054L293.244 133.08L294.034 133.09L294.834 133.08ZM299.898 130.07L299.838 130.84L298.868 130.77H298.448L298.428 133.41L298.458 135H297.498L297.538 133.5L297.518 130.77H297.108L296.118 130.84L296.048 130.76L296.118 129.99H299.848L299.898 130.07ZM302.913 131.93C303.44 131.93 303.84 132.047 304.113 132.28C304.393 132.513 304.533 132.85 304.533 133.29C304.533 133.823 304.337 134.243 303.943 134.55C303.557 134.85 303.013 135 302.313 135H300.833L300.883 133.5L300.833 129.97H301.823L301.793 131.93H302.913ZM302.603 134.31C302.903 134.27 303.13 134.173 303.283 134.02C303.437 133.867 303.513 133.667 303.513 133.42C303.513 133.167 303.433 132.97 303.273 132.83C303.113 132.683 302.883 132.613 302.583 132.62L301.783 132.64L301.773 133.41L301.793 134.28L302.603 134.31ZM312.816 135H311.966L311.866 133.48L311.636 131.44H311.576L310.276 134.47H309.526L308.326 131.44H308.246L308.026 133.39L307.896 135H307.086L307.626 129.99H308.746L308.976 130.73L309.916 133.2H309.986L310.986 130.72L311.236 129.99H312.326L312.816 135ZM318.589 133.41L318.629 135H317.669L317.699 133.5L317.689 132.9L316.399 132.89L315.219 132.91L315.209 133.41L315.249 135H314.289L314.329 133.5L314.289 129.99H315.259L315.229 132.07L316.469 132.09L317.689 132.08L317.669 129.99H318.639L318.589 133.41ZM323.545 134.2L323.615 134.27L323.535 135H320.325L320.365 133.5L320.325 129.99H323.565L323.625 130.07L323.555 130.8L322.285 130.75L321.285 130.76L321.265 132.06L322.225 132.07L323.095 132.04L323.145 132.12L323.085 132.86L322.145 132.83L321.255 132.84L321.245 133.41L321.265 134.23L322.195 134.24L323.545 134.2ZM332.626 134.21V136.27L331.916 136.33L331.776 135H328.296L328.156 136.27L327.436 136.33V134.21H327.876C328.109 134.097 328.292 133.927 328.426 133.7C328.559 133.467 328.669 133.137 328.756 132.71C328.842 132.277 328.922 131.673 328.996 130.9L329.096 130.01L329.086 129.99H331.936L331.896 133.41L331.916 134.21H332.626ZM331.006 133.5L330.976 130.71H329.866L329.826 131.07C329.732 131.997 329.619 132.697 329.486 133.17C329.352 133.637 329.162 133.983 328.916 134.21H330.986L331.006 133.5ZM337.08 134.2L337.15 134.27L337.07 135H333.86L333.9 133.5L333.86 129.99H337.1L337.16 130.07L337.09 130.8L335.82 130.75L334.82 130.76L334.8 132.06L335.76 132.07L336.63 132.04L336.68 132.12L336.62 132.86L335.68 132.83L334.79 132.84L334.78 133.41L334.8 134.23L335.73 134.24L337.08 134.2ZM341.978 133.41L342.008 135H341.028L341.078 133.5L341.038 130.72H339.918L339.878 131.07C339.771 132.097 339.648 132.89 339.508 133.45C339.374 134.01 339.204 134.417 338.998 134.67C338.798 134.917 338.531 135.06 338.198 135.1L337.928 135.12L337.758 134.32C338.024 134.247 338.234 134.103 338.388 133.89C338.541 133.67 338.668 133.33 338.768 132.87C338.868 132.41 338.958 131.75 339.038 130.89L339.128 129.99L339.118 129.97H342.028L341.978 133.41ZM347.653 135H346.683L346.553 134.38L346.373 133.83L345.253 133.82L344.253 133.83L344.063 134.33L343.923 135H342.973L344.843 129.99H345.963L347.653 135ZM346.123 133.08L345.413 130.89H345.343L344.533 133.08L345.323 133.09L346.123 133.08ZM351.187 130.07L351.127 130.84L350.157 130.77H349.737L349.717 133.41L349.747 135H348.787L348.827 133.5L348.807 130.77H348.397L347.407 130.84L347.337 130.76L347.407 129.99H351.137L351.187 130.07ZM354.202 131.93C354.729 131.93 355.129 132.047 355.402 132.28C355.682 132.513 355.822 132.85 355.822 133.29C355.822 133.823 355.626 134.243 355.232 134.55C354.846 134.85 354.302 135 353.602 135H352.122L352.172 133.5L352.122 129.97H353.112L353.082 131.93H354.202ZM353.892 134.31C354.192 134.27 354.419 134.173 354.572 134.02C354.726 133.867 354.802 133.667 354.802 133.42C354.802 133.167 354.722 132.97 354.562 132.83C354.402 132.683 354.172 132.613 353.872 132.62L353.072 132.64L353.062 133.41L353.082 134.28L353.892 134.31ZM360.595 132.34C361.229 133.16 361.939 133.973 362.725 134.78L362.705 134.92C362.392 135 362.079 135.057 361.765 135.09L361.625 135.03C360.792 134.03 360.105 133.153 359.565 132.4V132.33L361.175 130.46L361.495 129.99L362.595 129.98L360.595 132.34ZM359.535 133.41L359.575 135H358.615L358.655 133.5L358.615 129.99H359.585L359.535 133.41ZM365.519 129.92C366.252 129.92 366.819 130.137 367.219 130.57C367.625 130.997 367.829 131.6 367.829 132.38C367.829 133.247 367.612 133.913 367.179 134.38C366.752 134.847 366.142 135.08 365.349 135.08C364.609 135.08 364.039 134.86 363.639 134.42C363.239 133.98 363.039 133.357 363.039 132.55C363.039 131.71 363.252 131.063 363.679 130.61C364.112 130.15 364.725 129.92 365.519 129.92ZM365.429 130.71C364.949 130.71 364.595 130.847 364.369 131.12C364.149 131.387 364.039 131.823 364.039 132.43C364.039 133.103 364.149 133.583 364.369 133.87C364.589 134.157 364.939 134.3 365.419 134.3C365.905 134.3 366.262 134.167 366.489 133.9C366.715 133.627 366.829 133.183 366.829 132.57C366.829 131.903 366.719 131.427 366.499 131.14C366.279 130.853 365.922 130.71 365.429 130.71ZM372.388 133.41L372.418 135H371.438L371.488 133.5L371.448 130.72H370.328L370.288 131.07C370.181 132.097 370.058 132.89 369.918 133.45C369.785 134.01 369.615 134.417 369.408 134.67C369.208 134.917 368.941 135.06 368.608 135.1L368.338 135.12L368.168 134.32C368.435 134.247 368.645 134.103 368.798 133.89C368.951 133.67 369.078 133.33 369.178 132.87C369.278 132.41 369.368 131.75 369.448 130.89L369.538 129.99L369.528 129.97H372.438L372.388 133.41ZM377.573 133.41L377.603 135H376.623L376.673 133.5L376.633 130.72H375.513L375.473 131.07C375.367 132.097 375.243 132.89 375.103 133.45C374.97 134.01 374.8 134.417 374.593 134.67C374.393 134.917 374.127 135.06 373.793 135.1L373.523 135.12L373.353 134.32C373.62 134.247 373.83 134.103 373.983 133.89C374.137 133.67 374.263 133.33 374.363 132.87C374.463 132.41 374.553 131.75 374.633 130.89L374.723 129.99L374.713 129.97H377.623L377.573 133.41ZM383.249 135H382.279L382.149 134.38L381.969 133.83L380.849 133.82L379.849 133.83L379.659 134.33L379.519 135H378.569L380.439 129.99H381.559L383.249 135ZM381.719 133.08L381.009 130.89H380.939L380.129 133.08L380.919 133.09L381.719 133.08ZM384.354 135.07C384.061 135.043 383.747 134.987 383.414 134.9L383.404 134.8C384.084 134.033 384.744 133.213 385.384 132.34L383.544 129.97H384.594L384.894 130.45L386.364 132.32V132.38C385.904 133.1 385.271 133.98 384.464 135.02L384.354 135.07ZM386.394 133.5L386.354 129.97H387.334L387.284 133.41L387.314 135H386.354L386.394 133.5ZM389.214 135.02C388.507 134.12 387.874 133.24 387.314 132.38V132.32L388.784 130.45L389.084 129.97H390.134L388.294 132.34C388.881 133.147 389.541 133.967 390.274 134.8L390.264 134.9C389.931 134.987 389.617 135.043 389.324 135.07L389.214 135.02ZM391.601 133.92C391.768 133.92 391.898 133.97 391.991 134.07C392.085 134.163 392.131 134.297 392.131 134.47C392.131 134.65 392.081 134.793 391.981 134.9C391.881 135.007 391.745 135.06 391.571 135.06C391.398 135.06 391.261 135.01 391.161 134.91C391.068 134.81 391.021 134.673 391.021 134.5C391.021 134.327 391.071 134.187 391.171 134.08C391.278 133.973 391.421 133.92 391.601 133.92ZM397.478 128.57C398.125 128.57 398.621 128.737 398.968 129.07C399.321 129.397 399.498 129.87 399.498 130.49C399.498 131.21 399.275 131.78 398.828 132.2C398.388 132.62 397.781 132.83 397.008 132.83H396.298V132.98L396.348 135H395.298L395.368 133.07L395.298 128.58L397.478 128.57ZM397.308 132.03C397.675 131.957 397.951 131.8 398.138 131.56C398.331 131.313 398.428 130.987 398.428 130.58C398.428 130.18 398.325 129.883 398.118 129.69C397.918 129.497 397.611 129.393 397.198 129.38L396.348 129.41L396.308 132.01L397.308 132.03ZM404.079 135H403.109L402.979 134.38L402.799 133.83L401.679 133.82L400.679 133.83L400.489 134.33L400.349 135H399.399L401.269 129.99H402.389L404.079 135ZM402.549 133.08L401.839 130.89H401.769L400.959 133.08L401.749 133.09L402.549 133.08ZM407.23 132C407.777 132 408.194 132.117 408.48 132.35C408.767 132.577 408.91 132.907 408.91 133.34C408.91 133.867 408.71 134.277 408.31 134.57C407.91 134.857 407.347 135 406.62 135H405.12L405.17 133.5L405.12 129.97H408.65L408.69 130.05L408.64 130.77L407.31 130.75H406.1L406.08 132H407.23ZM406.93 134.32C407.237 134.28 407.47 134.187 407.63 134.04C407.797 133.893 407.88 133.7 407.88 133.46C407.88 133.207 407.797 133.013 407.63 132.88C407.464 132.74 407.224 132.673 406.91 132.68L406.07 132.69L406.06 133.41L406.08 134.28L406.93 134.32ZM412.267 129.92C413 129.92 413.567 130.137 413.967 130.57C414.373 130.997 414.577 131.6 414.577 132.38C414.577 133.247 414.36 133.913 413.927 134.38C413.5 134.847 412.89 135.08 412.097 135.08C411.357 135.08 410.787 134.86 410.387 134.42C409.987 133.98 409.787 133.357 409.787 132.55C409.787 131.71 410 131.063 410.427 130.61C410.86 130.15 411.473 129.92 412.267 129.92ZM412.177 130.71C411.697 130.71 411.343 130.847 411.117 131.12C410.897 131.387 410.787 131.823 410.787 132.43C410.787 133.103 410.897 133.583 411.117 133.87C411.337 134.157 411.687 134.3 412.167 134.3C412.653 134.3 413.01 134.167 413.237 133.9C413.463 133.627 413.577 133.183 413.577 132.57C413.577 131.903 413.467 131.427 413.247 131.14C413.027 130.853 412.67 130.71 412.177 130.71ZM418.531 130.07L418.471 130.84L417.501 130.77H417.081L417.061 133.41L417.091 135H416.131L416.171 133.5L416.151 130.77H415.741L414.751 130.84L414.681 130.76L414.751 129.99H418.481L418.531 130.07ZM422.849 135H421.879L421.749 134.38L421.569 133.83L420.449 133.82L419.449 133.83L419.259 134.33L419.119 135H418.169L420.039 129.99H421.159L422.849 135ZM421.319 133.08L420.609 130.89H420.539L419.729 133.08L420.519 133.09L421.319 133.08ZM293.96 148.4C294.68 148.553 295.04 148.947 295.04 149.58C295.04 150.547 294.263 151.03 292.71 151.03C292.237 151.03 291.78 151.02 291.34 151L291.38 149.5L291.34 145.99L293.1 145.98C293.62 145.98 294.027 146.087 294.32 146.3C294.613 146.513 294.76 146.82 294.76 147.22C294.76 147.493 294.69 147.733 294.55 147.94C294.41 148.14 294.213 148.293 293.96 148.4ZM293.76 147.35C293.76 147.117 293.683 146.95 293.53 146.85C293.377 146.75 293.123 146.7 292.77 146.7H292.29L292.27 148.09L293.09 148.12C293.317 148.067 293.483 147.98 293.59 147.86C293.703 147.74 293.76 147.57 293.76 147.35ZM292.86 150.33C293.247 150.33 293.54 150.263 293.74 150.13C293.947 149.997 294.05 149.8 294.05 149.54C294.05 149.333 293.98 149.173 293.84 149.06C293.7 148.94 293.487 148.857 293.2 148.81L292.26 148.82L292.25 149.41L292.27 150.3C292.483 150.32 292.68 150.33 292.86 150.33ZM298.331 145.92C299.065 145.92 299.631 146.137 300.031 146.57C300.438 146.997 300.641 147.6 300.641 148.38C300.641 149.247 300.425 149.913 299.991 150.38C299.565 150.847 298.955 151.08 298.161 151.08C297.421 151.08 296.851 150.86 296.451 150.42C296.051 149.98 295.851 149.357 295.851 148.55C295.851 147.71 296.065 147.063 296.491 146.61C296.925 146.15 297.538 145.92 298.331 145.92ZM298.241 146.71C297.761 146.71 297.408 146.847 297.181 147.12C296.961 147.387 296.851 147.823 296.851 148.43C296.851 149.103 296.961 149.583 297.181 149.87C297.401 150.157 297.751 150.3 298.231 150.3C298.718 150.3 299.075 150.167 299.301 149.9C299.528 149.627 299.641 149.183 299.641 148.57C299.641 147.903 299.531 147.427 299.311 147.14C299.091 146.853 298.735 146.71 298.241 146.71ZM303.927 145.92C304.66 145.92 305.227 146.137 305.627 146.57C306.034 146.997 306.237 147.6 306.237 148.38C306.237 149.247 306.02 149.913 305.587 150.38C305.16 150.847 304.55 151.08 303.757 151.08C303.017 151.08 302.447 150.86 302.047 150.42C301.647 149.98 301.447 149.357 301.447 148.55C301.447 147.71 301.66 147.063 302.087 146.61C302.52 146.15 303.134 145.92 303.927 145.92ZM303.837 146.71C303.357 146.71 303.004 146.847 302.777 147.12C302.557 147.387 302.447 147.823 302.447 148.43C302.447 149.103 302.557 149.583 302.777 149.87C302.997 150.157 303.347 150.3 303.827 150.3C304.314 150.3 304.67 150.167 304.897 149.9C305.124 149.627 305.237 149.183 305.237 148.57C305.237 147.903 305.127 147.427 304.907 147.14C304.687 146.853 304.33 146.71 303.837 146.71ZM309.623 148C310.17 148 310.586 148.117 310.873 148.35C311.16 148.577 311.303 148.907 311.303 149.34C311.303 149.867 311.103 150.277 310.703 150.57C310.303 150.857 309.74 151 309.013 151H307.513L307.563 149.5L307.513 145.97H311.043L311.083 146.05L311.033 146.77L309.703 146.75H308.493L308.473 148H309.623ZM309.323 150.32C309.63 150.28 309.863 150.187 310.023 150.04C310.19 149.893 310.273 149.7 310.273 149.46C310.273 149.207 310.19 149.013 310.023 148.88C309.856 148.74 309.616 148.673 309.303 148.68L308.463 148.69L308.453 149.41L308.473 150.28L309.323 150.32ZM319.52 150.25V152.1L318.84 152.16L318.72 151H312.65L312.7 149.5L312.65 145.97H313.64L313.59 149.41L313.61 150.2H315.33L315.35 149.5L315.3 145.97H316.3L316.25 149.41L316.26 150.2H317.98L317.99 149.5L317.96 145.97H318.94L318.9 149.41L318.92 150.25H319.52ZM323.925 150.2L323.995 150.27L323.915 151H320.705L320.745 149.5L320.705 145.99H323.945L324.005 146.07L323.935 146.8L322.665 146.75L321.665 146.76L321.645 148.06L322.605 148.07L323.475 148.04L323.525 148.12L323.465 148.86L322.525 148.83L321.635 148.84L321.625 149.41L321.645 150.23L322.575 150.24L323.925 150.2ZM327.02 148V148.64L324.62 149L324.53 148.91V148.27L326.93 147.92L327.02 148ZM330.514 146.07L330.454 146.84L329.484 146.77H329.064L329.044 149.41L329.074 151H328.114L328.154 149.5L328.134 146.77H327.724L326.734 146.84L326.664 146.76L326.734 145.99H330.464L330.514 146.07ZM333.087 145.92C333.82 145.92 334.387 146.137 334.787 146.57C335.194 146.997 335.397 147.6 335.397 148.38C335.397 149.247 335.18 149.913 334.747 150.38C334.32 150.847 333.71 151.08 332.917 151.08C332.177 151.08 331.607 150.86 331.207 150.42C330.807 149.98 330.607 149.357 330.607 148.55C330.607 147.71 330.82 147.063 331.247 146.61C331.68 146.15 332.294 145.92 333.087 145.92ZM332.997 146.71C332.517 146.71 332.164 146.847 331.937 147.12C331.717 147.387 331.607 147.823 331.607 148.43C331.607 149.103 331.717 149.583 331.937 149.87C332.157 150.157 332.507 150.3 332.987 150.3C333.474 150.3 333.83 150.167 334.057 149.9C334.284 149.627 334.397 149.183 334.397 148.57C334.397 147.903 334.287 147.427 334.067 147.14C333.847 146.853 333.49 146.71 332.997 146.71ZM342.554 149.41L342.594 151H341.634L341.664 149.5L341.654 148.9L340.364 148.89L339.184 148.91L339.174 149.41L339.214 151H338.254L338.294 149.5L338.254 145.99H339.224L339.194 148.07L340.434 148.09L341.654 148.08L341.634 145.99H342.604L342.554 149.41ZM348.229 151H347.259L347.129 150.38L346.949 149.83L345.829 149.82L344.829 149.83L344.639 150.33L344.499 151H343.549L345.419 145.99H346.539L348.229 151ZM346.699 149.08L345.989 146.89H345.919L345.109 149.08L345.899 149.09L346.699 149.08ZM353.792 146.05L353.712 146.77L352.572 146.75H351.822L351.782 149.41L351.822 151H350.832L350.882 149.5L350.832 145.97H353.722L353.792 146.05ZM356.57 145.98C357.11 145.98 357.527 146.113 357.82 146.38C358.12 146.64 358.27 147.013 358.27 147.5C358.27 148.073 358.08 148.527 357.7 148.86C357.32 149.187 356.807 149.35 356.16 149.35H355.59V149.41L355.63 151H354.67L354.71 149.5L354.67 145.99L356.57 145.98ZM356.4 148.63C356.974 148.51 357.26 148.16 357.26 147.58C357.26 147.293 357.18 147.08 357.02 146.94C356.86 146.8 356.614 146.723 356.28 146.71L355.63 146.73L355.6 148.61L356.4 148.63ZM361.089 149.6L361.129 151H360.169L360.219 149.6L360.209 149.32L358.509 145.99H359.539L359.649 146.31L360.649 148.3H360.719L361.819 146.35L361.959 145.99H362.969L361.099 149.3L361.089 149.6ZM367.82 149.41L367.85 151H366.88L366.92 149.5L366.89 146.73H364.81L364.77 149.41L364.8 151H363.83L363.87 149.5L363.83 145.97H367.87L367.82 149.41ZM373.553 149.41L373.583 151H372.613L372.653 149.5L372.623 146.73H370.543L370.503 149.41L370.533 151H369.563L369.603 149.5L369.563 145.97H373.603L373.553 149.41ZM377.055 149.6L377.095 151H376.135L376.185 149.6L376.175 149.32L374.475 145.99H375.505L375.615 146.31L376.615 148.3H376.685L377.785 146.35L377.925 145.99H378.935L377.065 149.3L377.055 149.6ZM385.839 150.21V152.27L385.129 152.33L384.989 151H381.509L381.369 152.27L380.649 152.33V150.21H381.089C381.322 150.097 381.505 149.927 381.639 149.7C381.772 149.467 381.882 149.137 381.969 148.71C382.055 148.277 382.135 147.673 382.209 146.9L382.309 146.01L382.299 145.99H385.149L385.109 149.41L385.129 150.21H385.839ZM384.219 149.5L384.189 146.71H383.079L383.039 147.07C382.945 147.997 382.832 148.697 382.699 149.17C382.565 149.637 382.375 149.983 382.129 150.21H384.199L384.219 149.5ZM391.013 151H390.043L389.913 150.38L389.733 149.83L388.613 149.82L387.613 149.83L387.423 150.33L387.283 151H386.333L388.203 145.99H389.323L391.013 151ZM389.483 149.08L388.773 146.89H388.703L387.893 149.08L388.683 149.09L389.483 149.08ZM394.624 148.4C395.344 148.553 395.704 148.947 395.704 149.58C395.704 150.547 394.927 151.03 393.374 151.03C392.901 151.03 392.444 151.02 392.004 151L392.044 149.5L392.004 145.99L393.764 145.98C394.284 145.98 394.691 146.087 394.984 146.3C395.277 146.513 395.424 146.82 395.424 147.22C395.424 147.493 395.354 147.733 395.214 147.94C395.074 148.14 394.877 148.293 394.624 148.4ZM394.424 147.35C394.424 147.117 394.347 146.95 394.194 146.85C394.041 146.75 393.787 146.7 393.434 146.7H392.954L392.934 148.09L393.754 148.12C393.981 148.067 394.147 147.98 394.254 147.86C394.367 147.74 394.424 147.57 394.424 147.35ZM393.524 150.33C393.911 150.33 394.204 150.263 394.404 150.13C394.611 149.997 394.714 149.8 394.714 149.54C394.714 149.333 394.644 149.173 394.504 149.06C394.364 148.94 394.151 148.857 393.864 148.81L392.924 148.82L392.914 149.41L392.934 150.3C393.147 150.32 393.344 150.33 393.524 150.33ZM400.905 151H399.935L399.805 150.38L399.625 149.83L398.505 149.82L397.505 149.83L397.315 150.33L397.175 151H396.225L398.095 145.99H399.215L400.905 151ZM399.375 149.08L398.665 146.89H398.595L397.785 149.08L398.575 149.09L399.375 149.08ZM405.357 149.41L405.387 151H404.407L404.457 149.5L404.417 146.72H403.297L403.257 147.07C403.15 148.097 403.027 148.89 402.887 149.45C402.753 150.01 402.583 150.417 402.377 150.67C402.177 150.917 401.91 151.06 401.577 151.1L401.307 151.12L401.137 150.32C401.403 150.247 401.613 150.103 401.767 149.89C401.92 149.67 402.047 149.33 402.147 148.87C402.247 148.41 402.337 147.75 402.417 146.89L402.507 145.99L402.497 145.97H405.407L405.357 149.41ZM411.032 151H410.062L409.932 150.38L409.752 149.83L408.632 149.82L407.632 149.83L407.442 150.33L407.302 151H406.352L408.222 145.99H409.342L411.032 151ZM409.502 149.08L408.792 146.89H408.722L407.912 149.08L408.702 149.09L409.502 149.08ZM413.927 145.93C414.474 145.93 414.95 146.037 415.357 146.25L415.177 147.1L415.087 147.13C414.92 147.003 414.727 146.903 414.507 146.83C414.294 146.757 414.07 146.72 413.837 146.72C412.917 146.72 412.457 147.293 412.457 148.44C412.457 149.04 412.577 149.497 412.817 149.81C413.057 150.117 413.407 150.27 413.867 150.27C414.094 150.27 414.324 150.233 414.557 150.16C414.79 150.087 414.997 149.987 415.177 149.86L415.277 149.91L415.197 150.76C414.75 150.967 414.29 151.07 413.817 151.07C413.05 151.07 412.464 150.85 412.057 150.41C411.65 149.97 411.447 149.343 411.447 148.53C411.447 147.697 411.66 147.057 412.087 146.61C412.52 146.157 413.134 145.93 413.927 145.93ZM418.714 147.93C419.241 147.93 419.641 148.047 419.914 148.28C420.194 148.513 420.334 148.85 420.334 149.29C420.334 149.823 420.137 150.243 419.744 150.55C419.357 150.85 418.814 151 418.114 151H416.634L416.684 149.5L416.634 145.97H417.624L417.594 147.93H418.714ZM418.404 150.31C418.704 150.27 418.931 150.173 419.084 150.02C419.237 149.867 419.314 149.667 419.314 149.42C419.314 149.167 419.234 148.97 419.074 148.83C418.914 148.683 418.684 148.613 418.384 148.62L417.584 148.64L417.574 149.41L417.594 150.28L418.404 150.31ZM422.366 146.02L422.156 149.28L421.586 149.36L421.476 149.26L421.456 146.06L421.556 145.94L422.256 145.9L422.366 146.02ZM421.806 150.03C421.959 150.03 422.079 150.073 422.166 150.16C422.252 150.247 422.296 150.367 422.296 150.52C422.296 150.687 422.249 150.82 422.156 150.92C422.062 151.013 421.936 151.06 421.776 151.06C421.616 151.06 421.492 151.017 421.406 150.93C421.319 150.837 421.276 150.713 421.276 150.56C421.276 150.4 421.322 150.273 421.416 150.18C421.516 150.08 421.646 150.03 421.806 150.03Z" fill="white"/>
</svg>
