<svg width="613" height="339" viewBox="0 0 613 339" fill="none" xmlns="http://www.w3.org/2000/svg">
<path d="M128.234 124C128.234 118.477 132.711 114 138.234 114L298.5 114C304.023 114 308.5 118.477 308.5 124V132.155C308.5 137.677 304.023 142.155 298.5 142.155L159.264 142.155C157.143 142.155 155.077 142.829 153.364 144.081L114 172.845L127.305 144.156C127.917 142.837 128.234 141.402 128.234 139.949V124Z" fill="#F5807A"/>
<path d="M141.44 125.345C142.327 125.345 143.01 125.619 143.49 126.165C143.97 126.712 144.21 127.492 144.21 128.505C144.21 129.599 143.953 130.445 143.44 131.045C142.927 131.639 142.197 131.935 141.25 131.935C140.37 131.935 139.69 131.655 139.21 131.095C138.737 130.529 138.5 129.729 138.5 128.695C138.5 127.622 138.753 126.795 139.26 126.215C139.773 125.635 140.5 125.345 141.44 125.345ZM141.36 126.185C140.753 126.185 140.3 126.382 140 126.775C139.707 127.162 139.56 127.762 139.56 128.575C139.56 129.462 139.703 130.112 139.99 130.525C140.283 130.932 140.733 131.135 141.34 131.135C141.953 131.135 142.407 130.939 142.7 130.545C142.993 130.152 143.14 129.539 143.14 128.705C143.14 127.832 142.993 127.195 142.7 126.795C142.413 126.389 141.967 126.185 141.36 126.185ZM145.649 130.785C145.935 130.992 146.079 131.242 146.079 131.535C146.079 132.029 145.725 132.529 145.019 133.035L144.689 132.735L144.679 132.655C145.045 132.355 145.229 132.049 145.229 131.735C145.229 131.529 145.125 131.352 144.919 131.205V131.115C145.165 130.955 145.409 130.845 145.649 130.785ZM151.015 129.185C151.649 130.005 152.359 130.819 153.145 131.625L153.125 131.765C152.812 131.845 152.499 131.902 152.185 131.935L152.045 131.875C151.212 130.875 150.525 129.999 149.985 129.245V129.175L151.595 127.305L151.915 126.835L153.015 126.825L151.015 129.185ZM149.955 130.255L149.995 131.845H149.035L149.075 130.345L149.035 126.835H150.005L149.955 130.255ZM158.073 131.845H157.103L156.973 131.225L156.793 130.675L155.673 130.665L154.673 130.675L154.483 131.175L154.343 131.845H153.393L155.263 126.835H156.383L158.073 131.845ZM156.543 129.925L155.833 127.735H155.763L154.953 129.925L155.743 129.935L156.543 129.925ZM159.178 131.915C158.885 131.889 158.571 131.832 158.238 131.745L158.228 131.645C158.908 130.879 159.568 130.059 160.208 129.185L158.368 126.815H159.418L159.718 127.295L161.188 129.165V129.225C160.728 129.945 160.095 130.825 159.288 131.865L159.178 131.915ZM161.218 130.345L161.178 126.815H162.158L162.108 130.255L162.138 131.845H161.178L161.218 130.345ZM164.038 131.865C163.331 130.965 162.698 130.085 162.138 129.225V129.165L163.608 127.295L163.908 126.815H164.958L163.118 129.185C163.705 129.992 164.365 130.812 165.098 131.645L165.088 131.745C164.755 131.832 164.441 131.889 164.148 131.915L164.038 131.865ZM169.316 131.045L169.386 131.115L169.306 131.845H166.096L166.136 130.345L166.096 126.835H169.336L169.396 126.915L169.326 127.645L168.056 127.595L167.056 127.605L167.036 128.905L167.996 128.915L168.866 128.885L168.916 128.965L168.856 129.705L167.916 129.675L167.026 129.685L167.016 130.255L167.036 131.075L167.966 131.085L169.316 131.045ZM173.824 126.915L173.764 127.685L172.794 127.615H172.374L172.354 130.255L172.384 131.845H171.424L171.464 130.345L171.444 127.615H171.034L170.044 127.685L169.974 127.605L170.044 126.835H173.774L173.824 126.915ZM176.408 126.775C176.954 126.775 177.431 126.882 177.838 127.095L177.658 127.945L177.568 127.975C177.401 127.849 177.208 127.749 176.988 127.675C176.774 127.602 176.551 127.565 176.318 127.565C175.398 127.565 174.938 128.139 174.938 129.285C174.938 129.885 175.058 130.342 175.298 130.655C175.538 130.962 175.888 131.115 176.348 131.115C176.574 131.115 176.804 131.079 177.038 131.005C177.271 130.932 177.478 130.832 177.658 130.705L177.758 130.755L177.678 131.605C177.231 131.812 176.771 131.915 176.298 131.915C175.531 131.915 174.944 131.695 174.538 131.255C174.131 130.815 173.928 130.189 173.928 129.375C173.928 128.542 174.141 127.902 174.568 127.455C175.001 127.002 175.614 126.775 176.408 126.775ZM182.375 130.345L182.425 131.845H181.435L181.475 130.255V130.115H180.615C180.341 130.629 179.995 131.205 179.575 131.845L179.465 131.915C179.105 131.895 178.788 131.832 178.515 131.725L178.505 131.615C179.018 131.015 179.468 130.442 179.855 129.895C179.155 129.582 178.805 129.095 178.805 128.435C178.805 128.115 178.885 127.832 179.045 127.585C179.211 127.339 179.438 127.149 179.725 127.015C180.018 126.875 180.351 126.805 180.725 126.805L182.425 126.815L182.375 130.345ZM181.465 129.345L181.435 127.565L180.785 127.545C180.485 127.552 180.251 127.632 180.085 127.785C179.918 127.932 179.835 128.145 179.835 128.425C179.835 128.679 179.898 128.882 180.025 129.035C180.158 129.189 180.361 129.302 180.635 129.375L181.465 129.345ZM184.301 130.785C184.588 130.992 184.731 131.242 184.731 131.535C184.731 132.029 184.378 132.529 183.671 133.035L183.341 132.735L183.331 132.655C183.698 132.355 183.881 132.049 183.881 131.735C183.881 131.529 183.778 131.352 183.571 131.205V131.115C183.818 130.955 184.061 130.845 184.301 130.785ZM189.458 130.445L189.498 131.845H188.538L188.588 130.445L188.578 130.165L186.878 126.835H187.908L188.018 127.155L189.018 129.145H189.088L190.188 127.195L190.328 126.835H191.338L189.468 130.145L189.458 130.445ZM199.291 131.845H198.441L198.341 130.325L198.111 128.285H198.051L196.751 131.315H196.001L194.801 128.285H194.721L194.501 130.235L194.371 131.845H193.561L194.101 126.835H195.221L195.451 127.575L196.391 130.045H196.461L197.461 127.565L197.711 126.835H198.801L199.291 131.845ZM203.984 131.045L204.054 131.115L203.974 131.845H200.764L200.804 130.345L200.764 126.835H204.004L204.064 126.915L203.994 127.645L202.724 127.595L201.724 127.605L201.704 128.905L202.664 128.915L203.534 128.885L203.584 128.965L203.524 129.705L202.584 129.675L201.694 129.685L201.684 130.255L201.704 131.075L202.634 131.085L203.984 131.045ZM209.732 130.255L209.772 131.845H208.812L208.842 130.345L208.832 129.745L207.542 129.735L206.362 129.755L206.352 130.255L206.392 131.845H205.432L205.472 130.345L205.432 126.835H206.402L206.372 128.915L207.612 128.935L208.832 128.925L208.812 126.835H209.782L209.732 130.255ZM214.767 130.345L214.817 131.845H213.827L213.867 130.255V130.115H213.007C212.734 130.629 212.387 131.205 211.967 131.845L211.857 131.915C211.497 131.895 211.181 131.832 210.907 131.725L210.897 131.615C211.411 131.015 211.861 130.442 212.247 129.895C211.547 129.582 211.197 129.095 211.197 128.435C211.197 128.115 211.277 127.832 211.437 127.585C211.604 127.339 211.831 127.149 212.117 127.015C212.411 126.875 212.744 126.805 213.117 126.805L214.817 126.815L214.767 130.345ZM213.857 129.345L213.827 127.565L213.177 127.545C212.877 127.552 212.644 127.632 212.477 127.785C212.311 127.932 212.227 128.145 212.227 128.425C212.227 128.679 212.291 128.882 212.417 129.035C212.551 129.189 212.754 129.302 213.027 129.375L213.857 129.345ZM222.408 130.255L222.448 131.845H221.488L221.518 130.345L221.508 129.745L220.218 129.735L219.038 129.755L219.028 130.255L219.068 131.845H218.108L218.148 130.345L218.108 126.835H219.078L219.048 128.915L220.288 128.935L221.508 128.925L221.488 126.835H222.458L222.408 130.255ZM228.083 131.845H227.113L226.983 131.225L226.803 130.675L225.683 130.665L224.683 130.675L224.493 131.175L224.353 131.845H223.403L225.273 126.835H226.393L228.083 131.845ZM226.553 129.925L225.843 127.735H225.773L224.963 129.925L225.753 129.935L226.553 129.925ZM232.18 130.255L232.22 131.845H231.24L231.28 130.345L231.27 129.725H231.2C230.86 130.012 230.487 130.209 230.08 130.315C229.52 130.315 229.107 130.199 228.84 129.965C228.574 129.725 228.437 129.352 228.43 128.845L228.41 126.815H229.39L229.38 128.585C229.38 128.859 229.447 129.075 229.58 129.235C229.72 129.389 229.914 129.465 230.16 129.465C230.334 129.465 230.517 129.425 230.71 129.345C230.904 129.259 231.087 129.142 231.26 128.995L231.24 126.815H232.23L232.18 130.255ZM237.858 131.845H236.888L236.758 131.225L236.578 130.675L235.458 130.665L234.458 130.675L234.268 131.175L234.128 131.845H233.178L235.048 126.835H236.168L237.858 131.845ZM236.328 129.925L235.618 127.735H235.548L234.738 129.925L235.528 129.935L236.328 129.925ZM242.31 130.255L242.34 131.845H241.36L241.41 130.345L241.37 127.565H240.25L240.21 127.915C240.103 128.942 239.98 129.735 239.84 130.295C239.706 130.855 239.536 131.262 239.33 131.515C239.13 131.762 238.863 131.905 238.53 131.945L238.26 131.965L238.09 131.165C238.356 131.092 238.566 130.949 238.72 130.735C238.873 130.515 239 130.175 239.1 129.715C239.2 129.255 239.29 128.595 239.37 127.735L239.46 126.835L239.45 126.815H242.36L242.31 130.255ZM245.939 126.765C246.672 126.765 247.239 126.982 247.639 127.415C248.045 127.842 248.249 128.445 248.249 129.225C248.249 130.092 248.032 130.759 247.599 131.225C247.172 131.692 246.562 131.925 245.769 131.925C245.029 131.925 244.459 131.705 244.059 131.265C243.659 130.825 243.459 130.202 243.459 129.395C243.459 128.555 243.672 127.909 244.099 127.455C244.532 126.995 245.145 126.765 245.939 126.765ZM245.849 127.555C245.369 127.555 245.015 127.692 244.789 127.965C244.569 128.232 244.459 128.669 244.459 129.275C244.459 129.949 244.569 130.429 244.789 130.715C245.009 131.002 245.359 131.145 245.839 131.145C246.325 131.145 246.682 131.012 246.909 130.745C247.135 130.472 247.249 130.029 247.249 129.415C247.249 128.749 247.139 128.272 246.919 127.985C246.699 127.699 246.342 127.555 245.849 127.555ZM255.096 130.255L255.126 131.845H254.156L254.196 130.345L254.166 127.575H252.086L252.046 130.255L252.076 131.845H251.106L251.146 130.345L251.106 126.815H255.146L255.096 130.255ZM258.732 126.765C259.465 126.765 260.032 126.982 260.432 127.415C260.838 127.842 261.042 128.445 261.042 129.225C261.042 130.092 260.825 130.759 260.392 131.225C259.965 131.692 259.355 131.925 258.562 131.925C257.822 131.925 257.252 131.705 256.852 131.265C256.452 130.825 256.252 130.202 256.252 129.395C256.252 128.555 256.465 127.909 256.892 127.455C257.325 126.995 257.938 126.765 258.732 126.765ZM258.642 127.555C258.162 127.555 257.808 127.692 257.582 127.965C257.362 128.232 257.252 128.669 257.252 129.275C257.252 129.949 257.362 130.429 257.582 130.715C257.802 131.002 258.152 131.145 258.632 131.145C259.118 131.145 259.475 131.012 259.702 130.745C259.928 130.472 260.042 130.029 260.042 129.415C260.042 128.749 259.932 128.272 259.712 127.985C259.492 127.699 259.135 127.555 258.642 127.555ZM265.601 130.255L265.631 131.845H264.651L264.701 130.345L264.661 127.565H263.541L263.501 127.915C263.394 128.942 263.271 129.735 263.131 130.295C262.997 130.855 262.827 131.262 262.621 131.515C262.421 131.762 262.154 131.905 261.821 131.945L261.551 131.965L261.381 131.165C261.647 131.092 261.857 130.949 262.011 130.735C262.164 130.515 262.291 130.175 262.391 129.715C262.491 129.255 262.581 128.595 262.661 127.735L262.751 126.835L262.741 126.815H265.651L265.601 130.255ZM269.096 130.445L269.136 131.845H268.176L268.226 130.445L268.216 130.165L266.516 126.835H267.546L267.656 127.155L268.656 129.145H268.726L269.826 127.195L269.966 126.835H270.976L269.106 130.145L269.096 130.445ZM275.198 130.255L275.238 131.845H274.258L274.298 130.345L274.288 129.725H274.218C273.878 130.012 273.505 130.209 273.098 130.315C272.538 130.315 272.125 130.199 271.858 129.965C271.591 129.725 271.455 129.352 271.448 128.845L271.428 126.815H272.408L272.398 128.585C272.398 128.859 272.465 129.075 272.598 129.235C272.738 129.389 272.931 129.465 273.178 129.465C273.351 129.465 273.535 129.425 273.728 129.345C273.921 129.259 274.105 129.142 274.278 128.995L274.258 126.815H275.248L275.198 130.255ZM280.876 131.845H279.906L279.776 131.225L279.596 130.675L278.476 130.665L277.476 130.675L277.286 131.175L277.146 131.845H276.196L278.066 126.835H279.186L280.876 131.845ZM279.346 129.925L278.636 127.735H278.566L277.756 129.925L278.546 129.935L279.346 129.925ZM284.41 126.915L284.35 127.685L283.38 127.615H282.96L282.94 130.255L282.97 131.845H282.01L282.05 130.345L282.03 127.615H281.62L280.63 127.685L280.56 127.605L280.63 126.835H284.36L284.41 126.915ZM287.425 128.775C287.952 128.775 288.352 128.892 288.625 129.125C288.905 129.359 289.045 129.695 289.045 130.135C289.045 130.669 288.848 131.089 288.455 131.395C288.068 131.695 287.525 131.845 286.825 131.845H285.345L285.395 130.345L285.345 126.815H286.335L286.305 128.775H287.425ZM287.115 131.155C287.415 131.115 287.642 131.019 287.795 130.865C287.948 130.712 288.025 130.512 288.025 130.265C288.025 130.012 287.945 129.815 287.785 129.675C287.625 129.529 287.395 129.459 287.095 129.465L286.295 129.485L286.285 130.255L286.305 131.125L287.115 131.155ZM292.286 126.775C292.833 126.775 293.31 126.882 293.716 127.095L293.536 127.945L293.446 127.975C293.28 127.849 293.086 127.749 292.866 127.675C292.653 127.602 292.43 127.565 292.196 127.565C291.276 127.565 290.816 128.139 290.816 129.285C290.816 129.885 290.936 130.342 291.176 130.655C291.416 130.962 291.766 131.115 292.226 131.115C292.453 131.115 292.683 131.079 292.916 131.005C293.15 130.932 293.356 130.832 293.536 130.705L293.636 130.755L293.556 131.605C293.11 131.812 292.65 131.915 292.176 131.915C291.41 131.915 290.823 131.695 290.416 131.255C290.01 130.815 289.806 130.189 289.806 129.375C289.806 128.542 290.02 127.902 290.446 127.455C290.88 127.002 291.493 126.775 292.286 126.775ZM298.254 130.345L298.304 131.845H297.314L297.354 130.255V130.115H296.494C296.22 130.629 295.874 131.205 295.454 131.845L295.344 131.915C294.984 131.895 294.667 131.832 294.394 131.725L294.384 131.615C294.897 131.015 295.347 130.442 295.734 129.895C295.034 129.582 294.684 129.095 294.684 128.435C294.684 128.115 294.764 127.832 294.924 127.585C295.09 127.339 295.317 127.149 295.604 127.015C295.897 126.875 296.23 126.805 296.604 126.805L298.304 126.815L298.254 130.345ZM297.344 129.345L297.314 127.565L296.664 127.545C296.364 127.552 296.13 127.632 295.964 127.785C295.797 127.932 295.714 128.145 295.714 128.425C295.714 128.679 295.777 128.882 295.904 129.035C296.037 129.189 296.24 129.302 296.514 129.375L297.344 129.345ZM300.823 126.865L300.613 130.125L300.043 130.205L299.933 130.105L299.913 126.905L300.013 126.785L300.713 126.745L300.823 126.865ZM300.263 130.875C300.416 130.875 300.536 130.919 300.623 131.005C300.709 131.092 300.753 131.212 300.753 131.365C300.753 131.532 300.706 131.665 300.613 131.765C300.519 131.859 300.393 131.905 300.233 131.905C300.073 131.905 299.949 131.862 299.863 131.775C299.776 131.682 299.733 131.559 299.733 131.405C299.733 131.245 299.779 131.119 299.873 131.025C299.973 130.925 300.103 130.875 300.263 130.875Z" fill="white"/>
<path d="M374.503 84.5C374.503 90.0228 370.025 94.5 364.503 94.5H205C199.477 94.5 195 90.0228 195 84.5V75.2128C195 69.69 199.477 65.2128 205 65.2128H344.654C345.874 65.2128 347.084 64.9895 348.224 64.554L385 50.5L374.503 65.2128V84.5Z" fill="#6EB6F5"/>
<path d="M213.384 79.23C214.031 79.23 214.521 79.3767 214.854 79.67C215.194 79.9567 215.364 80.3733 215.364 80.92C215.364 81.5867 215.131 82.1 214.664 82.46C214.197 82.82 213.537 83 212.684 83H210.984L211.034 81.08L210.984 76.58H215.064L215.124 76.67L215.054 77.43L213.474 77.4H212.014L211.994 79.23H213.384ZM213.044 82.28C213.451 82.2333 213.761 82.1067 213.974 81.9C214.187 81.6867 214.294 81.4033 214.294 81.05C214.294 80.6967 214.187 80.4267 213.974 80.24C213.767 80.0533 213.464 79.96 213.064 79.96L211.984 79.97L211.974 80.99L211.994 82.24L213.044 82.28ZM218.524 79.93C219.018 79.93 219.394 80.0467 219.654 80.28C219.914 80.5133 220.044 80.85 220.044 81.29C220.044 81.8233 219.858 82.2433 219.484 82.55C219.111 82.85 218.591 83 217.924 83H216.544L216.594 81.5L216.544 77.97H217.534L217.504 79.93H218.524ZM221.854 81.41L221.894 83H220.934L220.974 81.5L220.934 77.99H221.904L221.854 81.41ZM218.214 82.31C218.474 82.27 218.674 82.1733 218.814 82.02C218.961 81.8667 219.034 81.6667 219.034 81.42C219.034 81.1667 218.961 80.97 218.814 80.83C218.668 80.6833 218.464 80.6133 218.204 80.62L217.494 80.64L217.484 81.41L217.504 82.28L218.214 82.31ZM226.551 78.07L226.491 78.84L225.521 78.77H225.101L225.081 81.41L225.111 83H224.151L224.191 81.5L224.171 78.77H223.761L222.771 78.84L222.701 78.76L222.771 77.99H226.501L226.551 78.07ZM229.566 79.93C230.092 79.93 230.492 80.0467 230.766 80.28C231.046 80.5133 231.186 80.85 231.186 81.29C231.186 81.8233 230.989 82.2433 230.596 82.55C230.209 82.85 229.666 83 228.966 83H227.486L227.536 81.5L227.486 77.97H228.476L228.446 79.93H229.566ZM229.256 82.31C229.556 82.27 229.782 82.1733 229.936 82.02C230.089 81.8667 230.166 81.6667 230.166 81.42C230.166 81.1667 230.086 80.97 229.926 80.83C229.766 80.6833 229.536 80.6133 229.236 80.62L228.436 80.64L228.426 81.41L228.446 82.28L229.256 82.31ZM234.029 81.5L233.979 78L234.969 77.95L234.909 81.5H234.979L237.329 77.97H238.379L238.329 81.41L238.359 83H237.379L237.429 81.5V79.47H237.349L234.999 83H233.979L234.029 81.5ZM243.523 81.41L243.553 83H242.573L242.623 81.5L242.583 78.72H241.463L241.423 79.07C241.316 80.0967 241.193 80.89 241.053 81.45C240.919 82.01 240.749 82.4167 240.543 82.67C240.343 82.9167 240.076 83.06 239.743 83.1L239.473 83.12L239.303 82.32C239.569 82.2467 239.779 82.1033 239.933 81.89C240.086 81.67 240.213 81.33 240.313 80.87C240.413 80.41 240.503 79.75 240.583 78.89L240.673 77.99L240.663 77.97H243.573L243.523 81.41ZM245.298 81.5L245.248 78L246.238 77.95L246.178 81.5H246.248L248.598 77.97H249.648L249.598 81.41L249.628 83H248.648L248.698 81.5V79.47H248.618L246.268 83H245.248L245.298 81.5ZM257.244 81.41L257.284 83H256.324L256.354 81.5L256.344 80.9L255.054 80.89L253.874 80.91L253.864 81.41L253.904 83H252.944L252.984 81.5L252.944 77.99H253.914L253.884 80.07L255.124 80.09L256.344 80.08L256.324 77.99H257.294L257.244 81.41ZM262.199 82.2L262.269 82.27L262.189 83H258.979L259.019 81.5L258.979 77.99H262.219L262.279 78.07L262.209 78.8L260.939 78.75L259.939 78.76L259.919 80.06L260.879 80.07L261.749 80.04L261.799 80.12L261.739 80.86L260.799 80.83L259.909 80.84L259.899 81.41L259.919 82.23L260.849 82.24L262.199 82.2ZM267.398 80C267.945 80 268.362 80.1167 268.648 80.35C268.935 80.5767 269.078 80.9067 269.078 81.34C269.078 81.8667 268.878 82.2767 268.478 82.57C268.078 82.8567 267.515 83 266.788 83H265.288L265.338 81.5L265.288 77.97H268.818L268.858 78.05L268.808 78.77L267.478 78.75H266.268L266.248 80H267.398ZM267.098 82.32C267.405 82.28 267.638 82.1867 267.798 82.04C267.965 81.8933 268.048 81.7 268.048 81.46C268.048 81.2067 267.965 81.0133 267.798 80.88C267.632 80.74 267.392 80.6733 267.078 80.68L266.238 80.69L266.228 81.41L266.248 82.28L267.098 82.32ZM272.245 79.93C272.738 79.93 273.115 80.0467 273.375 80.28C273.635 80.5133 273.765 80.85 273.765 81.29C273.765 81.8233 273.578 82.2433 273.205 82.55C272.832 82.85 272.312 83 271.645 83H270.265L270.315 81.5L270.265 77.97H271.255L271.225 79.93H272.245ZM275.575 81.41L275.615 83H274.655L274.695 81.5L274.655 77.99H275.625L275.575 81.41ZM271.935 82.31C272.195 82.27 272.395 82.1733 272.535 82.02C272.682 81.8667 272.755 81.6667 272.755 81.42C272.755 81.1667 272.682 80.97 272.535 80.83C272.388 80.6833 272.185 80.6133 271.925 80.62L271.215 80.64L271.205 81.41L271.225 82.28L271.935 82.31ZM280.271 78.07L280.211 78.84L279.241 78.77H278.821L278.801 81.41L278.831 83H277.871L277.911 81.5L277.891 78.77H277.481L276.491 78.84L276.421 78.76L276.491 77.99H280.221L280.271 78.07ZM283.286 79.93C283.813 79.93 284.213 80.0467 284.486 80.28C284.766 80.5133 284.906 80.85 284.906 81.29C284.906 81.8233 284.71 82.2433 284.316 82.55C283.93 82.85 283.386 83 282.686 83H281.206L281.256 81.5L281.206 77.97H282.196L282.166 79.93H283.286ZM282.976 82.31C283.276 82.27 283.503 82.1733 283.656 82.02C283.81 81.8667 283.886 81.6667 283.886 81.42C283.886 81.1667 283.806 80.97 283.646 80.83C283.486 80.6833 283.256 80.6133 282.956 80.62L282.156 80.64L282.146 81.41L282.166 82.28L282.976 82.31ZM286.598 81.94C286.884 82.1467 287.028 82.3967 287.028 82.69C287.028 83.1833 286.674 83.6833 285.968 84.19L285.638 83.89L285.628 83.81C285.994 83.51 286.178 83.2033 286.178 82.89C286.178 82.6833 286.074 82.5067 285.868 82.36V82.27C286.114 82.11 286.358 82 286.598 81.94ZM292.605 80.4C293.325 80.5533 293.685 80.9467 293.685 81.58C293.685 82.5467 292.908 83.03 291.355 83.03C290.881 83.03 290.425 83.02 289.985 83L290.025 81.5L289.985 77.99L291.745 77.98C292.265 77.98 292.671 78.0867 292.965 78.3C293.258 78.5133 293.405 78.82 293.405 79.22C293.405 79.4933 293.335 79.7333 293.195 79.94C293.055 80.14 292.858 80.2933 292.605 80.4ZM292.405 79.35C292.405 79.1167 292.328 78.95 292.175 78.85C292.021 78.75 291.768 78.7 291.415 78.7H290.935L290.915 80.09L291.735 80.12C291.961 80.0667 292.128 79.98 292.235 79.86C292.348 79.74 292.405 79.57 292.405 79.35ZM291.505 82.33C291.891 82.33 292.185 82.2633 292.385 82.13C292.591 81.9967 292.695 81.8 292.695 81.54C292.695 81.3333 292.625 81.1733 292.485 81.06C292.345 80.94 292.131 80.8567 291.845 80.81L290.905 80.82L290.895 81.41L290.915 82.3C291.128 82.32 291.325 82.33 291.505 82.33ZM296.976 77.92C297.709 77.92 298.276 78.1367 298.676 78.57C299.082 78.9967 299.286 79.6 299.286 80.38C299.286 81.2467 299.069 81.9133 298.636 82.38C298.209 82.8467 297.599 83.08 296.806 83.08C296.066 83.08 295.496 82.86 295.096 82.42C294.696 81.98 294.496 81.3567 294.496 80.55C294.496 79.71 294.709 79.0633 295.136 78.61C295.569 78.15 296.182 77.92 296.976 77.92ZM296.886 78.71C296.406 78.71 296.052 78.8467 295.826 79.12C295.606 79.3867 295.496 79.8233 295.496 80.43C295.496 81.1033 295.606 81.5833 295.826 81.87C296.046 82.1567 296.396 82.3 296.876 82.3C297.362 82.3 297.719 82.1667 297.946 81.9C298.172 81.6267 298.286 81.1833 298.286 80.57C298.286 79.9033 298.176 79.4267 297.956 79.14C297.736 78.8533 297.379 78.71 296.886 78.71ZM303.24 78.07L303.18 78.84L302.21 78.77H301.79L301.77 81.41L301.8 83H300.84L300.88 81.5L300.86 78.77H300.45L299.46 78.84L299.39 78.76L299.46 77.99H303.19L303.24 78.07ZM308.356 80.4C309.076 80.5533 309.436 80.9467 309.436 81.58C309.436 82.5467 308.66 83.03 307.106 83.03C306.633 83.03 306.176 83.02 305.736 83L305.776 81.5L305.736 77.99L307.496 77.98C308.016 77.98 308.423 78.0867 308.716 78.3C309.01 78.5133 309.156 78.82 309.156 79.22C309.156 79.4933 309.086 79.7333 308.946 79.94C308.806 80.14 308.61 80.2933 308.356 80.4ZM308.156 79.35C308.156 79.1167 308.08 78.95 307.926 78.85C307.773 78.75 307.52 78.7 307.166 78.7H306.686L306.666 80.09L307.486 80.12C307.713 80.0667 307.88 79.98 307.986 79.86C308.1 79.74 308.156 79.57 308.156 79.35ZM307.256 82.33C307.643 82.33 307.936 82.2633 308.136 82.13C308.343 81.9967 308.446 81.8 308.446 81.54C308.446 81.3333 308.376 81.1733 308.236 81.06C308.096 80.94 307.883 80.8567 307.596 80.81L306.656 80.82L306.646 81.41L306.666 82.3C306.88 82.32 307.076 82.33 307.256 82.33ZM315.649 81.41L315.689 83H314.709L314.749 81.5L314.739 80.88H314.669C314.329 81.1667 313.956 81.3633 313.549 81.47C312.989 81.47 312.576 81.3533 312.309 81.12C312.043 80.88 311.906 80.5067 311.899 80L311.879 77.97H312.859L312.849 79.74C312.849 80.0133 312.916 80.23 313.049 80.39C313.189 80.5433 313.383 80.62 313.629 80.62C313.803 80.62 313.986 80.58 314.179 80.5C314.373 80.4133 314.556 80.2967 314.729 80.15L314.709 77.97H315.699L315.649 81.41ZM320.607 82.2L320.677 82.27L320.597 83H317.387L317.427 81.5L317.387 77.99H320.627L320.687 78.07L320.617 78.8L319.347 78.75L318.347 78.76L318.327 80.06L319.287 80.07L320.157 80.04L320.207 80.12L320.147 80.86L319.207 80.83L318.317 80.84L318.307 81.41L318.327 82.23L319.257 82.24L320.607 82.2ZM327.535 83H326.685L326.585 81.48L326.355 79.44H326.295L324.995 82.47H324.245L323.045 79.44H322.965L322.745 81.39L322.615 83H321.805L322.345 77.99H323.465L323.695 78.73L324.635 81.2H324.705L325.705 78.72L325.955 77.99H327.045L327.535 83ZM333.22 80.4C333.94 80.5533 334.3 80.9467 334.3 81.58C334.3 82.5467 333.523 83.03 331.97 83.03C331.496 83.03 331.04 83.02 330.6 83L330.64 81.5L330.6 77.99L332.36 77.98C332.88 77.98 333.286 78.0867 333.58 78.3C333.873 78.5133 334.02 78.82 334.02 79.22C334.02 79.4933 333.95 79.7333 333.81 79.94C333.67 80.14 333.473 80.2933 333.22 80.4ZM333.02 79.35C333.02 79.1167 332.943 78.95 332.79 78.85C332.636 78.75 332.383 78.7 332.03 78.7H331.55L331.53 80.09L332.35 80.12C332.576 80.0667 332.743 79.98 332.85 79.86C332.963 79.74 333.02 79.57 333.02 79.35ZM332.12 82.33C332.506 82.33 332.8 82.2633 333 82.13C333.206 81.9967 333.31 81.8 333.31 81.54C333.31 81.3333 333.24 81.1733 333.1 81.06C332.96 80.94 332.746 80.8567 332.46 80.81L331.52 80.82L331.51 81.41L331.53 82.3C331.743 82.32 331.94 82.33 332.12 82.33ZM337.591 77.92C338.324 77.92 338.891 78.1367 339.291 78.57C339.698 78.9967 339.901 79.6 339.901 80.38C339.901 81.2467 339.684 81.9133 339.251 82.38C338.824 82.8467 338.214 83.08 337.421 83.08C336.681 83.08 336.111 82.86 335.711 82.42C335.311 81.98 335.111 81.3567 335.111 80.55C335.111 79.71 335.324 79.0633 335.751 78.61C336.184 78.15 336.798 77.92 337.591 77.92ZM337.501 78.71C337.021 78.71 336.668 78.8467 336.441 79.12C336.221 79.3867 336.111 79.8233 336.111 80.43C336.111 81.1033 336.221 81.5833 336.441 81.87C336.661 82.1567 337.011 82.3 337.491 82.3C337.978 82.3 338.334 82.1667 338.561 81.9C338.788 81.6267 338.901 81.1833 338.901 80.57C338.901 79.9033 338.791 79.4267 338.571 79.14C338.351 78.8533 337.994 78.71 337.501 78.71ZM345.127 81.41L345.157 83H344.187L344.227 81.5L344.197 78.73H342.117L342.077 81.41L342.107 83H341.137L341.177 81.5L341.137 77.97H345.177L345.127 81.41ZM348.77 77.98C349.31 77.98 349.726 78.1133 350.02 78.38C350.32 78.64 350.47 79.0133 350.47 79.5C350.47 80.0733 350.28 80.5267 349.9 80.86C349.52 81.1867 349.006 81.35 348.36 81.35H347.79V81.41L347.83 83H346.87L346.91 81.5L346.87 77.99L348.77 77.98ZM348.6 80.63C349.173 80.51 349.46 80.16 349.46 79.58C349.46 79.2933 349.38 79.08 349.22 78.94C349.06 78.8 348.813 78.7233 348.48 78.71L347.83 78.73L347.8 80.61L348.6 80.63ZM353.577 77.92C354.311 77.92 354.877 78.1367 355.277 78.57C355.684 78.9967 355.887 79.6 355.887 80.38C355.887 81.2467 355.671 81.9133 355.237 82.38C354.811 82.8467 354.201 83.08 353.407 83.08C352.667 83.08 352.097 82.86 351.697 82.42C351.297 81.98 351.097 81.3567 351.097 80.55C351.097 79.71 351.311 79.0633 351.737 78.61C352.171 78.15 352.784 77.92 353.577 77.92ZM353.487 78.71C353.007 78.71 352.654 78.8467 352.427 79.12C352.207 79.3867 352.097 79.8233 352.097 80.43C352.097 81.1033 352.207 81.5833 352.427 81.87C352.647 82.1567 352.997 82.3 353.477 82.3C353.964 82.3 354.321 82.1667 354.547 81.9C354.774 81.6267 354.887 81.1833 354.887 80.57C354.887 79.9033 354.777 79.4267 354.557 79.14C354.337 78.8533 353.981 78.71 353.487 78.71ZM359.183 77.93C359.73 77.93 360.206 78.0367 360.613 78.25L360.433 79.1L360.343 79.13C360.176 79.0033 359.983 78.9033 359.763 78.83C359.55 78.7567 359.326 78.72 359.093 78.72C358.173 78.72 357.713 79.2933 357.713 80.44C357.713 81.04 357.833 81.4967 358.073 81.81C358.313 82.1167 358.663 82.27 359.123 82.27C359.35 82.27 359.58 82.2333 359.813 82.16C360.046 82.0867 360.253 81.9867 360.433 81.86L360.533 81.91L360.453 82.76C360.006 82.9667 359.546 83.07 359.073 83.07C358.306 83.07 357.72 82.85 357.313 82.41C356.906 81.97 356.703 81.3433 356.703 80.53C356.703 79.6967 356.916 79.0567 357.343 78.61C357.776 78.1567 358.39 77.93 359.183 77.93Z" fill="white"/>
<path d="M94 195.798L97 200.16L93.5714 225.457L73.4286 232H48.1429L40 204.521L42.1429 202.34L46.4286 199.287L48.1429 197.106H50.7143L59.2857 191.872L74.7143 191L89.2857 193.617L94 195.798Z" fill="#C86B6B"/>
<path d="M25 217.361V220.344L39.5714 231L49.4286 228.443L50.7143 225.459L52 220.344L50.7143 214.803L49.4286 208.41L45.1429 205.852L39.5714 205L37.4286 207.131L32.7143 210.967L29.2857 211.82L27.5714 214.803L25 217.361Z" fill="#935454"/>
<path d="M93.5 215.429L91 221.857V227.857L94.75 230L101 226.571V223.571L99.75 212.857L98.5 206.857V202.143L97.25 200L94.75 202.143L93.5 209.857V215.429Z" fill="#935454"/>
<path d="M18.4145 307.111C19.1075 305.333 22.1682 303.407 23.6119 302.667L44.4013 300L47 306.222L46.1338 309.778C44.6901 310.222 41.3695 311.2 39.637 311.556C37.4715 312 30.5416 315.111 29.2423 315.556C27.9429 316 25.3442 318.222 24.478 318.667C23.6118 319.111 21.8793 319.111 19.7137 318.667C17.5482 318.222 17.5483 316.444 17.1152 314.667C16.6821 312.889 17.5483 309.333 18.4145 307.111Z" fill="#613636"/>
<path d="M83.7886 300.273L58 302L77.4472 271.773L99.4309 264L103.659 266.159C104.335 266.505 106.477 268.03 107.463 268.75L109.154 270.045L110 271.341V272.205L83.7886 300.273Z" fill="#C86B6B"/>
<path d="M38.6283 307L48.5026 306.572L88 219.279C83.7068 217.853 74.6052 215 72.5445 215C70.4838 215 69.1099 215.285 68.6806 215.428L60.0942 220.563C57.9476 221.847 51.0785 226.981 48.0733 227.837C45.6691 227.495 39.9162 227.695 37.3403 227.837C32.3316 228.693 21.6272 230.661 18.8796 231.688C15.445 232.972 11.1518 239.819 9.43456 242.386C8.06073 244.44 6.57243 249.518 6 251.8V259.93C6 260.273 7.43106 266.634 8.1466 269.772L13.2984 286.888C14.3002 289.456 16.4754 294.847 17.1623 295.874C18.0209 297.158 21.0262 299.726 22.7435 301.437C24.4607 303.149 26.6073 304.005 29.6126 305.288C32.0168 306.315 36.6248 306.857 38.6283 307Z" fill="#515354"/>
<path d="M143.591 214.558L141 207.93L142.727 205.279L154.818 196L156.977 197.326L159.136 202.186L160 207.488L147.477 215L143.591 214.558Z" fill="#E5CFB6"/>
<path d="M98.4023 278.508L95 280.7L103.506 294.727L121.368 307H126.046L128.172 305.685C128.881 304.808 130.469 302.792 131.149 301.74C131.534 301.145 131.756 300.242 131.876 299.41C132.024 298.381 131.631 297.341 131.153 296.418C130.717 295.577 130.142 294.321 129.448 292.535C127.747 288.151 121.368 280.7 120.092 279.385C119.411 278.333 116.123 275.732 114.563 274.563C113.004 273.54 109.63 271.407 108.609 271.056C107.589 270.706 105.349 272.079 104.356 272.81L101.805 275.001L98.4023 278.508Z" fill="#4AA1ED"/>
<path d="M55.4511 308.218C51.3293 306.857 48.0091 308.785 46.8641 309.92C45.8337 309.239 43.8587 304.249 43 301.839L55.4511 300.563C56.596 300.705 59.4011 300.989 61.462 300.989C63.5228 300.989 67.1866 300.705 68.7609 300.563L74.7717 299.713L78.6359 298.437V298.011L81.6413 291.207L85.0761 284.828L94.9511 281L101.821 284.828L111.266 291.207L120.283 302.69L122 308.218L120.283 313.322L113.413 318H101.821C98.3859 318 83.788 315.023 78.6359 313.322C73.4837 311.621 60.6033 309.92 55.4511 308.218Z" fill="#6EB6F5"/>
<path d="M44.6559 306.81C46.0323 307.154 47.81 306.953 48.5269 306.81C49.8172 306.81 54.5484 304.66 55.8387 303.799C57.129 302.939 63.1505 296.918 64.871 295.197C66.2473 293.821 71.7527 286.882 74.3333 283.584C75.767 281.434 79.0645 276.789 80.7849 275.412C82.9355 273.692 87.6667 271.972 89.3871 271.542C91.1075 271.111 93.2581 270.251 94.9785 269.391C96.6989 268.531 98.4194 266.38 99.7097 263.8C100.742 261.735 101 259.212 101 258.208V251.757C101 250.036 99.8531 245.592 99.2796 243.585L95.8387 232.832C95.4086 231.829 94.3763 229.305 93.6882 227.241C92.828 224.66 90.2473 221.219 88.957 219.929C87.6667 218.639 85.9462 219.069 84.6559 219.069C83.6237 219.069 81.0717 219.642 79.9247 219.929L66.5914 229.391C64.2975 229.965 59.0215 231.112 56.2688 231.112H46.8065L33.043 236.273C32.0394 236.703 29.6882 237.821 28.3118 238.854C26.5914 240.144 24.0108 245.735 22.7204 248.746C21.6882 251.155 21.1434 257.491 21 260.359L23.5806 273.692C25.1577 278.71 28.4839 289.176 29.172 290.896C29.8602 292.617 31.7527 296.488 32.6129 298.208C34.19 300.072 37.4301 303.885 37.7742 304.229C38.2043 304.659 42.9355 306.38 44.6559 306.81Z" fill="#E5CFB6"/>
<path d="M144 214.364L141.417 208L82 241.091L87.1667 250L144 214.364Z" fill="#515354"/>
<path d="M57.5938 256.209L146.165 206.334M58.4537 257.929L150.894 204.184M58.8836 259.649L155.624 202.034" stroke="black" stroke-width="0.2"/>
<path d="M59.3125 261.368L156.053 202.894" stroke="black" stroke-width="0.2"/>
<path d="M60.1719 263.948L152.183 206.334M60.6018 265.668L148.743 209.774" stroke="black" stroke-width="0.2"/>
<path d="M114.6 239.083L103.767 239.514L99 242.528L99.4333 244.25L100.3 247.694L101.167 252L105.933 248.556L109.4 247.264L116.333 245.111L118.5 243.819L121.533 240.806L122.4 238.222L124.567 234.778L125 232.194V230.903L124.567 228.319L125 226.167L124.133 226.597L123.7 225.736L123.267 224.875L122.4 223.583L121.533 223.153L121.1 221.861L120.667 221.431L120.233 221L119.8 221.431V223.153V224.014H118.933L118.5 224.444V225.736L118.933 226.597V227.458L117.2 227.028V227.889V228.75H116.767L116.333 229.181V230.042L116.767 231.764V233.486L116.333 234.778L115.467 237.361L114.6 239.083Z" fill="#FFEEEE"/>
<path d="M80.7235 261.249C78.2245 262.517 76.9671 262.517 74.4752 261.672C72.4824 260.996 70.8695 259.982 70.3113 259.559C68.2285 260.827 63.8964 263.701 63.23 265.053C62.397 266.744 64.063 270.97 64.4795 273.083C64.896 275.196 65.3125 276.464 65.7289 277.309C66.1454 278.155 66.9784 279 68.6443 279C70.3103 279 71.5597 278.577 75.7246 276.464C79.8895 274.351 83.6379 268.434 85.3038 264.63C86.1136 262.94 87.8037 251.529 86.5543 254.487C85.5547 256.854 82.2506 259.981 80.7235 261.249Z" fill="#515354"/>
<path d="M51 250.164L55.4828 248L64 274.836L59.9655 277L55.0345 269.642L51.4483 260.119L51 250.164Z" fill="#515354"/>
<circle cx="54.6246" cy="258.398" r="0.429956" transform="rotate(5.55895 54.6246 258.398)" fill="#C4C4C4"/>
<circle cx="55.316" cy="260.193" r="0.429956" transform="rotate(5.55895 55.316 260.193)" fill="#C4C4C4"/>
<circle cx="56.0035" cy="261.988" r="0.429956" transform="rotate(5.55895 56.0035 261.988)" fill="#C4C4C4"/>
<circle cx="56.6949" cy="263.783" r="0.429956" transform="rotate(5.55895 56.6949 263.783)" fill="#C4C4C4"/>
<circle cx="57.3824" cy="265.578" r="0.429956" transform="rotate(5.55895 57.3824 265.578)" fill="#C4C4C4"/>
<circle cx="58.0738" cy="267.374" r="0.429956" transform="rotate(5.55895 58.0738 267.374)" fill="#C4C4C4"/>
<path d="M59.7446 267.818L55.875 256.639L56.7349 256.209L60.6045 267.388L59.7446 267.818Z" fill="#C4C4C4"/>
<path d="M84.1742 248.588C84.9699 250.961 84.2447 253.686 82.6704 255.849C81.1098 257.992 78.798 259.469 76.53 259.5C74.4038 258.862 73.3713 258.463 72.6254 257.674C71.8649 256.87 71.3594 255.618 70.5077 253.084C70.9472 248.484 72.6233 244.121 76.5553 242.5C78.9494 242.511 80.4363 242.934 81.5158 243.831C82.6257 244.753 83.3878 246.242 84.1742 248.588Z" fill="black" stroke="black"/>
<path d="M144.447 202.464C144.447 203.177 145.159 204.184 144.447 204.184C143.735 204.184 141.867 203.177 141.867 202.464C141.867 201.752 142.445 201.175 143.157 201.175C143.869 201.175 144.447 201.752 144.447 202.464Z" fill="#C4C4C4"/>
<path d="M148.748 199.025C148.748 199.737 149.46 200.745 148.748 200.745C148.035 200.745 146.168 199.737 146.168 199.025C146.168 198.312 146.745 197.735 147.458 197.735C148.17 197.735 148.748 198.312 148.748 199.025Z" fill="#C4C4C4"/>
<path d="M153.045 195.585C153.045 196.297 153.757 197.305 153.045 197.305C152.332 197.305 150.465 196.297 150.465 195.585C150.465 194.873 151.042 194.295 151.755 194.295C152.467 194.295 153.045 194.873 153.045 195.585Z" fill="#C4C4C4"/>
<path d="M156.85 209.798C157.029 209.108 156.592 207.955 157.281 208.133C157.971 208.312 159.526 209.756 159.347 210.445C159.168 211.135 158.464 211.549 157.775 211.37C157.085 211.192 156.671 210.488 156.85 209.798Z" fill="#C4C4C4"/>
<path d="M151.822 212.049C152.001 211.359 151.564 210.205 152.254 210.384C152.943 210.563 154.498 212.007 154.32 212.696C154.141 213.386 153.437 213.8 152.747 213.621C152.058 213.443 151.644 212.739 151.822 212.049Z" fill="#C4C4C4"/>
<path d="M146.799 214.3C146.978 213.61 146.541 212.456 147.23 212.635C147.92 212.814 149.475 214.258 149.296 214.947C149.118 215.637 148.414 216.051 147.724 215.872C147.034 215.693 146.62 214.99 146.799 214.3Z" fill="#C4C4C4"/>
<path d="M27.8889 216.437L25.3266 219.494C24.3017 220.717 20.9137 225.535 19.3479 227.792C18.7785 228.665 17.7251 230.587 18.0667 231.286C18.4938 232.159 21.9102 233.469 23.1913 234.343C24.2163 235.041 29.0277 236.672 31.3054 237.4C33.1559 237.982 37.0279 239.234 37.7111 239.583C38.3944 239.933 41.9817 240.311 43.6899 240.457L58.6367 242.204L61.199 243.077L63.7614 248.318C64.4446 249.716 65.1849 250.647 65.4696 250.938L66.7507 252.249L68.0319 253.122L68.4589 253.996L68.886 255.306V256.179L68.0319 256.616L68.4589 257.053L68.886 257.489H69.7401L70.5942 257.053V254.869C70.5942 254.17 70.0248 252.831 69.7401 252.249H70.1672C70.1672 252.394 70.2526 252.86 70.5942 253.559C70.9358 254.258 71.306 254.432 71.4483 254.432C71.733 254.869 72.217 256.005 71.8754 257.053C71.5337 258.101 71.733 258.072 71.8754 257.926C72.3024 257.635 73.1565 256.878 73.1565 256.179C73.1565 255.48 72.8718 254.723 72.7295 254.432C72.5871 253.996 72.217 252.947 71.8754 252.249C71.4483 251.375 71.8754 249.628 71.8754 250.065C71.8754 250.502 72.7295 251.812 73.1565 252.249C73.4982 252.598 74.153 252.977 74.4377 253.122C74.4377 253.85 74.3523 255.48 74.0106 256.179C73.669 256.878 73.8683 257.635 74.0106 257.926L75.7188 254.869V252.249L74.4377 249.628V248.755L75.7188 249.192V250.502C75.7188 250.793 75.8043 251.55 76.1459 252.249C76.4875 252.947 76.5729 252.831 76.5729 252.685L77 250.065V247.445L73.1565 246.134L68.886 240.894L66.1652 237.352C64.8975 235.702 63.0368 234.611 60.9779 234.31L55.2203 233.469L46.6793 231.722L37.7111 227.792L36.0029 226.918L38.9923 224.298V223.424C38.9923 222.988 37.7111 220.367 36.43 219.057C35.4051 218.009 34.2947 217.165 33.8677 216.873C33.2983 216.582 31.9032 216 30.8783 216C29.8534 216 28.4583 216.291 27.8889 216.437Z" fill="#FFEEEE"/>
<path d="M82.9312 203.433C83.2834 202.393 82.1975 200.978 81.6104 200.4L67.5221 190L64 195.2C64.1468 196.355 64.5283 199.013 64.8805 200.4C65.3208 202.133 67.5221 205.166 67.9623 206.033C68.4026 206.9 70.1637 208.633 71.9247 209.5C73.6857 210.366 78.0884 209.933 79.4091 209.5C80.7299 209.066 82.491 204.733 82.9312 203.433Z" fill="#FFEEEE"/>
<path d="M67.7167 193.899L67 192L83 199.917L82.2301 200.38C80.5128 201.414 78.4463 201.699 76.5135 201.167L74.7687 200.606C73.3515 200.151 72.0394 199.418 70.9089 198.45C69.4792 197.225 68.3813 195.66 67.7167 193.899Z" fill="#EAC3C3"/>
<path d="M95.4887 190.878C96.1417 189.22 96.0328 186.317 95.8968 185.073L92.2242 183L91.4081 192.122L91.8161 195.854L91 200L92.2242 198.756C93.0403 196.821 94.8358 192.537 95.4887 190.878Z" fill="#EBDDAC"/>
<path d="M95 179.646C95 190.496 91.0864 201 81.9737 201C72.861 201 62 190.496 62 179.646C62 168.796 69.3873 160 78.5 160C87.6127 160 95 168.796 95 179.646Z" fill="#FFEEEE"/>
<path d="M87.7296 187.456H82.1463C82.8626 186.034 84.381 182.934 84.7246 181.91C85.0682 180.886 85.4404 178.639 85.5836 177.644L83.0067 181.483C82.1477 182.763 80.3439 185.494 80.0003 186.176C79.6567 186.859 79.5708 188.452 79.5708 189.163C79.4276 189.021 78.9695 188.48 78.2823 187.456C77.4234 186.176 78.2823 181.91 77.8529 182.763C77.4234 183.617 77.8529 183.19 76.5644 187.456C75.276 191.722 76.5644 191.722 76.5644 193.856C76.5644 195.562 77.4234 197.98 77.8529 198.975C77.1371 198.264 75.4477 196.33 74.417 194.282C73.3862 192.234 73.1285 188.025 73.1285 186.176V180.63L70.5516 183.19V184.47L69.2632 187.456C69.2632 186.745 69.1773 185.067 68.8337 184.043C68.4901 183.019 67.5452 181.91 67.1157 181.483C66.8294 182.479 66.2568 184.896 66.2568 186.603C66.2568 188.736 67.1157 192.576 67.9747 195.989C68.3749 197.579 68.6974 198.378 68.9253 198.74C69.0476 198.825 69.1606 198.904 69.2632 198.975C69.2034 199.034 69.0887 199 68.9253 198.74C67.3405 197.637 64.1947 195.44 61.9619 193.856C58.9555 191.722 60.244 193.002 58.526 193.856C56.8081 194.709 55.9491 193.856 54.6593 193.856C53.3695 193.856 53.8017 192.149 52.9427 190.443C52.0838 188.736 52.0824 185.323 51.2234 182.337C50.3645 179.35 52.0824 173.804 54.6593 167.405C57.2362 161.006 61.9606 154.606 63.6785 152.473C65.3964 150.34 70.5503 148.207 73.9861 147.353C77.422 146.5 77.8515 147.353 81.2874 148.207C84.0361 148.889 89.5907 152.189 92.0245 153.753C94.1719 155.744 98.8103 160.408 100.185 163.139C101.903 166.552 102.762 170.391 103.621 173.804C104.308 176.535 103.907 180.63 103.621 182.337C102.762 183.332 101.215 184.896 101.903 183.19C102.762 181.057 101.903 177.644 101.903 179.35C101.903 180.715 100.757 182.479 100.185 183.19L98.4668 184.47L96.3193 185.323L93.3129 186.176L87.7296 187.456Z" fill="#EBDDAC"/>
<path d="M537.706 106.171L539.15 108.122L543 106.171V103.244L541.075 93L536.743 103.732L537.706 106.171Z" fill="#F5B349"/>
<path d="M453 111.049L455.406 113L457.813 112.024L458.775 110.073L459.257 106.171L453.481 105.683L453 111.049Z" fill="#F5B349"/>
<path d="M393.177 66.3171C394.48 68.4634 397.338 69 398.605 69H412.718C413.623 68.1057 415.649 65.6732 416.518 63.0976C417.603 59.878 416.518 57.1951 416.518 53.9756C416.518 51.4 415.07 49.3252 414.346 48.6098L407.833 47H401.863C400.777 47.1789 398.062 47.7512 395.893 48.6098C393.723 49.4683 392.455 54.6911 392.092 57.1951C391.911 59.3415 391.875 64.1707 393.177 66.3171Z" fill="#5BDAA2"/>
<path d="M443.794 99.1827L445.307 94.8459C446.752 91.7514 446.752 91.9546 447.234 90.9909C447.819 89.8209 465.906 94.4469 466.027 97.7371L451.995 112.564L448.695 115.454L443.794 118.674C443.119 118.997 441.554 119.688 440.7 119.864C439.846 120.04 437.198 117.27 435.981 115.863C435.334 114.523 433.738 111.463 432.535 109.943C431.331 108.423 426.792 100.075 424.673 96.0913L418.946 81.7999L414.857 75.4593L410.792 74.639L404.593 74.2588L399.145 74.8286L392.836 73.9183L389.949 73.4082L389.512 71.288L389.063 66.4076L389.378 65.2375L389.584 63.5374L389.791 61.8372L389.463 60.2471L389.669 58.547L391.489 59.2771L391.804 58.107L393.624 58.8371L394.813 61.9074L395.578 65.6178L395.922 67.2886C396.034 67.8295 396.562 68.1776 397.103 68.0662L397.725 67.938L397.932 66.2379L397.495 64.1177L396.512 59.3473C396.162 57.6511 398.008 59.4073 398.975 60.4975L400.164 63.5678L400.727 66.2987C400.838 66.8396 401.367 67.1877 401.908 67.0763L403.064 66.8381L407.868 65.8482L414.808 64.4184C417.37 63.8904 419.725 64.8786 420.583 65.4387L423.155 67.1189L425.315 72.1994L427.038 75.1597L431.551 80.8603L433.383 84.3506C434.605 86.6775 437.691 91.7514 437.691 91.7514C437.691 91.7514 438.699 92.5787 439.524 93.8821L442.29 97.2825L443.369 99.8228L443.794 99.1827Z" fill="#FFEEEE"/>
<path d="M461.725 267.659L464.143 266H480.582L483 268.074L482.033 273.881C481.549 276.094 480.582 280.601 480.582 280.933C480.582 281.265 479.293 287.156 478.648 290.059L477.198 296.696V300.43L478.165 305.407V312.044L477.681 316.193L474.297 317.852H470.912L467.527 316.193L463.176 320.341L451.088 322C448.993 321.862 444.705 321.502 444.319 321.17C443.932 320.839 440.612 319.926 439 319.511V318.681L441.901 316.193L446.736 313.704L455.44 308.311L460.758 302.919L461.725 300.844L463.176 295.037L462.209 283.007L461.242 278.444V275.956L461.725 267.659Z" fill="#613636"/>
<path d="M528.439 270.706L530.404 269.059L538.263 267L550.544 268.235L551.526 276.471V279.353L552.509 290.059V295V306.118L552.018 310.235V313.118L553 318.882V322.176L552.018 325.059L550.053 325.882L549.561 326.706L545.14 329.176L540.228 330H528.439L526.474 328.765L525 327.118L527.456 324.235L531.386 321.353L534.825 317.235L536.789 311.471L535.807 301.176L534.825 294.176L531.877 284.294L529.421 278.118L528.439 270.706Z" fill="#613636"/>
<path d="M458 182.919L461.388 157.869L475.426 151L524.798 156.253L527.218 168.778L530.606 192.616L532.059 209.99L534.963 224.131L537.383 231.808L546.58 248.374L549 262.919V269.384L537.383 271H529.154L527.218 266.556L524.798 257.667L518.989 245.141L511.729 228.172L505.92 217.263L499.628 197.869L496.239 193.828L494.303 188.576L489.947 179.283L487.527 191L485.59 209.99L483.654 224.131V228.172V231.808L485.59 239.081V248.374L483.654 260.091L481.718 268.172L477.846 269.384L472.521 271L463.809 268.172V257.667L461.388 239.081L458 215.646V182.919Z" fill="#6EB6F5"/>
<path d="M551.926 91.6975L550 89.2843L542.296 90.7322L537 97.0065L538.444 100.868L540.37 104.729L543.259 109.073L546.63 112.451L550 118.243L552.889 122.104L554.815 125L559.148 123.552L564.444 120.174L569.741 115.83L574.074 110.521L575.519 106.177L576.481 102.798L577.444 101.35L579.852 98.9372L580.815 97.9719L582.741 96.524L585.148 95.076L586.593 92.1801L588.037 89.7669L589.963 87.3537L592.852 84.9404L598.148 81.562L602 80.114L600.074 79.1487H598.63L595.259 80.114L592.852 81.0792L589.963 83.0099L589.481 81.0792V77.2181V73.3569L588.037 74.3222L586.593 76.7355L586.111 81.562L585.63 84.4578H585.148L583.704 83.9751L581.778 81.562L580.815 80.114L581.296 79.1487L582.259 76.7355L583.222 75.2875L584.185 73.3569C584.346 73.0352 584.57 72.1986 584.185 71.4264C583.8 70.6542 582.741 71.1046 582.259 71.4264L580.333 72.8743L577.926 76.7355L576.481 80.114L575.519 81.562L574.074 83.0099L572.148 85.9058L571.667 87.3537V89.7669V91.6975L571.185 94.1107L568.778 95.5587L565.889 96.524L563 97.9719L560.593 99.4198L559.148 98.9372L556.741 96.524L551.926 91.6975Z" fill="#FFEEEE"/>
<path d="M492.28 56.3284L491.32 52.5075L507.16 42V44.8657V50.597V53.4627L509.56 56.3284L511 57.7612L509.56 61.1045L503.8 68.2687L498.52 72.0896L492.28 74L488.92 72.0896L487 65.8806V61.1045L488.92 57.7612L492.28 56.3284Z" fill="#FFEEEE"/>
<path d="M466.286 66.3981L474 63L471.107 92.1262L466.286 97.9515L463.393 105.233L459.536 111.544L455.196 113L457.125 111.544V109.117L455.196 103.291C454.714 101.511 453.75 97.466 453.75 95.5243C453.75 93.5825 449.25 91.8026 447 91.1553L449.411 88.2427L453.75 81.932L459.536 77.0777L464.357 70.767L466.286 66.3981Z" fill="#FED89B"/>
<path d="M487.509 60.3349L488.478 57.445L478.792 60.3349L473.95 62.7431L468.138 73.3394L464.748 81.5275L465.233 91.6422V108.982L464.748 118.615V127.284L462.327 139.326L459.421 149.44L457 154.257L460.874 158.592H471.528L482.667 161L496.711 158.592H513.176L524.799 157.147L526.252 152.33V148.477L520.44 132.583V118.615L524.799 108.018L529.157 97.422V85.3807L527.704 70.9312L534 63.7064L526.252 60.3349L511.723 56.4817L510.27 56L509.786 56.4817L510.755 57.445L508.818 58.4083L505.912 60.3349L499.132 63.7064H493.805L488.478 62.7431L487.509 60.3349Z" fill="#F5B349"/>
<path d="M537.211 66.9142L533.895 64L527.737 66.9142L523 80.5138V91.1992L527.737 96.5419L531.526 98.9704L533.895 102.37C535 104.313 539.599 109.233 539.105 107.713C538.906 107.1 538.707 106.573 538.472 106.06C537.803 104.594 537.558 102.937 538.143 101.436L539.105 98.9704C539.737 97.6752 541.663 94.5991 544.316 92.6563C546.968 90.7135 549.211 89.5802 550 89.2564L548.105 86.3422L544.316 80.5138L539.105 72.7426L537.211 66.9142Z" fill="#FED89B"/>
<path d="M504.125 47.8L506 43L491 52.6L492.875 55H495.688L500.375 52.6L504.125 47.8Z" fill="#EAC3C3"/>
<path d="M479.25 35L481 23.8966L479.25 21H477.062L474.875 24.8621L474 27.2759L475.75 32.5862L479.25 35Z" fill="#613636"/>
<path d="M511 34.5C508.419 45.7895 498.613 51.9474 489.839 54C482.613 52.4605 481.065 46.3026 479 34.5C479 23.447 480.432 15 489.839 15C499.245 15 511 23.447 511 34.5Z" fill="#FFEEEE"/>
<path d="M480.534 24.7123H485.096L487.63 20.6575H492.699H497.767L501.315 24.7123L503.342 29.274L504.863 31.3014L506.89 32.8219V39.9178V41.9452L507.904 42.9589L508.918 46L510.945 44.4795L512.466 41.9452L513.479 39.9178V36.8767L515 34.8493V31.3014L513.479 27.2466V22.6849V20.6575L512.466 18.6301L510.945 14.5753L508.918 12.5479H504.863L503.342 10.5205L501.315 9H497.767L492.699 10.5205L489.658 11.5342H485.096L481.548 14.5753L478 18.6301V22.6849L480.534 24.7123Z" fill="#613636"/>
<path d="M486.541 55.2985L488.703 57.4478L490.324 59.0597L489.784 62.2836H495.189L503.297 60.1343L507.622 57.4478L513.568 53.1493L520.595 51L523.838 53.6866L528.703 52.6119L531.946 55.2985L533.027 55.8358H536.27L540.595 58.5224L544.378 63.8955L546 70.8806V73.0299L542.08 77.5263L539.672 74.1045L539.19 73.2632L537.264 67.5789L533.027 65.2105L523.838 71.9552L514.108 77.8657L510.324 81.6269L505.459 83.7761L495.189 87L487.081 85.9254L477.892 83.7761L471.946 81.6269L466.541 74.1045L466 65.5075L469.243 56.9104H476.811L479.514 55.8358L483.297 58.5224L486.541 55.2985Z" fill="#F75C55"/>
</svg>
